<?xml version="1.0" encoding="UTF-8"?>
<!DOCTYPE svg PUBLIC "-//W3C//DTD SVG 1.1//EN" "http://www.w3.org/Graphics/SVG/1.1/DTD/svg11.dtd">
<!-- Creator: CorelDRAW -->
<svg xmlns="http://www.w3.org/2000/svg" xml:space="preserve" width="6.249mm" height="6.2492mm" version="1.1" style="shape-rendering:geometricPrecision; text-rendering:geometricPrecision; image-rendering:optimizeQuality; fill-rule:evenodd; clip-rule:evenodd"
viewBox="0 0 11.58 11.58"
 xmlns:xlink="http://www.w3.org/1999/xlink"
 xmlns:xodm="http://www.corel.com/coreldraw/odm/2003">
 <defs>
  <style type="text/css">
   <![CDATA[
    .fil0 {fill:#111945}
   ]]>
  </style>
 </defs>
 <g id="Camada_x0020_1">
  <metadata id="CorelCorpID_0Corel-Layer"/>
  <path class="fil0" d="M1.64 0l8.29 0c0.9,0 1.64,0.74 1.64,1.64l0 8.29c0,0.9 -0.74,1.64 -1.64,1.64l-8.29 0c-0.9,0 -1.64,-0.74 -1.64,-1.64l0 -8.29c0,-0.9 0.74,-1.64 1.64,-1.64zm4.08 6.32l0 4.4c0,0.06 0.05,0.11 0.11,0.11l1.64 0c0.06,0 0.11,-0.05 0.11,-0.11l0 -4.48 1.19 0c0.06,0 0.11,-0.05 0.11,-0.11l0.11 -1.35c0.01,-0.07 -0.05,-0.12 -0.11,-0.12l-1.3 0 0 -0.96c0,-0.22 0.18,-0.41 0.41,-0.41l0.91 0c0.06,0 0.11,-0.05 0.11,-0.11l0 -1.35c0,-0.06 -0.05,-0.11 -0.11,-0.11l-1.54 0c-0.91,0 -1.64,0.73 -1.64,1.64l0 1.3 -0.82 0c-0.06,0 -0.11,0.05 -0.11,0.11l0 1.35c0,0.06 0.05,0.12 0.11,0.12l0.82 0 0 0.07z"/>
 </g>
</svg>
