<?xml version="1.0" encoding="UTF-8"?>
<!DOCTYPE svg PUBLIC "-//W3C//DTD SVG 1.1//EN" "http://www.w3.org/Graphics/SVG/1.1/DTD/svg11.dtd">
<!-- Creator: CorelDRAW -->
<svg xmlns="http://www.w3.org/2000/svg" xml:space="preserve" width="7.4996mm" height="6.7862mm" version="1.1" style="shape-rendering:geometricPrecision; text-rendering:geometricPrecision; image-rendering:optimizeQuality; fill-rule:evenodd; clip-rule:evenodd"
viewBox="0 0 216.11 195.55"
 xmlns:xlink="http://www.w3.org/1999/xlink"
 xmlns:xodm="http://www.corel.com/coreldraw/odm/2003">
 <defs>
  <style type="text/css">
   <![CDATA[
    .fil0 {fill:#D3E459}
   ]]>
  </style>
 </defs>
 <g id="Camada_x0020_1">
  <metadata id="CorelCorpID_0Corel-Layer"/>
  <path class="fil0" d="M108.05 50.19c14.13,-18.03 29.42,-40.54 56.69,-31.63 23.46,7.66 40.11,32.04 32.92,56.83 -11.8,40.75 -55.33,77.18 -89.61,99.6 -34.23,-22.39 -76.81,-58.26 -89,-97.64 -7.88,-25.47 6.26,-49.19 30.43,-58.09 28.11,-10.35 43.88,12.17 58.57,30.92zm0 145.36c38.04,-25.87 89.48,-63.36 104.6,-110.21 9.36,-29 -0.59,-59.94 -26.35,-75.5 -32.85,-19.85 -51.66,-6.48 -78.25,11.98 -26.96,-18.71 -46.25,-31.33 -78.25,-11.98 -25.75,15.57 -35.71,46.48 -26.35,75.5 15.12,46.85 66.56,84.34 104.6,110.21z"/>
 </g>
</svg>
