<?xml version="1.0" encoding="UTF-8"?>
<!DOCTYPE svg PUBLIC "-//W3C//DTD SVG 1.1//EN" "http://www.w3.org/Graphics/SVG/1.1/DTD/svg11.dtd">
<!-- Creator: CorelDRAW -->
<svg xmlns="http://www.w3.org/2000/svg" xml:space="preserve" width="23.5502mm" height="24.7655mm" version="1.1" style="shape-rendering:geometricPrecision; text-rendering:geometricPrecision; image-rendering:optimizeQuality; fill-rule:evenodd; clip-rule:evenodd"
viewBox="0 0 664.39 698.67"
 xmlns:xlink="http://www.w3.org/1999/xlink"
 xmlns:xodm="http://www.corel.com/coreldraw/odm/2003">
 <defs>
  <style type="text/css">
   <![CDATA[
    .fil1 {fill:none}
    .fil2 {fill:#2C376E}
    .fil4 {fill:#373435;fill-rule:nonzero}
    .fil9 {fill:#2C376E;fill-rule:nonzero}
    .fil10 {fill:#2C376E;fill-rule:nonzero}
    .fil8 {fill:#D2D8F7;fill-opacity:0.800000}
    .fil6 {fill:url(#id1)}
    .fil3 {fill:url(#id2)}
    .fil0 {fill:url(#id3)}
    .fil5 {fill:url(#id4);fill-rule:nonzero}
    .fil7 {fill:url(#id5);fill-rule:nonzero}
   ]]>
  </style>
    <mask id="id0">
     <path fill="black" fill-rule="nonzero" d="M327.74 239.09 L374.81 481.26 L377.79 480.66 L327.74 239.09"/>
     <path fill="white" fill-rule="nonzero" d="M327.74 239.09 L280.66 -3.08 L277.68 -2.49 L327.74 239.09"/>
     <path fill="black" fill-rule="nonzero" d="M327.74 239.09 L377.79 480.66 L380.76 480.03 L327.74 239.09"/>
     <path fill="white" fill-rule="nonzero" d="M327.74 239.09 L277.68 -2.49 L274.71 -1.85 L327.74 239.09"/>
     <path fill="black" fill-rule="nonzero" d="M327.74 239.09 L380.76 480.03 L383.73 479.35 L327.74 239.09"/>
     <path fill="#FEFEFE" fill-rule="nonzero" d="M327.74 239.09 L274.71 -1.85 L271.75 -1.18 L327.74 239.09"/>
     <path fill="black" fill-rule="nonzero" d="M327.74 239.09 L383.73 479.35 L386.68 478.65 L327.74 239.09"/>
     <path fill="#FDFDFE" fill-rule="nonzero" d="M327.74 239.09 L271.75 -1.18 L268.79 -0.47 L327.74 239.09"/>
     <path fill="black" fill-rule="nonzero" d="M327.74 239.09 L386.68 478.65 L389.63 477.9 L327.74 239.09"/>
     <path fill="#FBFCFC" fill-rule="nonzero" d="M327.74 239.09 L268.79 -0.47 L265.85 0.27 L327.74 239.09"/>
     <path fill="black" fill-rule="nonzero" d="M327.74 239.09 L389.63 477.9 L392.57 477.12 L327.74 239.09"/>
     <path fill="#FBFBFB" fill-rule="nonzero" d="M327.74 239.09 L265.85 0.27 L262.91 1.05 L327.74 239.09"/>
     <path fill="#030303" fill-rule="nonzero" d="M327.74 239.09 L392.57 477.12 L395.49 476.3 L327.74 239.09"/>
     <path fill="#FAFAFA" fill-rule="nonzero" d="M327.74 239.09 L262.91 1.05 L259.98 1.87 L327.74 239.09"/>
     <path fill="#030303" fill-rule="nonzero" d="M327.74 239.09 L395.49 476.3 L398.41 475.45 L327.74 239.09"/>
     <path fill="#F9F9FA" fill-rule="nonzero" d="M327.74 239.09 L259.98 1.87 L257.06 2.72 L327.74 239.09"/>
     <path fill="#030303" fill-rule="nonzero" d="M327.74 239.09 L398.41 475.45 L401.32 474.56 L327.74 239.09"/>
     <path fill="#F8F9F9" fill-rule="nonzero" d="M327.74 239.09 L257.06 2.72 L254.16 3.61 L327.74 239.09"/>
     <path fill="#060606" fill-rule="nonzero" d="M327.74 239.09 L401.32 474.56 L404.21 473.64 L327.74 239.09"/>
     <path fill="#F8F8F8" fill-rule="nonzero" d="M327.74 239.09 L254.16 3.61 L251.26 4.54 L327.74 239.09"/>
     <path fill="#090909" fill-rule="nonzero" d="M327.74 239.09 L404.21 473.64 L407.1 472.68 L327.74 239.09"/>
     <path fill="#F6F6F7" fill-rule="nonzero" d="M327.74 239.09 L251.26 4.54 L248.38 5.5 L327.74 239.09"/>
     <path fill="#090909" fill-rule="nonzero" d="M327.74 239.09 L407.1 472.68 L409.97 471.68 L327.74 239.09"/>
     <path fill="#F5F6F6" fill-rule="nonzero" d="M327.74 239.09 L248.38 5.5 L245.51 6.49 L327.74 239.09"/>
     <path fill="#0C0C0C" fill-rule="nonzero" d="M327.74 239.09 L409.97 471.68 L412.83 470.65 L327.74 239.09"/>
     <path fill="whitesmoke" fill-rule="nonzero" d="M327.74 239.09 L245.51 6.49 L242.65 7.52 L327.74 239.09"/>
     <path fill="#0C0C0C" fill-rule="nonzero" d="M327.74 239.09 L412.83 470.65 L415.68 469.59 L327.74 239.09"/>
     <path fill="#F4F4F4" fill-rule="nonzero" d="M327.74 239.09 L242.65 7.52 L239.8 8.59 L327.74 239.09"/>
     <path fill="#0F0C0F" fill-rule="nonzero" d="M327.74 239.09 L415.68 469.59 L418.51 468.49 L327.74 239.09"/>
     <path fill="#F3F3F3" fill-rule="nonzero" d="M327.74 239.09 L239.8 8.59 L236.97 9.69 L327.74 239.09"/>
     <path fill="#0F0F0F" fill-rule="nonzero" d="M327.74 239.09 L418.51 468.49 L421.33 467.35 L327.74 239.09"/>
     <path fill="#F2F2F3" fill-rule="nonzero" d="M327.74 239.09 L236.97 9.69 L234.15 10.82 L327.74 239.09"/>
     <path fill="#111111" fill-rule="nonzero" d="M327.74 239.09 L421.33 467.35 L424.13 466.18 L327.74 239.09"/>
     <path fill="#F1F1F1" fill-rule="nonzero" d="M327.74 239.09 L234.15 10.82 L231.34 12 L327.74 239.09"/>
     <path fill="#131313" fill-rule="nonzero" d="M327.74 239.09 L424.13 466.18 L426.92 464.98 L327.74 239.09"/>
     <path fill="#F0F0F0" fill-rule="nonzero" d="M327.74 239.09 L231.34 12 L228.55 13.2 L327.74 239.09"/>
     <path fill="#151515" fill-rule="nonzero" d="M327.74 239.09 L426.92 464.98 L429.7 463.74 L327.74 239.09"/>
     <path fill="#EFEFF0" fill-rule="nonzero" d="M327.74 239.09 L228.55 13.2 L225.78 14.44 L327.74 239.09"/>
     <path fill="#171717" fill-rule="nonzero" d="M327.74 239.09 L429.7 463.74 L432.46 462.46 L327.74 239.09"/>
     <path fill="#EEEEEF" fill-rule="nonzero" d="M327.74 239.09 L225.78 14.44 L223.02 15.71 L327.74 239.09"/>
     <path fill="#191919" fill-rule="nonzero" d="M327.74 239.09 L432.46 462.46 L435.2 461.16 L327.74 239.09"/>
     <path fill="#EEEEEE" fill-rule="nonzero" d="M327.74 239.09 L223.02 15.71 L220.27 17.02 L327.74 239.09"/>
     <path fill="#191919" fill-rule="nonzero" d="M327.74 239.09 L435.2 461.16 L437.93 459.82 L327.74 239.09"/>
     <path fill="#EDEDED" fill-rule="nonzero" d="M327.74 239.09 L220.27 17.02 L217.55 18.36 L327.74 239.09"/>
     <path fill="#1A1A1A" fill-rule="nonzero" d="M327.74 239.09 L437.93 459.82 L440.64 458.44 L327.74 239.09"/>
     <path fill="#EBEBEC" fill-rule="nonzero" d="M327.74 239.09 L217.55 18.36 L214.83 19.73 L327.74 239.09"/>
     <path fill="#1C1C1C" fill-rule="nonzero" d="M327.74 239.09 L440.64 458.44 L443.33 457.03 L327.74 239.09"/>
     <path fill="#EAEBEB" fill-rule="nonzero" d="M327.74 239.09 L214.83 19.73 L212.14 21.14 L327.74 239.09"/>
     <path fill="#1D1D1D" fill-rule="nonzero" d="M327.74 239.09 L443.33 457.03 L446.01 455.59 L327.74 239.09"/>
     <path fill="#EAEAEA" fill-rule="nonzero" d="M327.74 239.09 L212.14 21.14 L209.46 22.58 L327.74 239.09"/>
     <path fill="#1F1F1F" fill-rule="nonzero" d="M327.74 239.09 L446.01 455.59 L448.67 454.12 L327.74 239.09"/>
     <path fill="#E9E9E9" fill-rule="nonzero" d="M327.74 239.09 L209.46 22.58 L206.81 24.06 L327.74 239.09"/>
     <path fill="#202020" fill-rule="nonzero" d="M327.74 239.09 L448.67 454.12 L451.31 452.61 L327.74 239.09"/>
     <path fill="#E8E8E8" fill-rule="nonzero" d="M327.74 239.09 L206.81 24.06 L204.16 25.56 L327.74 239.09"/>
     <path fill="#212121" fill-rule="nonzero" d="M327.74 239.09 L451.31 452.61 L453.93 451.08 L327.74 239.09"/>
     <path fill="#E7E7E8" fill-rule="nonzero" d="M327.74 239.09 L204.16 25.56 L201.54 27.1 L327.74 239.09"/>
     <path fill="#222424" fill-rule="nonzero" d="M327.74 239.09 L453.93 451.08 L456.53 449.5 L327.74 239.09"/>
     <path fill="#E6E6E6" fill-rule="nonzero" d="M327.74 239.09 L201.54 27.1 L198.94 28.67 L327.74 239.09"/>
     <path fill="#222424" fill-rule="nonzero" d="M327.74 239.09 L456.53 449.5 L459.11 447.9 L327.74 239.09"/>
     <path fill="#E5E5E5" fill-rule="nonzero" d="M327.74 239.09 L198.94 28.67 L196.36 30.27 L327.74 239.09"/>
     <path fill="#252525" fill-rule="nonzero" d="M327.74 239.09 L459.11 447.9 L461.68 446.27 L327.74 239.09"/>
     <path fill="#E4E4E4" fill-rule="nonzero" d="M327.74 239.09 L196.36 30.27 L193.8 31.91 L327.74 239.09"/>
     <path fill="#262626" fill-rule="nonzero" d="M327.74 239.09 L461.68 446.27 L464.22 444.6 L327.74 239.09"/>
     <path fill="#E3E3E4" fill-rule="nonzero" d="M327.74 239.09 L193.8 31.91 L191.25 33.57 L327.74 239.09"/>
     <path fill="#282828" fill-rule="nonzero" d="M327.74 239.09 L464.22 444.6 L466.74 442.91 L327.74 239.09"/>
     <path fill="#E2E3E3" fill-rule="nonzero" d="M327.74 239.09 L191.25 33.57 L188.73 35.27 L327.74 239.09"/>
     <path fill="#292929" fill-rule="nonzero" d="M327.74 239.09 L466.74 442.91 L469.24 441.18 L327.74 239.09"/>
     <path fill="#E2E2E2" fill-rule="nonzero" d="M327.74 239.09 L188.73 35.27 L186.23 37 L327.74 239.09"/>
     <path fill="#2A2A2A" fill-rule="nonzero" d="M327.74 239.09 L469.24 441.18 L471.72 439.42 L327.74 239.09"/>
     <path fill="#E0E0E0" fill-rule="nonzero" d="M327.74 239.09 L186.23 37 L183.75 38.76 L327.74 239.09"/>
     <path fill="#2C2C2C" fill-rule="nonzero" d="M327.74 239.09 L471.72 439.42 L474.18 437.63 L327.74 239.09"/>
     <path fill="#DFDFE0" fill-rule="nonzero" d="M327.74 239.09 L183.75 38.76 L181.3 40.55 L327.74 239.09"/>
     <path fill="#2D2D2D" fill-rule="nonzero" d="M327.74 239.09 L474.18 437.63 L476.61 435.81 L327.74 239.09"/>
     <path fill="#DEDFDF" fill-rule="nonzero" d="M327.74 239.09 L181.3 40.55 L178.86 42.37 L327.74 239.09"/>
     <path fill="#2D2D2D" fill-rule="nonzero" d="M327.74 239.09 L476.61 435.81 L479.02 433.96 L327.74 239.09"/>
     <path fill="#DEDEDE" fill-rule="nonzero" d="M327.74 239.09 L178.86 42.37 L176.45 44.22 L327.74 239.09"/>
     <path fill="#2F2F2F" fill-rule="nonzero" d="M327.74 239.09 L479.02 433.96 L481.41 432.08 L327.74 239.09"/>
     <path fill="#DDDDDD" fill-rule="nonzero" d="M327.74 239.09 L176.45 44.22 L174.06 46.09 L327.74 239.09"/>
     <path fill="#2F2F2F" fill-rule="nonzero" d="M327.74 239.09 L481.41 432.08 L483.78 430.17 L327.74 239.09"/>
     <path fill="gainsboro" fill-rule="nonzero" d="M327.74 239.09 L174.06 46.09 L171.7 48 L327.74 239.09"/>
     <path fill="#313131" fill-rule="nonzero" d="M327.74 239.09 L483.78 430.17 L486.12 428.24 L327.74 239.09"/>
     <path fill="#DADADB" fill-rule="nonzero" d="M327.74 239.09 L171.7 48 L169.35 49.94 L327.74 239.09"/>
     <path fill="#333333" fill-rule="nonzero" d="M327.74 239.09 L486.12 428.24 L488.44 426.27 L327.74 239.09"/>
     <path fill="#DADADA" fill-rule="nonzero" d="M327.74 239.09 L169.35 49.94 L167.04 51.9 L327.74 239.09"/>
     <path fill="#343434" fill-rule="nonzero" d="M327.74 239.09 L488.44 426.27 L490.73 424.28 L327.74 239.09"/>
     <path fill="#D9D9D9" fill-rule="nonzero" d="M327.74 239.09 L167.04 51.9 L164.74 53.9 L327.74 239.09"/>
     <path fill="#353535" fill-rule="nonzero" d="M327.74 239.09 L490.73 424.28 L493 422.25 L327.74 239.09"/>
     <path fill="#D8D8D8" fill-rule="nonzero" d="M327.74 239.09 L164.74 53.9 L162.47 55.92 L327.74 239.09"/>
     <path fill="#373737" fill-rule="nonzero" d="M327.74 239.09 L493 422.25 L495.25 420.21 L327.74 239.09"/>
     <path fill="#D7D7D7" fill-rule="nonzero" d="M327.74 239.09 L162.47 55.92 L160.23 57.97 L327.74 239.09"/>
     <path fill="#373737" fill-rule="nonzero" d="M327.74 239.09 L495.25 420.21 L497.47 418.13 L327.74 239.09"/>
     <path fill="#D6D6D7" fill-rule="nonzero" d="M327.74 239.09 L160.23 57.97 L158.01 60.05 L327.74 239.09"/>
     <path fill="#383738" fill-rule="nonzero" d="M327.74 239.09 L497.47 418.13 L499.66 416.02 L327.74 239.09"/>
     <path fill="#D6D6D6" fill-rule="nonzero" d="M327.74 239.09 L158.01 60.05 L155.82 62.15 L327.74 239.09"/>
     <path fill="#393939" fill-rule="nonzero" d="M327.74 239.09 L499.66 416.02 L501.83 413.89 L327.74 239.09"/>
     <path fill="#D4D4D4" fill-rule="nonzero" d="M327.74 239.09 L155.82 62.15 L153.65 64.28 L327.74 239.09"/>
     <path fill="#3A3A3A" fill-rule="nonzero" d="M327.74 239.09 L501.83 413.89 L503.97 411.73 L327.74 239.09"/>
     <path fill="lightgrey" fill-rule="nonzero" d="M327.74 239.09 L153.65 64.28 L151.51 66.44 L327.74 239.09"/>
     <path fill="#3C3C3C" fill-rule="nonzero" d="M327.74 239.09 L503.97 411.73 L506.08 409.55 L327.74 239.09"/>
     <path fill="#D2D2D3" fill-rule="nonzero" d="M327.74 239.09 L151.51 66.44 L149.39 68.62 L327.74 239.09"/>
     <path fill="#3D3D3D" fill-rule="nonzero" d="M327.74 239.09 L506.08 409.55 L508.16 407.34 L327.74 239.09"/>
     <path fill="#D1D2D2" fill-rule="nonzero" d="M327.74 239.09 L149.39 68.62 L147.31 70.84 L327.74 239.09"/>
     <path fill="#3E3E3E" fill-rule="nonzero" d="M327.74 239.09 L508.16 407.34 L510.22 405.1 L327.74 239.09"/>
     <path fill="#D1D1D1" fill-rule="nonzero" d="M327.74 239.09 L147.31 70.84 L145.25 73.07 L327.74 239.09"/>
     <path fill="#3F3F3F" fill-rule="nonzero" d="M327.74 239.09 L510.22 405.1 L512.26 402.84 L327.74 239.09"/>
     <path fill="#D0D0D0" fill-rule="nonzero" d="M327.74 239.09 L145.25 73.07 L143.22 75.33 L327.74 239.09"/>
     <path fill="#3F3F3F" fill-rule="nonzero" d="M327.74 239.09 L512.26 402.84 L514.26 400.56 L327.74 239.09"/>
     <path fill="#CECECE" fill-rule="nonzero" d="M327.74 239.09 L143.22 75.33 L141.21 77.62 L327.74 239.09"/>
     <path fill="#414141" fill-rule="nonzero" d="M327.74 239.09 L514.26 400.56 L516.24 398.25 L327.74 239.09"/>
     <path fill="#CDCDCE" fill-rule="nonzero" d="M327.74 239.09 L141.21 77.62 L139.24 79.93 L327.74 239.09"/>
     <path fill="#414242" fill-rule="nonzero" d="M327.74 239.09 L516.24 398.25 L518.18 395.91 L327.74 239.09"/>
     <path fill="#CCCCCD" fill-rule="nonzero" d="M327.74 239.09 L139.24 79.93 L137.29 82.26 L327.74 239.09"/>
     <path fill="#434343" fill-rule="nonzero" d="M327.74 239.09 L518.18 395.91 L520.1 393.55 L327.74 239.09"/>
     <path fill="#CCCCCC" fill-rule="nonzero" d="M327.74 239.09 L137.29 82.26 L135.38 84.62 L327.74 239.09"/>
     <path fill="#444444" fill-rule="nonzero" d="M327.74 239.09 L520.1 393.55 L521.99 391.17 L327.74 239.09"/>
     <path fill="#CBCBCB" fill-rule="nonzero" d="M327.74 239.09 L135.38 84.62 L133.49 87 L327.74 239.09"/>
     <path fill="#454545" fill-rule="nonzero" d="M327.74 239.09 L521.99 391.17 L523.85 388.77 L327.74 239.09"/>
     <path fill="#CACACA" fill-rule="nonzero" d="M327.74 239.09 L133.49 87 L131.63 89.41 L327.74 239.09"/>
     <path fill="#474747" fill-rule="nonzero" d="M327.74 239.09 L523.85 388.77 L525.68 386.34 L327.74 239.09"/>
     <path fill="#C8C8C9" fill-rule="nonzero" d="M327.74 239.09 L131.63 89.41 L129.8 91.83 L327.74 239.09"/>
     <path fill="#484848" fill-rule="nonzero" d="M327.74 239.09 L525.68 386.34 L527.48 383.89 L327.74 239.09"/>
     <path fill="#C7C8C8" fill-rule="nonzero" d="M327.74 239.09 L129.8 91.83 L128 94.28 L327.74 239.09"/>
     <path fill="#494949" fill-rule="nonzero" d="M327.74 239.09 L527.48 383.89 L529.24 381.42 L327.74 239.09"/>
     <path fill="#C7C7C7" fill-rule="nonzero" d="M327.74 239.09 L128 94.28 L126.23 96.75 L327.74 239.09"/>
     <path fill="#494949" fill-rule="nonzero" d="M327.74 239.09 L529.24 381.42 L530.98 378.93 L327.74 239.09"/>
     <path fill="#C6C6C6" fill-rule="nonzero" d="M327.74 239.09 L126.23 96.75 L124.49 99.25 L327.74 239.09"/>
     <path fill="#4A4A4A" fill-rule="nonzero" d="M327.74 239.09 L530.98 378.93 L532.69 376.41 L327.74 239.09"/>
     <path fill="#C5C5C5" fill-rule="nonzero" d="M327.74 239.09 L124.49 99.25 L122.79 101.76 L327.74 239.09"/>
     <path fill="#4B4B4B" fill-rule="nonzero" d="M327.74 239.09 L532.69 376.41 L534.36 373.88 L327.74 239.09"/>
     <path fill="#C4C4C4" fill-rule="nonzero" d="M327.74 239.09 L122.79 101.76 L121.11 104.3 L327.74 239.09"/>
     <path fill="#4C4C4D" fill-rule="nonzero" d="M327.74 239.09 L534.36 373.88 L536.01 371.32 L327.74 239.09"/>
     <path fill="#C2C2C3" fill-rule="nonzero" d="M327.74 239.09 L121.11 104.3 L119.46 106.85 L327.74 239.09"/>
     <path fill="#4E4E4E" fill-rule="nonzero" d="M327.74 239.09 L536.01 371.32 L537.62 368.75 L327.74 239.09"/>
     <path fill="#C1C2C2" fill-rule="nonzero" d="M327.74 239.09 L119.46 106.85 L117.85 109.43 L327.74 239.09"/>
     <path fill="#4F4F4F" fill-rule="nonzero" d="M327.74 239.09 L537.62 368.75 L539.21 366.15 L327.74 239.09"/>
     <path fill="#C1C1C1" fill-rule="nonzero" d="M327.74 239.09 L117.85 109.43 L116.27 112.03 L327.74 239.09"/>
     <path fill="#505050" fill-rule="nonzero" d="M327.74 239.09 L539.21 366.15 L540.75 363.53 L327.74 239.09"/>
     <path fill="silver" fill-rule="nonzero" d="M327.74 239.09 L116.27 112.03 L114.72 114.64 L327.74 239.09"/>
     <path fill="#515151" fill-rule="nonzero" d="M327.74 239.09 L540.75 363.53 L542.27 360.9 L327.74 239.09"/>
     <path fill="#BFBFBF" fill-rule="nonzero" d="M327.74 239.09 L114.72 114.64 L113.2 117.28 L327.74 239.09"/>
     <path fill="#515151" fill-rule="nonzero" d="M327.74 239.09 L542.27 360.9 L543.76 358.25 L327.74 239.09"/>
     <path fill="#BEBEBE" fill-rule="nonzero" d="M327.74 239.09 L113.2 117.28 L111.72 119.93 L327.74 239.09"/>
     <path fill="#525253" fill-rule="nonzero" d="M327.74 239.09 L543.76 358.25 L545.21 355.58 L327.74 239.09"/>
     <path fill="#BCBCBD" fill-rule="nonzero" d="M327.74 239.09 L111.72 119.93 L110.27 122.6 L327.74 239.09"/>
     <path fill="#535454" fill-rule="nonzero" d="M327.74 239.09 L545.21 355.58 L546.63 352.89 L327.74 239.09"/>
     <path fill="#BBBCBC" fill-rule="nonzero" d="M327.74 239.09 L110.27 122.6 L108.85 125.28 L327.74 239.09"/>
     <path fill="#545455" fill-rule="nonzero" d="M327.74 239.09 L546.63 352.89 L548.01 350.18 L327.74 239.09"/>
     <path fill="#BBBBBB" fill-rule="nonzero" d="M327.74 239.09 L108.85 125.28 L107.46 127.99 L327.74 239.09"/>
     <path fill="#565656" fill-rule="nonzero" d="M327.74 239.09 L548.01 350.18 L549.36 347.46 L327.74 239.09"/>
     <path fill="#BABABA" fill-rule="nonzero" d="M327.74 239.09 L107.46 127.99 L106.11 130.71 L327.74 239.09"/>
     <path fill="#575757" fill-rule="nonzero" d="M327.74 239.09 L549.36 347.46 L550.68 344.72 L327.74 239.09"/>
     <path fill="#B9B9B9" fill-rule="nonzero" d="M327.74 239.09 L106.11 130.71 L104.79 133.45 L327.74 239.09"/>
     <path fill="#585858" fill-rule="nonzero" d="M327.74 239.09 L550.68 344.72 L551.97 341.97 L327.74 239.09"/>
     <path fill="#B8B8B8" fill-rule="nonzero" d="M327.74 239.09 L104.79 133.45 L103.51 136.21 L327.74 239.09"/>
     <path fill="#595959" fill-rule="nonzero" d="M327.74 239.09 L551.97 341.97 L553.22 339.2 L327.74 239.09"/>
     <path fill="#B6B6B7" fill-rule="nonzero" d="M327.74 239.09 L103.51 136.21 L102.26 138.98 L327.74 239.09"/>
     <path fill="#595959" fill-rule="nonzero" d="M327.74 239.09 L553.22 339.2 L554.43 336.41 L327.74 239.09"/>
     <path fill="#B5B6B6" fill-rule="nonzero" d="M327.74 239.09 L102.26 138.98 L101.04 141.76 L327.74 239.09"/>
     <path fill="#5A5A5A" fill-rule="nonzero" d="M327.74 239.09 L554.43 336.41 L555.61 333.61 L327.74 239.09"/>
     <path fill="#B5B5B5" fill-rule="nonzero" d="M327.74 239.09 L101.04 141.76 L99.86 144.56 L327.74 239.09"/>
     <path fill="#5B5B5B" fill-rule="nonzero" d="M327.74 239.09 L555.61 333.61 L556.76 330.8 L327.74 239.09"/>
     <path fill="#B4B4B4" fill-rule="nonzero" d="M327.74 239.09 L99.86 144.56 L98.71 147.38 L327.74 239.09"/>
     <path fill="#5C5C5C" fill-rule="nonzero" d="M327.74 239.09 L556.76 330.8 L557.87 327.97 L327.74 239.09"/>
     <path fill="#B3B3B3" fill-rule="nonzero" d="M327.74 239.09 L98.71 147.38 L97.6 150.2 L327.74 239.09"/>
     <path fill="#5D5D5E" fill-rule="nonzero" d="M327.74 239.09 L557.87 327.97 L558.95 325.13 L327.74 239.09"/>
     <path fill="#B2B2B2" fill-rule="nonzero" d="M327.74 239.09 L97.6 150.2 L96.52 153.05 L327.74 239.09"/>
     <path fill="#5E5E5E" fill-rule="nonzero" d="M327.74 239.09 L558.95 325.13 L559.99 322.27 L327.74 239.09"/>
     <path fill="#B0B0B1" fill-rule="nonzero" d="M327.74 239.09 L96.52 153.05 L95.48 155.9 L327.74 239.09"/>
     <path fill="#606060" fill-rule="nonzero" d="M327.74 239.09 L559.99 322.27 L561 319.41 L327.74 239.09"/>
     <path fill="#AFAFB0" fill-rule="nonzero" d="M327.74 239.09 L95.48 155.9 L94.47 158.77 L327.74 239.09"/>
     <path fill="#606161" fill-rule="nonzero" d="M327.74 239.09 L561 319.41 L561.97 316.53 L327.74 239.09"/>
     <path fill="#AFAFAF" fill-rule="nonzero" d="M327.74 239.09 L94.47 158.77 L93.5 161.65 L327.74 239.09"/>
     <path fill="#606161" fill-rule="nonzero" d="M327.74 239.09 L561.97 316.53 L562.91 313.63 L327.74 239.09"/>
     <path fill="#AEAEAE" fill-rule="nonzero" d="M327.74 239.09 L93.5 161.65 L92.57 164.54 L327.74 239.09"/>
     <path fill="#626262" fill-rule="nonzero" d="M327.74 239.09 L562.91 313.63 L563.81 310.73 L327.74 239.09"/>
     <path fill="#ADADAD" fill-rule="nonzero" d="M327.74 239.09 L92.57 164.54 L91.67 167.44 L327.74 239.09"/>
     <path fill="#636363" fill-rule="nonzero" d="M327.74 239.09 L563.81 310.73 L564.67 307.82 L327.74 239.09"/>
     <path fill="#ACACAC" fill-rule="nonzero" d="M327.74 239.09 L91.67 167.44 L90.8 170.36 L327.74 239.09"/>
     <path fill="#646464" fill-rule="nonzero" d="M327.74 239.09 L564.67 307.82 L565.5 304.89 L327.74 239.09"/>
     <path fill="#ABABAB" fill-rule="nonzero" d="M327.74 239.09 L90.8 170.36 L89.97 173.28 L327.74 239.09"/>
     <path fill="#656565" fill-rule="nonzero" d="M327.74 239.09 L565.5 304.89 L566.3 301.96 L327.74 239.09"/>
     <path fill="#A9A9AA" fill-rule="nonzero" d="M327.74 239.09 L89.97 173.28 L89.18 176.22 L327.74 239.09"/>
     <path fill="#666666" fill-rule="nonzero" d="M327.74 239.09 L566.3 301.96 L567.05 299.01 L327.74 239.09"/>
     <path fill="#A8A8A9" fill-rule="nonzero" d="M327.74 239.09 L89.18 176.22 L88.42 179.16 L327.74 239.09"/>
     <path fill="#676767" fill-rule="nonzero" d="M327.74 239.09 L567.05 299.01 L567.77 296.06 L327.74 239.09"/>
     <path fill="#A7A8A8" fill-rule="nonzero" d="M327.74 239.09 L88.42 179.16 L87.7 182.11 L327.74 239.09"/>
     <path fill="#686868" fill-rule="nonzero" d="M327.74 239.09 L567.77 296.06 L568.46 293.1 L327.74 239.09"/>
     <path fill="#A7A7A7" fill-rule="nonzero" d="M327.74 239.09 L87.7 182.11 L87.02 185.07 L327.74 239.09"/>
     <path fill="#686868" fill-rule="nonzero" d="M327.74 239.09 L568.46 293.1 L569.1 290.13 L327.74 239.09"/>
     <path fill="#A6A6A6" fill-rule="nonzero" d="M327.74 239.09 L87.02 185.07 L86.37 188.04 L327.74 239.09"/>
     <path fill="dimgray" fill-rule="nonzero" d="M327.74 239.09 L569.1 290.13 L569.71 287.15 L327.74 239.09"/>
     <path fill="#A5A5A5" fill-rule="nonzero" d="M327.74 239.09 L86.37 188.04 L85.76 191.02 L327.74 239.09"/>
     <path fill="#6A6A6A" fill-rule="nonzero" d="M327.74 239.09 L569.71 287.15 L570.29 284.17 L327.74 239.09"/>
     <path fill="#A3A3A3" fill-rule="nonzero" d="M327.74 239.09 L85.76 191.02 L85.18 194.01 L327.74 239.09"/>
     <path fill="#6B6B6B" fill-rule="nonzero" d="M327.74 239.09 L570.29 284.17 L570.83 281.18 L327.74 239.09"/>
     <path fill="#A2A2A2" fill-rule="nonzero" d="M327.74 239.09 L85.18 194.01 L84.65 197 L327.74 239.09"/>
     <path fill="#6C6C6C" fill-rule="nonzero" d="M327.74 239.09 L570.83 281.18 L571.32 278.18 L327.74 239.09"/>
     <path fill="#A1A1A1" fill-rule="nonzero" d="M327.74 239.09 L84.65 197 L84.15 199.99 L327.74 239.09"/>
     <path fill="#6D6D6D" fill-rule="nonzero" d="M327.74 239.09 L571.32 278.18 L571.79 275.18 L327.74 239.09"/>
     <path fill="#A0A0A1" fill-rule="nonzero" d="M327.74 239.09 L84.15 199.99 L83.69 203 L327.74 239.09"/>
     <path fill="#6E6E6E" fill-rule="nonzero" d="M327.74 239.09 L571.79 275.18 L572.21 272.17 L327.74 239.09"/>
     <path fill="#9F9FA0" fill-rule="nonzero" d="M327.74 239.09 L83.69 203 L83.26 206.01 L327.74 239.09"/>
     <path fill="#6F6F6F" fill-rule="nonzero" d="M327.74 239.09 L572.21 272.17 L572.6 269.15 L327.74 239.09"/>
     <path fill="#9E9F9F" fill-rule="nonzero" d="M327.74 239.09 L83.26 206.01 L82.87 209.02 L327.74 239.09"/>
     <path fill="#6F6F6F" fill-rule="nonzero" d="M327.74 239.09 L572.6 269.15 L572.96 266.13 L327.74 239.09"/>
     <path fill="#9D9D9D" fill-rule="nonzero" d="M327.74 239.09 L82.87 209.02 L82.52 212.04 L327.74 239.09"/>
     <path fill="#707071" fill-rule="nonzero" d="M327.74 239.09 L572.96 266.13 L573.27 263.11 L327.74 239.09"/>
     <path fill="#9C9C9C" fill-rule="nonzero" d="M327.74 239.09 L82.52 212.04 L82.2 215.07 L327.74 239.09"/>
     <path fill="#717172" fill-rule="nonzero" d="M327.74 239.09 L573.27 263.11 L573.55 260.08 L327.74 239.09"/>
     <path fill="#9B9B9B" fill-rule="nonzero" d="M327.74 239.09 L82.2 215.07 L81.93 218.09 L327.74 239.09"/>
     <path fill="#737373" fill-rule="nonzero" d="M327.74 239.09 L573.55 260.08 L573.79 257.05 L327.74 239.09"/>
     <path fill="#9A9A9A" fill-rule="nonzero" d="M327.74 239.09 L81.93 218.09 L81.69 221.12 L327.74 239.09"/>
     <path fill="#737374" fill-rule="nonzero" d="M327.74 239.09 L573.79 257.05 L573.99 254.02 L327.74 239.09"/>
     <path fill="#999999" fill-rule="nonzero" d="M327.74 239.09 L81.69 221.12 L81.48 224.16 L327.74 239.09"/>
     <path fill="#747475" fill-rule="nonzero" d="M327.74 239.09 L573.99 254.02 L574.15 250.99 L327.74 239.09"/>
     <path fill="#989898" fill-rule="nonzero" d="M327.74 239.09 L81.48 224.16 L81.32 227.19 L327.74 239.09"/>
     <path fill="#757676" fill-rule="nonzero" d="M327.74 239.09 L574.15 250.99 L574.28 247.95 L327.74 239.09"/>
     <path fill="#969697" fill-rule="nonzero" d="M327.74 239.09 L81.32 227.19 L81.19 230.23 L327.74 239.09"/>
     <path fill="#767677" fill-rule="nonzero" d="M327.74 239.09 L574.28 247.95 L574.37 244.91 L327.74 239.09"/>
     <path fill="#959596" fill-rule="nonzero" d="M327.74 239.09 L81.19 230.23 L81.1 233.26 L327.74 239.09"/>
     <path fill="#767677" fill-rule="nonzero" d="M327.74 239.09 L574.37 244.91 L574.43 241.87 L327.74 239.09"/>
     <path fill="#949595" fill-rule="nonzero" d="M327.74 239.09 L81.1 233.26 L81.05 236.3 L327.74 239.09"/>
     <path fill="#777878" fill-rule="nonzero" d="M327.74 239.09 L574.43 241.87 L574.44 238.84 L327.74 239.09"/>
     <path fill="#939394" fill-rule="nonzero" d="M327.74 239.09 L81.05 236.3 L81.03 239.34 L327.74 239.09"/>
     <path fill="#797979" fill-rule="nonzero" d="M327.74 239.09 L574.44 238.84 L574.42 235.8 L327.74 239.09"/>
     <path fill="#939393" fill-rule="nonzero" d="M327.74 239.09 L81.03 239.34 L81.05 242.38 L327.74 239.09"/>
     <path fill="#79797A" fill-rule="nonzero" d="M327.74 239.09 L574.42 235.8 L574.36 232.76 L327.74 239.09"/>
     <path fill="#939393" fill-rule="nonzero" d="M327.74 239.09 L81.05 242.38 L81.11 245.42 L327.74 239.09"/>
     <path fill="#7B7B7B" fill-rule="nonzero" d="M327.74 239.09 L574.36 232.76 L574.26 229.72 L327.74 239.09"/>
     <path fill="#929292" fill-rule="nonzero" d="M327.74 239.09 L81.11 245.42 L81.21 248.46 L327.74 239.09"/>
     <path fill="#7B7B7C" fill-rule="nonzero" d="M327.74 239.09 L574.26 229.72 L574.13 226.68 L327.74 239.09"/>
     <path fill="#919191" fill-rule="nonzero" d="M327.74 239.09 L81.21 248.46 L81.34 251.49 L327.74 239.09"/>
     <path fill="#7C7C7D" fill-rule="nonzero" d="M327.74 239.09 L574.13 226.68 L573.96 223.65 L327.74 239.09"/>
     <path fill="#909090" fill-rule="nonzero" d="M327.74 239.09 L81.34 251.49 L81.51 254.53 L327.74 239.09"/>
     <path fill="#7D7E7E" fill-rule="nonzero" d="M327.74 239.09 L573.96 223.65 L573.75 220.62 L327.74 239.09"/>
     <path fill="#8F8F8F" fill-rule="nonzero" d="M327.74 239.09 L81.51 254.53 L81.72 257.56 L327.74 239.09"/>
     <path fill="#7E7E7F" fill-rule="nonzero" d="M327.74 239.09 L573.75 220.62 L573.5 217.59 L327.74 239.09"/>
     <path fill="#8E8E8E" fill-rule="nonzero" d="M327.74 239.09 L81.72 257.56 L81.97 260.59 L327.74 239.09"/>
     <path fill="#7E7E7F" fill-rule="nonzero" d="M327.74 239.09 L573.5 217.59 L573.22 214.56 L327.74 239.09"/>
     <path fill="#8D8D8D" fill-rule="nonzero" d="M327.74 239.09 L81.97 260.59 L82.25 263.61 L327.74 239.09"/>
     <path fill="#7F8080" fill-rule="nonzero" d="M327.74 239.09 L573.22 214.56 L572.9 211.54 L327.74 239.09"/>
     <path fill="#8C8C8C" fill-rule="nonzero" d="M327.74 239.09 L82.25 263.61 L82.58 266.64 L327.74 239.09"/>
     <path fill="#808081" fill-rule="nonzero" d="M327.74 239.09 L572.9 211.54 L572.54 208.52 L327.74 239.09"/>
     <path fill="#8C8C8C" fill-rule="nonzero" d="M327.74 239.09 L82.58 266.64 L82.93 269.65 L327.74 239.09"/>
     <path fill="#818182" fill-rule="nonzero" d="M327.74 239.09 L572.54 208.52 L572.15 205.51 L327.74 239.09"/>
     <path fill="#8B8B8B" fill-rule="nonzero" d="M327.74 239.09 L82.93 269.65 L83.33 272.67 L327.74 239.09"/>
     <path fill="#828282" fill-rule="nonzero" d="M327.74 239.09 L572.15 205.51 L571.71 202.5 L327.74 239.09"/>
     <path fill="#8A8A8A" fill-rule="nonzero" d="M327.74 239.09 L83.33 272.67 L83.76 275.68 L327.74 239.09"/>
     <path fill="#838383" fill-rule="nonzero" d="M327.74 239.09 L571.71 202.5 L571.25 199.5 L327.74 239.09"/>
     <path fill="#898989" fill-rule="nonzero" d="M327.74 239.09 L83.76 275.68 L84.23 278.68 L327.74 239.09"/>
     <path fill="#848485" fill-rule="nonzero" d="M327.74 239.09 L571.25 199.5 L570.74 196.5 L327.74 239.09"/>
     <path fill="#888888" fill-rule="nonzero" d="M327.74 239.09 L84.23 278.68 L84.74 281.68 L327.74 239.09"/>
     <path fill="#858586" fill-rule="nonzero" d="M327.74 239.09 L570.74 196.5 L570.2 193.51 L327.74 239.09"/>
     <path fill="#878787" fill-rule="nonzero" d="M327.74 239.09 L84.74 281.68 L85.28 284.67 L327.74 239.09"/>
     <path fill="#858586" fill-rule="nonzero" d="M327.74 239.09 L570.2 193.51 L569.61 190.52 L327.74 239.09"/>
     <path fill="#868686" fill-rule="nonzero" d="M327.74 239.09 L85.28 284.67 L85.86 287.65 L327.74 239.09"/>
     <path fill="#868686" fill-rule="nonzero" d="M327.74 239.09 L569.61 190.52 L569 187.55 L327.74 239.09"/>
     <path fill="#858586" fill-rule="nonzero" d="M327.74 239.09 L85.86 287.65 L86.48 290.63 L327.74 239.09"/>
     <path fill="#878787" fill-rule="nonzero" d="M327.74 239.09 L569 187.55 L568.35 184.58 L327.74 239.09"/>
     <path fill="#858586" fill-rule="nonzero" d="M327.74 239.09 L86.48 290.63 L87.13 293.6 L327.74 239.09"/>
     <path fill="#888888" fill-rule="nonzero" d="M327.74 239.09 L568.35 184.58 L567.65 181.62 L327.74 239.09"/>
     <path fill="#848485" fill-rule="nonzero" d="M327.74 239.09 L87.13 293.6 L87.82 296.55 L327.74 239.09"/>
     <path fill="#898989" fill-rule="nonzero" d="M327.74 239.09 L567.65 181.62 L566.93 178.67 L327.74 239.09"/>
     <path fill="#838383" fill-rule="nonzero" d="M327.74 239.09 L87.82 296.55 L88.54 299.51 L327.74 239.09"/>
     <path fill="#8A8A8A" fill-rule="nonzero" d="M327.74 239.09 L566.93 178.67 L566.17 175.73 L327.74 239.09"/>
     <path fill="#828282" fill-rule="nonzero" d="M327.74 239.09 L88.54 299.51 L89.31 302.45 L327.74 239.09"/>
     <path fill="#8B8B8B" fill-rule="nonzero" d="M327.74 239.09 L566.17 175.73 L565.37 172.79 L327.74 239.09"/>
     <path fill="#818182" fill-rule="nonzero" d="M327.74 239.09 L89.31 302.45 L90.11 305.38 L327.74 239.09"/>
     <path fill="#8C8C8C" fill-rule="nonzero" d="M327.74 239.09 L565.37 172.79 L564.53 169.87 L327.74 239.09"/>
     <path fill="#808081" fill-rule="nonzero" d="M327.74 239.09 L90.11 305.38 L90.94 308.3 L327.74 239.09"/>
     <path fill="#8C8C8C" fill-rule="nonzero" d="M327.74 239.09 L564.53 169.87 L563.66 166.96 L327.74 239.09"/>
     <path fill="#7F8080" fill-rule="nonzero" d="M327.74 239.09 L90.94 308.3 L91.81 311.22 L327.74 239.09"/>
     <path fill="#8D8D8D" fill-rule="nonzero" d="M327.74 239.09 L563.66 166.96 L562.76 164.06 L327.74 239.09"/>
     <path fill="#7E7E7F" fill-rule="nonzero" d="M327.74 239.09 L91.81 311.22 L92.72 314.12 L327.74 239.09"/>
     <path fill="#8E8E8E" fill-rule="nonzero" d="M327.74 239.09 L562.76 164.06 L561.81 161.17 L327.74 239.09"/>
     <path fill="#7E7E7F" fill-rule="nonzero" d="M327.74 239.09 L92.72 314.12 L93.66 317.01 L327.74 239.09"/>
     <path fill="#8F8F8F" fill-rule="nonzero" d="M327.74 239.09 L561.81 161.17 L560.84 158.29 L327.74 239.09"/>
     <path fill="#7D7E7E" fill-rule="nonzero" d="M327.74 239.09 L93.66 317.01 L94.64 319.89 L327.74 239.09"/>
     <path fill="#909090" fill-rule="nonzero" d="M327.74 239.09 L560.84 158.29 L559.82 155.43 L327.74 239.09"/>
     <path fill="#7C7C7D" fill-rule="nonzero" d="M327.74 239.09 L94.64 319.89 L95.65 322.75 L327.74 239.09"/>
     <path fill="#919191" fill-rule="nonzero" d="M327.74 239.09 L559.82 155.43 L558.77 152.57 L327.74 239.09"/>
     <path fill="#7B7B7C" fill-rule="nonzero" d="M327.74 239.09 L95.65 322.75 L96.7 325.6 L327.74 239.09"/>
     <path fill="#929292" fill-rule="nonzero" d="M327.74 239.09 L558.77 152.57 L557.69 149.73 L327.74 239.09"/>
     <path fill="#7B7B7B" fill-rule="nonzero" d="M327.74 239.09 L96.7 325.6 L97.78 328.44 L327.74 239.09"/>
     <path fill="#939393" fill-rule="nonzero" d="M327.74 239.09 L557.69 149.73 L556.57 146.91 L327.74 239.09"/>
     <path fill="#79797A" fill-rule="nonzero" d="M327.74 239.09 L97.78 328.44 L98.9 331.27 L327.74 239.09"/>
     <path fill="#939393" fill-rule="nonzero" d="M327.74 239.09 L556.57 146.91 L555.42 144.09 L327.74 239.09"/>
     <path fill="#797979" fill-rule="nonzero" d="M327.74 239.09 L98.9 331.27 L100.06 334.08 L327.74 239.09"/>
     <path fill="#939394" fill-rule="nonzero" d="M327.74 239.09 L555.42 144.09 L554.23 141.29 L327.74 239.09"/>
     <path fill="#777878" fill-rule="nonzero" d="M327.74 239.09 L100.06 334.08 L101.24 336.88 L327.74 239.09"/>
     <path fill="#949595" fill-rule="nonzero" d="M327.74 239.09 L554.23 141.29 L553.01 138.51 L327.74 239.09"/>
     <path fill="#767677" fill-rule="nonzero" d="M327.74 239.09 L101.24 336.88 L102.46 339.66 L327.74 239.09"/>
     <path fill="#959596" fill-rule="nonzero" d="M327.74 239.09 L553.01 138.51 L551.75 135.75 L327.74 239.09"/>
     <path fill="#767677" fill-rule="nonzero" d="M327.74 239.09 L102.46 339.66 L103.72 342.43 L327.74 239.09"/>
     <path fill="#969697" fill-rule="nonzero" d="M327.74 239.09 L551.75 135.75 L550.46 132.99 L327.74 239.09"/>
     <path fill="#757676" fill-rule="nonzero" d="M327.74 239.09 L103.72 342.43 L105.01 345.18 L327.74 239.09"/>
     <path fill="#989898" fill-rule="nonzero" d="M327.74 239.09 L550.46 132.99 L549.14 130.26 L327.74 239.09"/>
     <path fill="#747475" fill-rule="nonzero" d="M327.74 239.09 L105.01 345.18 L106.34 347.92 L327.74 239.09"/>
     <path fill="#999999" fill-rule="nonzero" d="M327.74 239.09 L549.14 130.26 L547.78 127.54 L327.74 239.09"/>
     <path fill="#737374" fill-rule="nonzero" d="M327.74 239.09 L106.34 347.92 L107.69 350.64 L327.74 239.09"/>
     <path fill="#9A9A9A" fill-rule="nonzero" d="M327.74 239.09 L547.78 127.54 L546.39 124.84 L327.74 239.09"/>
     <path fill="#737373" fill-rule="nonzero" d="M327.74 239.09 L107.69 350.64 L109.08 353.34 L327.74 239.09"/>
     <path fill="#9B9B9B" fill-rule="nonzero" d="M327.74 239.09 L546.39 124.84 L544.97 122.15 L327.74 239.09"/>
     <path fill="#717172" fill-rule="nonzero" d="M327.74 239.09 L109.08 353.34 L110.51 356.02 L327.74 239.09"/>
     <path fill="#9C9C9C" fill-rule="nonzero" d="M327.74 239.09 L544.97 122.15 L543.51 119.48 L327.74 239.09"/>
     <path fill="#707071" fill-rule="nonzero" d="M327.74 239.09 L110.51 356.02 L111.96 358.69 L327.74 239.09"/>
     <path fill="#9D9D9D" fill-rule="nonzero" d="M327.74 239.09 L543.51 119.48 L542.02 116.84 L327.74 239.09"/>
     <path fill="#6F6F6F" fill-rule="nonzero" d="M327.74 239.09 L111.96 358.69 L113.45 361.34 L327.74 239.09"/>
     <path fill="#9E9F9F" fill-rule="nonzero" d="M327.74 239.09 L542.02 116.84 L540.5 114.2 L327.74 239.09"/>
     <path fill="#6F6F6F" fill-rule="nonzero" d="M327.74 239.09 L113.45 361.34 L114.98 363.97 L327.74 239.09"/>
     <path fill="#9F9FA0" fill-rule="nonzero" d="M327.74 239.09 L540.5 114.2 L538.94 111.59 L327.74 239.09"/>
     <path fill="#6E6E6E" fill-rule="nonzero" d="M327.74 239.09 L114.98 363.97 L116.53 366.58 L327.74 239.09"/>
     <path fill="#A0A0A1" fill-rule="nonzero" d="M327.74 239.09 L538.94 111.59 L537.36 109 L327.74 239.09"/>
     <path fill="#6D6D6D" fill-rule="nonzero" d="M327.74 239.09 L116.53 366.58 L118.12 369.18 L327.74 239.09"/>
     <path fill="#A1A1A1" fill-rule="nonzero" d="M327.74 239.09 L537.36 109 L535.74 106.43 L327.74 239.09"/>
     <path fill="#6C6C6C" fill-rule="nonzero" d="M327.74 239.09 L118.12 369.18 L119.74 371.75 L327.74 239.09"/>
     <path fill="#A2A2A2" fill-rule="nonzero" d="M327.74 239.09 L535.74 106.43 L534.09 103.88 L327.74 239.09"/>
     <path fill="#6B6B6B" fill-rule="nonzero" d="M327.74 239.09 L119.74 371.75 L121.39 374.3 L327.74 239.09"/>
     <path fill="#A3A3A3" fill-rule="nonzero" d="M327.74 239.09 L534.09 103.88 L532.41 101.34 L327.74 239.09"/>
     <path fill="#6A6A6A" fill-rule="nonzero" d="M327.74 239.09 L121.39 374.3 L123.07 376.83 L327.74 239.09"/>
     <path fill="#A5A5A5" fill-rule="nonzero" d="M327.74 239.09 L532.41 101.34 L530.69 98.83 L327.74 239.09"/>
     <path fill="dimgray" fill-rule="nonzero" d="M327.74 239.09 L123.07 376.83 L124.78 379.34 L327.74 239.09"/>
     <path fill="#A6A6A6" fill-rule="nonzero" d="M327.74 239.09 L530.69 98.83 L528.95 96.34 L327.74 239.09"/>
     <path fill="#686868" fill-rule="nonzero" d="M327.74 239.09 L124.78 379.34 L126.52 381.83 L327.74 239.09"/>
     <path fill="#A7A7A7" fill-rule="nonzero" d="M327.74 239.09 L528.95 96.34 L527.18 93.87 L327.74 239.09"/>
     <path fill="#686868" fill-rule="nonzero" d="M327.74 239.09 L126.52 381.83 L128.3 384.3 L327.74 239.09"/>
     <path fill="#A7A8A8" fill-rule="nonzero" d="M327.74 239.09 L527.18 93.87 L525.37 91.43 L327.74 239.09"/>
     <path fill="#676767" fill-rule="nonzero" d="M327.74 239.09 L128.3 384.3 L130.1 386.75 L327.74 239.09"/>
     <path fill="#A8A8A9" fill-rule="nonzero" d="M327.74 239.09 L525.37 91.43 L523.54 89 L327.74 239.09"/>
     <path fill="#666666" fill-rule="nonzero" d="M327.74 239.09 L130.1 386.75 L131.93 389.17 L327.74 239.09"/>
     <path fill="#A9A9AA" fill-rule="nonzero" d="M327.74 239.09 L523.54 89 L521.67 86.6 L327.74 239.09"/>
     <path fill="#656565" fill-rule="nonzero" d="M327.74 239.09 L131.93 389.17 L133.8 391.57 L327.74 239.09"/>
     <path fill="#ABABAB" fill-rule="nonzero" d="M327.74 239.09 L521.67 86.6 L519.78 84.23 L327.74 239.09"/>
     <path fill="#646464" fill-rule="nonzero" d="M327.74 239.09 L133.8 391.57 L135.69 393.95 L327.74 239.09"/>
     <path fill="#ACACAC" fill-rule="nonzero" d="M327.74 239.09 L519.78 84.23 L517.86 81.87 L327.74 239.09"/>
     <path fill="#636363" fill-rule="nonzero" d="M327.74 239.09 L135.69 393.95 L137.62 396.31 L327.74 239.09"/>
     <path fill="#ADADAD" fill-rule="nonzero" d="M327.74 239.09 L517.86 81.87 L515.91 79.54 L327.74 239.09"/>
     <path fill="#626262" fill-rule="nonzero" d="M327.74 239.09 L137.62 396.31 L139.57 398.64 L327.74 239.09"/>
     <path fill="#AEAEAE" fill-rule="nonzero" d="M327.74 239.09 L515.91 79.54 L513.93 77.23 L327.74 239.09"/>
     <path fill="#606161" fill-rule="nonzero" d="M327.74 239.09 L139.57 398.64 L141.55 400.94 L327.74 239.09"/>
     <path fill="#AFAFAF" fill-rule="nonzero" d="M327.74 239.09 L513.93 77.23 L511.92 74.95 L327.74 239.09"/>
     <path fill="#606161" fill-rule="nonzero" d="M327.74 239.09 L141.55 400.94 L143.55 403.22 L327.74 239.09"/>
     <path fill="#AFAFB0" fill-rule="nonzero" d="M327.74 239.09 L511.92 74.95 L509.88 72.7 L327.74 239.09"/>
     <path fill="#606060" fill-rule="nonzero" d="M327.74 239.09 L143.55 403.22 L145.59 405.48 L327.74 239.09"/>
     <path fill="#B0B0B1" fill-rule="nonzero" d="M327.74 239.09 L509.88 72.7 L507.82 70.46 L327.74 239.09"/>
     <path fill="#5E5E5E" fill-rule="nonzero" d="M327.74 239.09 L145.59 405.48 L147.65 407.71 L327.74 239.09"/>
     <path fill="#B2B2B2" fill-rule="nonzero" d="M327.74 239.09 L507.82 70.46 L505.73 68.26 L327.74 239.09"/>
     <path fill="#5D5D5E" fill-rule="nonzero" d="M327.74 239.09 L147.65 407.71 L149.74 409.91 L327.74 239.09"/>
     <path fill="#B3B3B3" fill-rule="nonzero" d="M327.74 239.09 L505.73 68.26 L503.61 66.08 L327.74 239.09"/>
     <path fill="#5C5C5C" fill-rule="nonzero" d="M327.74 239.09 L149.74 409.91 L151.86 412.1 L327.74 239.09"/>
     <path fill="#B4B4B4" fill-rule="nonzero" d="M327.74 239.09 L503.61 66.08 L501.47 63.93 L327.74 239.09"/>
     <path fill="#5B5B5B" fill-rule="nonzero" d="M327.74 239.09 L151.86 412.1 L154.01 414.25 L327.74 239.09"/>
     <path fill="#B5B5B5" fill-rule="nonzero" d="M327.74 239.09 L501.47 63.93 L499.29 61.8 L327.74 239.09"/>
     <path fill="#5A5A5A" fill-rule="nonzero" d="M327.74 239.09 L154.01 414.25 L156.18 416.38 L327.74 239.09"/>
     <path fill="#B5B6B6" fill-rule="nonzero" d="M327.74 239.09 L499.29 61.8 L497.1 59.7 L327.74 239.09"/>
     <path fill="#595959" fill-rule="nonzero" d="M327.74 239.09 L156.18 416.38 L158.38 418.48 L327.74 239.09"/>
     <path fill="#B6B6B7" fill-rule="nonzero" d="M327.74 239.09 L497.1 59.7 L494.87 57.63 L327.74 239.09"/>
     <path fill="#595959" fill-rule="nonzero" d="M327.74 239.09 L158.38 418.48 L160.6 420.55 L327.74 239.09"/>
     <path fill="#B8B8B8" fill-rule="nonzero" d="M327.74 239.09 L494.87 57.63 L492.63 55.58 L327.74 239.09"/>
     <path fill="#585858" fill-rule="nonzero" d="M327.74 239.09 L160.6 420.55 L162.85 422.6 L327.74 239.09"/>
     <path fill="#B9B9B9" fill-rule="nonzero" d="M327.74 239.09 L492.63 55.58 L490.35 53.56 L327.74 239.09"/>
     <path fill="#575757" fill-rule="nonzero" d="M327.74 239.09 L162.85 422.6 L165.12 424.61 L327.74 239.09"/>
     <path fill="#BABABA" fill-rule="nonzero" d="M327.74 239.09 L490.35 53.56 L488.06 51.57 L327.74 239.09"/>
     <path fill="#565656" fill-rule="nonzero" d="M327.74 239.09 L165.12 424.61 L167.42 426.6 L327.74 239.09"/>
     <path fill="#BBBBBB" fill-rule="nonzero" d="M327.74 239.09 L488.06 51.57 L485.73 49.61 L327.74 239.09"/>
     <path fill="#545455" fill-rule="nonzero" d="M327.74 239.09 L167.42 426.6 L169.74 428.56 L327.74 239.09"/>
     <path fill="#BBBCBC" fill-rule="nonzero" d="M327.74 239.09 L485.73 49.61 L483.39 47.68 L327.74 239.09"/>
     <path fill="#535454" fill-rule="nonzero" d="M327.74 239.09 L169.74 428.56 L172.09 430.49 L327.74 239.09"/>
     <path fill="#BCBCBD" fill-rule="nonzero" d="M327.74 239.09 L483.39 47.68 L481.02 45.78 L327.74 239.09"/>
     <path fill="#525253" fill-rule="nonzero" d="M327.74 239.09 L172.09 430.49 L174.46 432.4 L327.74 239.09"/>
     <path fill="#BEBEBE" fill-rule="nonzero" d="M327.74 239.09 L481.02 45.78 L478.62 43.91 L327.74 239.09"/>
     <path fill="#515151" fill-rule="nonzero" d="M327.74 239.09 L174.46 432.4 L176.85 434.27 L327.74 239.09"/>
     <path fill="#BFBFBF" fill-rule="nonzero" d="M327.74 239.09 L478.62 43.91 L476.21 42.06 L327.74 239.09"/>
     <path fill="#515151" fill-rule="nonzero" d="M327.74 239.09 L176.85 434.27 L179.27 436.11 L327.74 239.09"/>
     <path fill="silver" fill-rule="nonzero" d="M327.74 239.09 L476.21 42.06 L473.77 40.25 L327.74 239.09"/>
     <path fill="#505050" fill-rule="nonzero" d="M327.74 239.09 L179.27 436.11 L181.71 437.93 L327.74 239.09"/>
     <path fill="#C1C1C1" fill-rule="nonzero" d="M327.74 239.09 L473.77 40.25 L471.31 38.46 L327.74 239.09"/>
     <path fill="#4F4F4F" fill-rule="nonzero" d="M327.74 239.09 L181.71 437.93 L184.17 439.71 L327.74 239.09"/>
     <path fill="#C1C2C2" fill-rule="nonzero" d="M327.74 239.09 L471.31 38.46 L468.83 36.71 L327.74 239.09"/>
     <path fill="#4E4E4E" fill-rule="nonzero" d="M327.74 239.09 L184.17 439.71 L186.65 441.47 L327.74 239.09"/>
     <path fill="#C2C2C3" fill-rule="nonzero" d="M327.74 239.09 L468.83 36.71 L466.32 34.99 L327.74 239.09"/>
     <path fill="#4C4C4D" fill-rule="nonzero" d="M327.74 239.09 L186.65 441.47 L189.15 443.19 L327.74 239.09"/>
     <path fill="#C4C4C4" fill-rule="nonzero" d="M327.74 239.09 L466.32 34.99 L463.8 33.3 L327.74 239.09"/>
     <path fill="#4B4B4B" fill-rule="nonzero" d="M327.74 239.09 L189.15 443.19 L191.68 444.88 L327.74 239.09"/>
     <path fill="#C5C5C5" fill-rule="nonzero" d="M327.74 239.09 L463.8 33.3 L461.25 31.63 L327.74 239.09"/>
     <path fill="#4A4A4A" fill-rule="nonzero" d="M327.74 239.09 L191.68 444.88 L194.22 446.54 L327.74 239.09"/>
     <path fill="#C6C6C6" fill-rule="nonzero" d="M327.74 239.09 L461.25 31.63 L458.68 30 L327.74 239.09"/>
     <path fill="#494949" fill-rule="nonzero" d="M327.74 239.09 L194.22 446.54 L196.79 448.17 L327.74 239.09"/>
     <path fill="#C7C7C7" fill-rule="nonzero" d="M327.74 239.09 L458.68 30 L456.1 28.41 L327.74 239.09"/>
     <path fill="#494949" fill-rule="nonzero" d="M327.74 239.09 L196.79 448.17 L199.37 449.77 L327.74 239.09"/>
     <path fill="#C7C8C8" fill-rule="nonzero" d="M327.74 239.09 L456.1 28.41 L453.49 26.84 L327.74 239.09"/>
     <path fill="#484848" fill-rule="nonzero" d="M327.74 239.09 L199.37 449.77 L201.98 451.33 L327.74 239.09"/>
     <path fill="#C8C8C9" fill-rule="nonzero" d="M327.74 239.09 L453.49 26.84 L450.87 25.31 L327.74 239.09"/>
     <path fill="#474747" fill-rule="nonzero" d="M327.74 239.09 L201.98 451.33 L204.6 452.87 L327.74 239.09"/>
     <path fill="#CACACA" fill-rule="nonzero" d="M327.74 239.09 L450.87 25.31 L448.23 23.81 L327.74 239.09"/>
     <path fill="#454545" fill-rule="nonzero" d="M327.74 239.09 L204.6 452.87 L207.25 454.37 L327.74 239.09"/>
     <path fill="#CBCBCB" fill-rule="nonzero" d="M327.74 239.09 L448.23 23.81 L445.57 22.34 L327.74 239.09"/>
     <path fill="#444444" fill-rule="nonzero" d="M327.74 239.09 L207.25 454.37 L209.91 455.83 L327.74 239.09"/>
     <path fill="#CCCCCC" fill-rule="nonzero" d="M327.74 239.09 L445.57 22.34 L442.89 20.9 L327.74 239.09"/>
     <path fill="#434343" fill-rule="nonzero" d="M327.74 239.09 L209.91 455.83 L212.59 457.27 L327.74 239.09"/>
     <path fill="#CCCCCD" fill-rule="nonzero" d="M327.74 239.09 L442.89 20.9 L440.19 19.5 L327.74 239.09"/>
     <path fill="#414242" fill-rule="nonzero" d="M327.74 239.09 L212.59 457.27 L215.29 458.67 L327.74 239.09"/>
     <path fill="#CDCDCE" fill-rule="nonzero" d="M327.74 239.09 L440.19 19.5 L437.47 18.13 L327.74 239.09"/>
     <path fill="#414141" fill-rule="nonzero" d="M327.74 239.09 L215.29 458.67 L218 460.04 L327.74 239.09"/>
     <path fill="#CECECE" fill-rule="nonzero" d="M327.74 239.09 L437.47 18.13 L434.75 16.8 L327.74 239.09"/>
     <path fill="#3F3F3F" fill-rule="nonzero" d="M327.74 239.09 L218 460.04 L220.73 461.38 L327.74 239.09"/>
     <path fill="#D0D0D0" fill-rule="nonzero" d="M327.74 239.09 L434.75 16.8 L432 15.5 L327.74 239.09"/>
     <path fill="#3F3F3F" fill-rule="nonzero" d="M327.74 239.09 L220.73 461.38 L223.48 462.68 L327.74 239.09"/>
     <path fill="#D1D1D1" fill-rule="nonzero" d="M327.74 239.09 L432 15.5 L429.24 14.23 L327.74 239.09"/>
     <path fill="#3E3E3E" fill-rule="nonzero" d="M327.74 239.09 L223.48 462.68 L226.24 463.95 L327.74 239.09"/>
     <path fill="#D1D2D2" fill-rule="nonzero" d="M327.74 239.09 L429.24 14.23 L426.46 13 L327.74 239.09"/>
     <path fill="#3D3D3D" fill-rule="nonzero" d="M327.74 239.09 L226.24 463.95 L229.02 465.18 L327.74 239.09"/>
     <path fill="#D2D2D3" fill-rule="nonzero" d="M327.74 239.09 L426.46 13 L423.66 11.8 L327.74 239.09"/>
     <path fill="#3C3C3C" fill-rule="nonzero" d="M327.74 239.09 L229.02 465.18 L231.81 466.38 L327.74 239.09"/>
     <path fill="lightgrey" fill-rule="nonzero" d="M327.74 239.09 L423.66 11.8 L420.86 10.63 L327.74 239.09"/>
     <path fill="#3A3A3A" fill-rule="nonzero" d="M327.74 239.09 L231.81 466.38 L234.62 467.54 L327.74 239.09"/>
     <path fill="#D4D4D4" fill-rule="nonzero" d="M327.74 239.09 L420.86 10.63 L418.04 9.5 L327.74 239.09"/>
     <path fill="#393939" fill-rule="nonzero" d="M327.74 239.09 L234.62 467.54 L237.44 468.67 L327.74 239.09"/>
     <path fill="#D6D6D6" fill-rule="nonzero" d="M327.74 239.09 L418.04 9.5 L415.2 8.41 L327.74 239.09"/>
     <path fill="#383738" fill-rule="nonzero" d="M327.74 239.09 L237.44 468.67 L240.27 469.77 L327.74 239.09"/>
     <path fill="#D6D6D7" fill-rule="nonzero" d="M327.74 239.09 L415.2 8.41 L412.35 7.35 L327.74 239.09"/>
     <path fill="#373737" fill-rule="nonzero" d="M327.74 239.09 L240.27 469.77 L243.12 470.83 L327.74 239.09"/>
     <path fill="#D7D7D7" fill-rule="nonzero" d="M327.74 239.09 L412.35 7.35 L409.49 6.32 L327.74 239.09"/>
     <path fill="#373737" fill-rule="nonzero" d="M327.74 239.09 L243.12 470.83 L245.98 471.85 L327.74 239.09"/>
     <path fill="#D8D8D8" fill-rule="nonzero" d="M327.74 239.09 L409.49 6.32 L406.62 5.33 L327.74 239.09"/>
     <path fill="#353535" fill-rule="nonzero" d="M327.74 239.09 L245.98 471.85 L248.86 472.84 L327.74 239.09"/>
     <path fill="#D9D9D9" fill-rule="nonzero" d="M327.74 239.09 L406.62 5.33 L403.73 4.38 L327.74 239.09"/>
     <path fill="#343434" fill-rule="nonzero" d="M327.74 239.09 L248.86 472.84 L251.74 473.8 L327.74 239.09"/>
     <path fill="#DADADA" fill-rule="nonzero" d="M327.74 239.09 L403.73 4.38 L400.83 3.46 L327.74 239.09"/>
     <path fill="#333333" fill-rule="nonzero" d="M327.74 239.09 L251.74 473.8 L254.64 474.71 L327.74 239.09"/>
     <path fill="#DADADB" fill-rule="nonzero" d="M327.74 239.09 L400.83 3.46 L397.92 2.58 L327.74 239.09"/>
     <path fill="#313131" fill-rule="nonzero" d="M327.74 239.09 L254.64 474.71 L257.55 475.6 L327.74 239.09"/>
     <path fill="gainsboro" fill-rule="nonzero" d="M327.74 239.09 L397.92 2.58 L395.01 1.73 L327.74 239.09"/>
     <path fill="#2F2F2F" fill-rule="nonzero" d="M327.74 239.09 L257.55 475.6 L260.47 476.44 L327.74 239.09"/>
     <path fill="#DDDDDD" fill-rule="nonzero" d="M327.74 239.09 L395.01 1.73 L392.08 0.92 L327.74 239.09"/>
     <path fill="#2F2F2F" fill-rule="nonzero" d="M327.74 239.09 L260.47 476.44 L263.4 477.26 L327.74 239.09"/>
     <path fill="#DEDEDE" fill-rule="nonzero" d="M327.74 239.09 L392.08 0.92 L389.14 0.15 L327.74 239.09"/>
     <path fill="#2D2D2D" fill-rule="nonzero" d="M327.74 239.09 L263.4 477.26 L266.33 478.03 L327.74 239.09"/>
     <path fill="#DEDFDF" fill-rule="nonzero" d="M327.74 239.09 L389.14 0.15 L386.19 -0.59 L327.74 239.09"/>
     <path fill="#2D2D2D" fill-rule="nonzero" d="M327.74 239.09 L266.33 478.03 L269.29 478.77 L327.74 239.09"/>
     <path fill="#DFDFE0" fill-rule="nonzero" d="M327.74 239.09 L386.19 -0.59 L383.23 -1.29 L327.74 239.09"/>
     <path fill="#2C2C2C" fill-rule="nonzero" d="M327.74 239.09 L269.29 478.77 L272.24 479.47 L327.74 239.09"/>
     <path fill="#E0E0E0" fill-rule="nonzero" d="M327.74 239.09 L383.23 -1.29 L380.27 -1.96 L327.74 239.09"/>
     <path fill="#2A2A2A" fill-rule="nonzero" d="M327.74 239.09 L272.24 479.47 L275.21 480.14 L327.74 239.09"/>
     <path fill="#E2E2E2" fill-rule="nonzero" d="M327.74 239.09 L380.27 -1.96 L377.29 -2.59 L327.74 239.09"/>
     <path fill="#292929" fill-rule="nonzero" d="M327.74 239.09 L275.21 480.14 L278.18 480.77 L327.74 239.09"/>
     <path fill="#E2E3E3" fill-rule="nonzero" d="M327.74 239.09 L377.29 -2.59 L374.31 -3.18 L327.74 239.09"/>
     <path fill="#282828" fill-rule="nonzero" d="M327.74 239.09 L278.18 480.77 L281.16 481.36 L327.74 239.09"/>
     <path fill="#E3E3E4" fill-rule="nonzero" d="M327.74 239.09 L374.31 -3.18 L371.32 -3.74 L327.74 239.09"/>
     <path fill="#262626" fill-rule="nonzero" d="M327.74 239.09 L281.16 481.36 L284.15 481.91 L327.74 239.09"/>
     <path fill="#E4E4E4" fill-rule="nonzero" d="M327.74 239.09 L371.32 -3.74 L368.33 -4.25 L327.74 239.09"/>
     <path fill="#252525" fill-rule="nonzero" d="M327.74 239.09 L284.15 481.91 L287.15 482.43 L327.74 239.09"/>
     <path fill="#E5E5E5" fill-rule="nonzero" d="M327.74 239.09 L368.33 -4.25 L365.33 -4.74 L327.74 239.09"/>
     <path fill="#222424" fill-rule="nonzero" d="M327.74 239.09 L287.15 482.43 L290.15 482.91 L327.74 239.09"/>
     <path fill="#E6E6E6" fill-rule="nonzero" d="M327.74 239.09 L365.33 -4.74 L362.32 -5.18 L327.74 239.09"/>
     <path fill="#222424" fill-rule="nonzero" d="M327.74 239.09 L290.15 482.91 L293.15 483.36 L327.74 239.09"/>
     <path fill="#E7E7E8" fill-rule="nonzero" d="M327.74 239.09 L362.32 -5.18 L359.31 -5.59 L327.74 239.09"/>
     <path fill="#212121" fill-rule="nonzero" d="M327.74 239.09 L293.15 483.36 L296.17 483.76 L327.74 239.09"/>
     <path fill="#E8E8E8" fill-rule="nonzero" d="M327.74 239.09 L359.31 -5.59 L356.29 -5.96 L327.74 239.09"/>
     <path fill="#202020" fill-rule="nonzero" d="M327.74 239.09 L296.17 483.76 L299.18 484.13 L327.74 239.09"/>
     <path fill="#E9E9E9" fill-rule="nonzero" d="M327.74 239.09 L356.29 -5.96 L353.27 -6.29 L327.74 239.09"/>
     <path fill="#1F1F1F" fill-rule="nonzero" d="M327.74 239.09 L299.18 484.13 L302.2 484.47 L327.74 239.09"/>
     <path fill="#EAEAEA" fill-rule="nonzero" d="M327.74 239.09 L353.27 -6.29 L350.25 -6.59 L327.74 239.09"/>
     <path fill="#1D1D1D" fill-rule="nonzero" d="M327.74 239.09 L302.2 484.47 L305.23 484.76 L327.74 239.09"/>
     <path fill="#EAEBEB" fill-rule="nonzero" d="M327.74 239.09 L350.25 -6.59 L347.22 -6.85 L327.74 239.09"/>
     <path fill="#1C1C1C" fill-rule="nonzero" d="M327.74 239.09 L305.23 484.76 L308.26 485.02 L327.74 239.09"/>
     <path fill="#EBEBEC" fill-rule="nonzero" d="M327.74 239.09 L347.22 -6.85 L344.19 -7.07 L327.74 239.09"/>
     <path fill="#1A1A1A" fill-rule="nonzero" d="M327.74 239.09 L308.26 485.02 L311.29 485.25 L327.74 239.09"/>
     <path fill="#EDEDED" fill-rule="nonzero" d="M327.74 239.09 L344.19 -7.07 L341.15 -7.25 L327.74 239.09"/>
     <path fill="#191919" fill-rule="nonzero" d="M327.74 239.09 L311.29 485.25 L314.32 485.43 L327.74 239.09"/>
     <path fill="#EEEEEE" fill-rule="nonzero" d="M327.74 239.09 L341.15 -7.25 L338.12 -7.4 L327.74 239.09"/>
     <path fill="#191919" fill-rule="nonzero" d="M327.74 239.09 L314.32 485.43 L317.36 485.58 L327.74 239.09"/>
     <path fill="#EEEEEF" fill-rule="nonzero" d="M327.74 239.09 L338.12 -7.4 L335.08 -7.51 L327.74 239.09"/>
     <path fill="#171717" fill-rule="nonzero" d="M327.74 239.09 L317.36 485.58 L320.39 485.68 L327.74 239.09"/>
     <path fill="#EFEFF0" fill-rule="nonzero" d="M327.74 239.09 L335.08 -7.51 L332.04 -7.58 L327.74 239.09"/>
     <path fill="#151515" fill-rule="nonzero" d="M327.74 239.09 L320.39 485.68 L323.43 485.76 L327.74 239.09"/>
     <path fill="#F0F0F0" fill-rule="nonzero" d="M327.74 239.09 L332.04 -7.58 L329 -7.61 L327.74 239.09"/>
     <path fill="#131313" fill-rule="nonzero" d="M327.74 239.09 L323.43 485.76 L326.47 485.79 L327.74 239.09"/>
     <path fill="#F1F1F1" fill-rule="nonzero" d="M327.74 239.09 L329 -7.61 L325.97 -7.61 L327.74 239.09"/>
     <path fill="#111111" fill-rule="nonzero" d="M327.74 239.09 L326.47 485.79 L329.51 485.79 L327.74 239.09"/>
     <path fill="#F2F2F3" fill-rule="nonzero" d="M327.74 239.09 L325.97 -7.61 L322.93 -7.57 L327.74 239.09"/>
     <path fill="#0F0F0F" fill-rule="nonzero" d="M327.74 239.09 L329.51 485.79 L332.55 485.75 L327.74 239.09"/>
     <path fill="#F3F3F3" fill-rule="nonzero" d="M327.74 239.09 L322.93 -7.57 L319.89 -7.49 L327.74 239.09"/>
     <path fill="#0F0C0F" fill-rule="nonzero" d="M327.74 239.09 L332.55 485.75 L335.59 485.67 L327.74 239.09"/>
     <path fill="#F4F4F4" fill-rule="nonzero" d="M327.74 239.09 L319.89 -7.49 L316.85 -7.38 L327.74 239.09"/>
     <path fill="#0C0C0C" fill-rule="nonzero" d="M327.74 239.09 L335.59 485.67 L338.62 485.55 L327.74 239.09"/>
     <path fill="whitesmoke" fill-rule="nonzero" d="M327.74 239.09 L316.85 -7.38 L313.81 -7.22 L327.74 239.09"/>
     <path fill="#0C0C0C" fill-rule="nonzero" d="M327.74 239.09 L338.62 485.55 L341.66 485.4 L327.74 239.09"/>
     <path fill="#F5F6F6" fill-rule="nonzero" d="M327.74 239.09 L313.81 -7.22 L310.78 -7.03 L327.74 239.09"/>
     <path fill="#090909" fill-rule="nonzero" d="M327.74 239.09 L341.66 485.4 L344.69 485.21 L327.74 239.09"/>
     <path fill="#F6F6F7" fill-rule="nonzero" d="M327.74 239.09 L310.78 -7.03 L307.75 -6.81 L327.74 239.09"/>
     <path fill="#090909" fill-rule="nonzero" d="M327.74 239.09 L344.69 485.21 L347.72 484.98 L327.74 239.09"/>
     <path fill="#F8F8F8" fill-rule="nonzero" d="M327.74 239.09 L307.75 -6.81 L304.72 -6.54 L327.74 239.09"/>
     <path fill="#060606" fill-rule="nonzero" d="M327.74 239.09 L347.72 484.98 L350.75 484.72 L327.74 239.09"/>
     <path fill="#F8F9F9" fill-rule="nonzero" d="M327.74 239.09 L304.72 -6.54 L301.7 -6.24 L327.74 239.09"/>
     <path fill="#030303" fill-rule="nonzero" d="M327.74 239.09 L350.75 484.72 L353.78 484.42 L327.74 239.09"/>
     <path fill="#F9F9FA" fill-rule="nonzero" d="M327.74 239.09 L301.7 -6.24 L298.68 -5.9 L327.74 239.09"/>
     <path fill="#030303" fill-rule="nonzero" d="M327.74 239.09 L353.78 484.42 L356.79 484.07 L327.74 239.09"/>
     <path fill="#FAFAFA" fill-rule="nonzero" d="M327.74 239.09 L298.68 -5.9 L295.66 -5.52 L327.74 239.09"/>
     <path fill="#030303" fill-rule="nonzero" d="M327.74 239.09 L356.79 484.07 L359.81 483.7 L327.74 239.09"/>
     <path fill="#FBFBFB" fill-rule="nonzero" d="M327.74 239.09 L295.66 -5.52 L292.65 -5.11 L327.74 239.09"/>
     <path fill="black" fill-rule="nonzero" d="M327.74 239.09 L359.81 483.7 L362.82 483.28 L327.74 239.09"/>
     <path fill="#FBFCFC" fill-rule="nonzero" d="M327.74 239.09 L292.65 -5.11 L289.65 -4.66 L327.74 239.09"/>
     <path fill="black" fill-rule="nonzero" d="M327.74 239.09 L362.82 483.28 L365.83 482.83 L327.74 239.09"/>
     <path fill="#FDFDFE" fill-rule="nonzero" d="M327.74 239.09 L289.65 -4.66 L286.65 -4.17 L327.74 239.09"/>
     <path fill="black" fill-rule="nonzero" d="M327.74 239.09 L365.83 482.83 L368.83 482.35 L327.74 239.09"/>
     <path fill="#FEFEFE" fill-rule="nonzero" d="M327.74 239.09 L286.65 -4.17 L283.65 -3.65 L327.74 239.09"/>
     <path fill="black" fill-rule="nonzero" d="M327.74 239.09 L368.83 482.35 L371.82 481.82 L327.74 239.09"/>
     <path fill="white" fill-rule="nonzero" d="M327.74 239.09 L283.65 -3.65 L280.66 -3.08 L327.74 239.09"/>
     <path fill="black" fill-rule="nonzero" d="M327.74 239.09 L371.82 481.82 L374.81 481.26 L327.74 239.09"/>
    </mask>
  <linearGradient id="id1" gradientUnits="userSpaceOnUse" x1="248.36" y1="32.3" x2="325.91" y2="120.29">
   <stop offset="0" style="stop-opacity:1; stop-color:#DFBD79"/>
   <stop offset="0.419608" style="stop-opacity:1; stop-color:#F6E2B7"/>
   <stop offset="1" style="stop-opacity:1; stop-color:#DFBD79"/>
  </linearGradient>
  <linearGradient id="id2" gradientUnits="userSpaceOnUse" x1="365.38" y1="161.17" x2="264.09" y2="366.61">
   <stop offset="0" style="stop-opacity:1; stop-color:#94A0E0"/>
   <stop offset="1" style="stop-opacity:1; stop-color:#2C376E"/>
  </linearGradient>
  <linearGradient id="id3" gradientUnits="userSpaceOnUse" x1="353.68" y1="418.6" x2="289.72" y2="711.27">
   <stop offset="0" style="stop-opacity:1; stop-color:#2C376E"/>
   <stop offset="1" style="stop-opacity:1; stop-color:#D2D8F7"/>
  </linearGradient>
  <linearGradient id="id4" gradientUnits="userSpaceOnUse" x1="234.08" y1="154.22" x2="294.27" y2="159.76">
   <stop offset="0" style="stop-opacity:1; stop-color:#B8954D"/>
   <stop offset="0.329412" style="stop-opacity:1; stop-color:#DFBD79"/>
   <stop offset="1" style="stop-opacity:1; stop-color:#B8954D"/>
  </linearGradient>
  <linearGradient id="id5" gradientUnits="userSpaceOnUse" x1="498.4" y1="371.4" x2="301.28" y2="410.46">
   <stop offset="0" style="stop-opacity:0.447059; stop-color:#A6B1E7"/>
   <stop offset="1" style="stop-opacity:0; stop-color:white"/>
  </linearGradient>
 </defs>
 <g id="Camada_x0020_1">
  <metadata id="CorelCorpID_0Corel-Layer"/>
  <g id="_2179977862608">
   <ellipse class="fil0" cx="331.52" cy="586.85" rx="268.13" ry="111.83"/>
   <ellipse class="fil1" cx="332.19" cy="397.99" rx="332.19" ry="243.23"/>
   <ellipse class="fil2" cx="332.19" cy="397.99" rx="332.19" ry="243.23"/>
   <ellipse class="fil3" cx="331.52" cy="261.12" rx="208.27" ry="86.86"/>
   <path class="fil4" style="mask:url(#id0)" d="M454.17 103.28l0 94.74c4.75,26.17 -16.78,45.51 -35.78,55.94 -21.99,12.06 -52.33,19.53 -85.78,19.53 -31.43,0 -60.12,-6.6 -81.71,-17.42 -20.24,-10.13 -44.28,-30 -39.98,-57.13l0 -96.59c-4.35,-27.45 20.06,-47.16 40.01,-57.15 21.59,-10.81 50.27,-17.4 81.68,-17.4 33.45,0 63.79,7.47 85.78,19.53 18.99,10.42 40.52,29.76 35.78,55.94z"/>
   <g>
    <path class="fil5" d="M454.17 75.47l0 94.74c4.75,26.17 -16.78,45.51 -35.78,55.94 -21.99,12.06 -52.33,19.53 -85.78,19.53 -31.43,0 -60.12,-6.6 -81.71,-17.42 -20.24,-10.13 -44.28,-30 -39.98,-57.13l0 -96.59c-4.35,-27.45 20.06,-47.16 40.01,-57.15 21.59,-10.81 50.27,-17.4 81.68,-17.4 33.45,0 63.79,7.47 85.78,19.53 18.99,10.42 40.52,29.76 35.78,55.94z"/>
    <path class="fil6" d="M332.61 0c33.45,0 63.79,7.47 85.78,19.53 22.5,12.34 36.42,29.6 36.42,48.83 0,19.23 -13.92,36.49 -36.42,48.83 -21.99,12.07 -52.32,19.53 -85.78,19.53 -33.45,0 -63.79,-7.47 -85.78,-19.53 -22.5,-12.34 -36.42,-29.6 -36.42,-48.83 0,-19.23 13.92,-36.49 36.42,-48.83 21.99,-12.07 52.32,-19.53 85.78,-19.53z"/>
   </g>
   <path class="fil7" d="M569.77 280.76c0,30.43 -18.31,67.41 -62.11,87 -27.67,12.37 -160.78,50.06 -229.74,13.7 16.88,1.71 34.45,2.62 52.49,2.62 65.13,0 124.06,-11.79 166.67,-30.84 41.96,-18.76 67.91,-44.41 67.91,-72.48 0,-8.73 -2.51,-17.23 -7.23,-25.35 2.79,-2.35 12.01,19.17 12.01,25.35z"/>
   <g>
    <path class="fil8" d="M485.56 515.79c-6.38,50.39 -72.42,90.01 -152.96,90.01 -80.54,0 -146.58,-39.62 -152.97,-90.01 0.13,0 0.26,0 0.39,0 79.12,0 144.25,-38.24 152.57,-87.35 8.32,49.12 73.45,87.35 152.57,87.35 0.13,0 0.26,-0 0.39,-0z"/>
    <path class="fil9" d="M486.12 515.87c-8.14,64.31 -103.51,96.19 -153.52,96.19 -50.2,0 -145.28,-31.16 -153.52,-96.19l-0.09 -0.7 1.04 0.01c39.26,-0 75.06,-9.43 102.14,-24.94 27.3,-15.63 45.73,-37.42 49.88,-61.91l0.55 -3.24 0.55 3.24c4.15,24.49 22.58,46.28 49.88,61.91 27.09,15.51 62.88,24.94 102.14,24.94l1.04 -0.01 -0.09 0.7zm-49.82 63.47c27.15,-15.97 45.19,-38.13 48.62,-62.94 -39.34,-0.04 -75.23,-9.52 -102.41,-25.08 -26.54,-15.2 -44.8,-36.21 -49.91,-59.94 -5.11,23.72 -23.37,44.74 -49.91,59.94 -27.18,15.56 -63.06,25.04 -102.41,25.08 3.42,24.81 21.47,46.96 48.62,62.94 27.26,16.04 63.68,25.84 103.7,25.84 40.02,0 76.44,-9.8 103.7,-25.84z"/>
    <path class="fil9" d="M332.11 438.9c-15.42,59.79 -97.27,85.73 -146.24,85.73 -42.53,0 -53.15,-30.34 1.59,-55.79 0.28,-0.34 -1.75,1.96 -1.51,1.7 -36.2,17.58 -48.15,44.64 -5.92,44.64 42.28,0 78.61,-11.85 106.3,-29.54 23.88,-15.25 40.78,-34.6 44.66,-57.16l1.22 -11.72c0.14,0.76 -0.06,1.99 0.17,3.39l-0.27 18.75z"/>
    <path class="fil9" d="M332.29 438.9c15.42,59.79 97.27,85.73 146.24,85.73 42.53,0 53.15,-30.34 -1.59,-55.79 -0.29,-0.34 1.75,1.96 1.51,1.7 36.2,17.58 48.15,44.64 5.92,44.64 -42.28,0 -78.61,-11.85 -106.3,-29.54 -23.88,-15.25 -40.78,-34.6 -44.66,-57.16l-1.22 -11.72c-0.14,0.76 0.06,1.99 -0.17,3.39l0.27 18.75z"/>
    <g>
     <path class="fil10" d="M277.46 528.99c6.31,5.87 12.45,8.88 18.41,8.88 5.86,0 11.56,-2.91 17.08,-8.87l1.83 0.04c-11.61,16.78 -33.62,14 -45.41,-0.13l8.09 0.07z"/>
     <path class="fil10" d="M387.74 528.99c-6.31,5.87 -12.45,8.88 -18.4,8.88 -5.86,0 -11.56,-2.91 -17.08,-8.87l-1.83 0.04c11.61,16.78 33.62,14 45.41,-0.13l-8.09 0.07z"/>
    </g>
   </g>
  </g>
 </g>
</svg>
