<?xml version="1.0" encoding="UTF-8"?>
<!DOCTYPE svg PUBLIC "-//W3C//DTD SVG 1.1//EN" "http://www.w3.org/Graphics/SVG/1.1/DTD/svg11.dtd">
<!-- Creator: CorelDRAW -->
<svg xmlns="http://www.w3.org/2000/svg" xml:space="preserve" width="21.1635mm" height="20.0159mm" version="1.1" style="shape-rendering:geometricPrecision; text-rendering:geometricPrecision; image-rendering:optimizeQuality; fill-rule:evenodd; clip-rule:evenodd"
viewBox="0 0 168.2 159.08"
 xmlns:xlink="http://www.w3.org/1999/xlink"
 xmlns:xodm="http://www.corel.com/coreldraw/odm/2003">
 <defs>
  <style type="text/css">
   <![CDATA[
    .str0 {stroke:#F7F2F2;stroke-width:0.61;stroke-miterlimit:22.9256}
    .fil5 {fill:none}
    .fil2 {fill:none;fill-rule:nonzero}
    .fil4 {fill:#D3E459}
    .fil0 {fill:#3D6A70;fill-rule:nonzero}
    .fil3 {fill:#A4B334;fill-rule:nonzero}
    .fil6 {fill:#F7F2F2;fill-rule:nonzero}
    .fil1 {fill:#A4B334;fill-opacity:0.749020}
   ]]>
  </style>
   <clipPath id="id0" style="clip-rule:nonzero">
    <path d="M167.74 22.95l0 107.73c3.27,9.85 -11.55,17.13 -24.62,21.05 -15.13,4.54 -36.01,7.35 -59.03,7.35 -21.63,0 -41.37,-2.48 -56.23,-6.55 -13.93,-3.81 -30.47,-11.29 -27.51,-21.5l0 -109.73c1.25,-6.29 13.8,-10.99 27.53,-14.74 14.86,-4.07 34.59,-3.47 56.21,-3.47 23.02,0 43.89,-0.27 59.03,4.27 13.07,3.92 19.71,6.18 24.62,15.6z"/>
   </clipPath>
   <clipPath id="id1" style="clip-rule:nonzero">
    <path d="M167.74 22.95l0 18.45c3.27,9.85 -11.55,17.13 -24.62,21.05 -15.13,4.54 -36.01,7.35 -59.03,7.35 -21.63,0 -41.37,-2.48 -56.23,-6.55 -13.93,-3.81 -30.47,-11.29 -27.51,-21.5l0 -20.45c1.25,-6.29 13.8,-10.99 27.53,-14.74 14.86,-4.07 34.59,-3.47 56.21,-3.47 23.02,0 43.89,-0.27 59.03,4.27 13.07,3.92 19.71,6.18 24.62,15.6z"/>
   </clipPath>
   <clipPath id="id2">
    <path d="M84.09 0c23.02,0 43.89,2.29 59.03,5.99 15.48,3.78 25.06,9.07 25.06,14.96 0,5.89 -9.58,11.18 -25.06,14.96 -15.13,3.7 -36.01,5.99 -59.03,5.99 -23.02,0 -43.89,-2.29 -59.03,-5.99 -15.48,-3.78 -25.06,-9.07 -25.06,-14.96 0,-5.89 9.58,-11.18 25.06,-14.96 15.13,-3.7 36.01,-5.99 59.03,-5.99z"/>
   </clipPath>
 </defs>
 <g id="Camada_x0020_1">
  <metadata id="CorelCorpID_0Corel-Layer"/>
  <path class="fil0" d="M167.74 22.95l0 107.73c3.27,9.85 -11.55,17.13 -24.62,21.05 -15.13,4.54 -36.01,7.35 -59.03,7.35 -21.63,0 -41.37,-2.48 -56.23,-6.55 -13.93,-3.81 -30.47,-11.29 -27.51,-21.5l0 -109.73c1.25,-6.29 13.8,-10.99 27.53,-14.74 14.86,-4.07 34.59,-3.47 56.21,-3.47 23.02,0 43.89,-0.27 59.03,4.27 13.07,3.92 19.71,6.18 24.62,15.6z"/>
  <g style="clip-path:url(#id0)">
   <g id="_2216768213840">
    <path id="_1" class="fil1" d="M47.68 80.28c34.87,5.82 89.51,1.46 130.64,-18.4l3.94 61.36c-37.9,16.42 -90.5,30.32 -137.9,17.25 -3.39,-0.93 -5.66,-3.91 -5.66,-7.43l0 -45.18c0,-2.34 0.94,-4.36 2.72,-5.88 1.79,-1.51 3.94,-2.1 6.25,-1.72z"/>
   </g>
  </g>
  <path class="fil2" d="M167.74 22.95l0 107.73c3.27,9.85 -11.55,17.13 -24.62,21.05 -15.13,4.54 -36.01,7.35 -59.03,7.35 -21.63,0 -41.37,-2.48 -56.23,-6.55 -13.93,-3.81 -30.47,-11.29 -27.51,-21.5l0 -109.73c1.25,-6.29 13.8,-10.99 27.53,-14.74 14.86,-4.07 34.59,-3.47 56.21,-3.47 23.02,0 43.89,-0.27 59.03,4.27 13.07,3.92 19.71,6.18 24.62,15.6z"/>
  <path class="fil3" d="M167.74 22.95l0 18.45c3.27,9.85 -11.55,17.13 -24.62,21.05 -15.13,4.54 -36.01,7.35 -59.03,7.35 -21.63,0 -41.37,-2.48 -56.23,-6.55 -13.93,-3.81 -30.47,-11.29 -27.51,-21.5l0 -20.45c1.25,-6.29 13.8,-10.99 27.53,-14.74 14.86,-4.07 34.59,-3.47 56.21,-3.47 23.02,0 43.89,-0.27 59.03,4.27 13.07,3.92 19.71,6.18 24.62,15.6z"/>
  <g style="clip-path:url(#id1)">
   <g id="_2216768217248">
    <path id="_1_0" class="fil1" d="M47.68 80.28c34.87,5.82 89.51,1.46 130.64,-18.4l3.94 61.36c-37.9,16.42 -90.5,30.32 -137.9,17.25 -3.39,-0.93 -5.66,-3.91 -5.66,-7.43l0 -45.18c0,-2.34 0.94,-4.36 2.72,-5.88 1.79,-1.51 3.94,-2.1 6.25,-1.72z"/>
   </g>
  </g>
  <path class="fil2" d="M167.74 22.95l0 18.45c3.27,9.85 -11.55,17.13 -24.62,21.05 -15.13,4.54 -36.01,7.35 -59.03,7.35 -21.63,0 -41.37,-2.48 -56.23,-6.55 -13.93,-3.81 -30.47,-11.29 -27.51,-21.5l0 -20.45c1.25,-6.29 13.8,-10.99 27.53,-14.74 14.86,-4.07 34.59,-3.47 56.21,-3.47 23.02,0 43.89,-0.27 59.03,4.27 13.07,3.92 19.71,6.18 24.62,15.6z"/>
  <path class="fil4" d="M84.09 0c23.02,0 43.89,2.29 59.03,5.99 15.48,3.78 25.06,9.07 25.06,14.96 0,5.89 -9.58,11.18 -25.06,14.96 -15.13,3.7 -36.01,5.99 -59.03,5.99 -23.02,0 -43.89,-2.29 -59.03,-5.99 -15.48,-3.78 -25.06,-9.07 -25.06,-14.96 0,-5.89 9.58,-11.18 25.06,-14.96 15.13,-3.7 36.01,-5.99 59.03,-5.99z"/>
  <g style="clip-path:url(#id2)">
   <g id="_2216768218256">
    <path id="_1_1" class="fil1" d="M47.68 80.28c34.87,5.82 89.51,1.46 130.64,-18.4l3.94 61.36c-37.9,16.42 -90.5,30.32 -137.9,17.25 -3.39,-0.93 -5.66,-3.91 -5.66,-7.43l0 -45.18c0,-2.34 0.94,-4.36 2.72,-5.88 1.79,-1.51 3.94,-2.1 6.25,-1.72z"/>
   </g>
  </g>
  <path class="fil5" d="M84.09 0c23.02,0 43.89,2.29 59.03,5.99 15.48,3.78 25.06,9.07 25.06,14.96 0,5.89 -9.58,11.18 -25.06,14.96 -15.13,3.7 -36.01,5.99 -59.03,5.99 -23.02,0 -43.89,-2.29 -59.03,-5.99 -15.48,-3.78 -25.06,-9.07 -25.06,-14.96 0,-5.89 9.58,-11.18 25.06,-14.96 15.13,-3.7 36.01,-5.99 59.03,-5.99z"/>
  <g id="_2216768215280">
   <path class="fil6" d="M64.02 113.08l0 -0.65 1.07 -0.33c0.21,-0.07 0.37,-0.13 0.47,-0.18 0.07,-0.03 0.12,-0.07 0.15,-0.11 0.03,-0.04 0.05,-0.09 0.06,-0.15l0 -0.02c0.06,-0.24 0.11,-0.89 0.14,-1.93 0.03,-1.05 0.05,-2.51 0.05,-4.39 -0.01,-2.75 -0.07,-5.39 -0.25,-8.14 -0.02,-0.24 -0.04,-0.42 -0.06,-0.51l-0.07 -0.25 -0.08 -0.17c-0.04,-0.06 -0.1,-0.12 -0.16,-0.16 -0.07,-0.05 -0.16,-0.09 -0.25,-0.12 -0.12,-0.03 -0.26,-0.07 -0.44,-0.1l-0.87 -0.12 -0.02 -0.24c-0.02,-0.21 -0.02,-0.41 0,-0.6l0.03 -0.29 1.48 0.06 1.39 0.01 0.6 -0.02 0.88 -0.04 1.27 -0.1 0.51 -0.01c0.66,0 1.29,0.05 1.87,0.14 0.59,0.09 1.14,0.23 1.64,0.42 0.5,0.18 0.97,0.4 1.39,0.65 0.42,0.25 0.81,0.53 1.15,0.84 0.35,0.31 0.65,0.64 0.9,0.96 0.26,0.33 0.47,0.68 0.64,1.04 0.17,0.35 0.29,0.71 0.38,1.07 0.09,0.36 0.13,0.71 0.13,1.05 0,0.53 -0.08,1.04 -0.24,1.54 -0.16,0.5 -0.4,0.98 -0.72,1.44 -0.32,0.46 -0.72,0.88 -1.19,1.25 -0.47,0.37 -1.01,0.7 -1.63,0.98 -0.62,0.28 -1.29,0.49 -2.01,0.63 -0.72,0.14 -1.49,0.21 -2.31,0.21 -0.32,0 -0.63,-0.01 -0.93,-0.04l-0.54 -0.06c0.02,1.3 0.02,2.6 0.06,3.89 0.02,0.27 0.04,0.5 0.07,0.68 0.03,0.17 0.07,0.31 0.11,0.41 0.03,0.07 0.09,0.13 0.16,0.19 0.08,0.06 0.2,0.11 0.33,0.15 0.16,0.05 0.37,0.09 0.64,0.12 0.28,0.03 0.62,0.06 1.01,0.09l0.3 0.02 -0.06 1.23 -0.33 -0.05 -0.6 -0.07 -0.77 -0.05 -1.46 -0.05c-0.99,0 -1.76,0.05 -2.32,0.16 -0.21,0.03 -0.57,0.09 -0.76,0.09 -0.1,0 -0.21,-0.01 -0.31,-0.03 -0.1,-0.02 -0.2,-0.04 -0.3,-0.08l-0.2 -0.07 0 -0.21zm4.53 -17.05l-0.14 6.39 0.02 2.71c0.31,0.07 0.61,0.13 0.9,0.17 0.36,0.05 0.7,0.07 1.04,0.07 0.36,0 0.73,-0.04 1.09,-0.11 0.37,-0.07 0.74,-0.18 1.11,-0.32 0.36,-0.14 0.7,-0.33 1,-0.57 0.3,-0.24 0.58,-0.53 0.83,-0.87 0.24,-0.33 0.43,-0.72 0.55,-1.16 0.12,-0.45 0.19,-0.95 0.19,-1.52 0,-0.43 -0.05,-0.85 -0.14,-1.26 -0.09,-0.41 -0.23,-0.81 -0.42,-1.19 -0.18,-0.37 -0.41,-0.72 -0.7,-1.02 -0.28,-0.31 -0.62,-0.58 -1,-0.82 -0.38,-0.23 -0.8,-0.41 -1.26,-0.53 -0.46,-0.12 -0.96,-0.18 -1.5,-0.18 -0.28,0 -0.57,0.02 -0.87,0.06 -0.24,0.03 -0.48,0.08 -0.73,0.13zm9.96 8.46l0 -0.76c1.15,-0.63 2.38,-1.44 3.59,-1.92l0.05 0c0.16,0 0.29,0.06 0.38,0.18 0.08,0.1 0.11,0.22 0.11,0.37l-0.17 2.39 -0.13 2.27 -0.04 1.19c0,0.51 0.03,0.97 0.1,1.38 0.06,0.41 0.16,0.77 0.29,1.1 0.11,0.27 0.29,0.48 0.55,0.62 0.27,0.15 0.64,0.22 1.09,0.22 0.15,0 0.3,-0.01 0.45,-0.03 0.15,-0.02 0.3,-0.06 0.46,-0.11 0.17,-0.05 0.35,-0.12 0.53,-0.19l0.62 -0.27 0.89 -0.43 0.01 -0.66 0.03 -0.52 0.07 -2.81c0.01,-0.42 0.01,-0.77 0,-1.07 -0.01,-0.28 -0.04,-0.5 -0.08,-0.66 -0.03,-0.14 -0.08,-0.25 -0.13,-0.33 -0.05,-0.07 -0.1,-0.12 -0.16,-0.14 -0.09,-0.04 -0.23,-0.07 -0.4,-0.1 -0.18,-0.03 -0.4,-0.05 -0.66,-0.06l-0.28 -0.01 -0.06 -1.05 4.34 -1.01c-0.12,2.08 -0.26,4.15 -0.35,6.23l-0.02 0.81c0,0.67 0.02,1.23 0.06,1.68 0.03,0.32 0.07,0.59 0.12,0.8 0.15,-0.02 0.3,-0.04 0.46,-0.07 0.25,-0.05 0.5,-0.13 0.77,-0.22l0.41 -0.15 0 1.28 -0.22 0.06c-0.5,0.14 -1.03,0.3 -1.57,0.48 -0.53,0.17 -1.06,0.36 -1.59,0.56l-0.3 0.11 -0.09 -0.31c-0.08,-0.27 -0.16,-0.58 -0.22,-0.91l-0.11 -0.67c-0.97,0.49 -1.81,0.86 -2.51,1.11 -0.81,0.3 -1.46,0.45 -1.93,0.45 -0.34,0 -0.67,-0.08 -1.01,-0.24 -0.32,-0.16 -0.64,-0.39 -0.96,-0.69 -0.34,-0.33 -0.58,-0.79 -0.72,-1.39 -0.14,-0.57 -0.19,-1.27 -0.17,-2.1l0.09 -3.11c0.01,-0.27 0.01,-0.51 -0,-0.71 -0.01,-0.19 -0.03,-0.36 -0.05,-0.48 -0.02,-0.08 -0.04,-0.13 -0.07,-0.16 -0.03,-0.03 -0.08,-0.04 -0.16,-0.04 -0.04,0 -0.14,0.03 -0.27,0.08 -0.16,0.06 -0.37,0.16 -0.62,0.28l-0.44 0.22 0 -0.49zm13.34 8.34l0.05 -0.63 0.23 -0.04c0.22,-0.04 0.4,-0.09 0.54,-0.13 0.14,-0.04 0.25,-0.08 0.33,-0.12 0.04,-0.02 0.09,-0.07 0.14,-0.14 0.06,-0.09 0.12,-0.21 0.18,-0.35 0.06,-0.15 0.1,-0.34 0.14,-0.58 0.04,-0.24 0.07,-0.53 0.09,-0.86 0.02,-0.34 0.04,-0.77 0.05,-1.28l0.01 -1.82c0,-0.54 -0.02,-1 -0.04,-1.36 -0.03,-0.35 -0.07,-0.61 -0.12,-0.77 -0.04,-0.11 -0.1,-0.19 -0.18,-0.24 -0.1,-0.06 -0.24,-0.09 -0.43,-0.09l-0.4 0.02c-0.13,0.02 -0.27,0.04 -0.4,0.07l-0.43 0.11 0.13 -1.03 4.11 -2.4 0.03 0.49 0.04 1.02 0.01 0.82c1.06,-0.6 2.11,-1.21 3.14,-1.86 0.2,0.1 0.28,0.16 0.45,0.27 0.15,0.07 0.28,0.15 0.4,0.23 0.12,0.08 0.23,0.18 0.33,0.28 0.11,0.12 0.19,0.25 0.24,0.42 0.05,0.15 0.07,0.32 0.07,0.51 0,0.22 -0.05,0.43 -0.14,0.62 -0.09,0.19 -0.23,0.35 -0.41,0.5 -0.17,0.13 -0.36,0.24 -0.56,0.32 -0.2,0.08 -0.42,0.13 -0.65,0.16l-0.34 0.04 0 -0.34c0,-0.13 -0.01,-0.23 -0.04,-0.32 -0.02,-0.08 -0.06,-0.14 -0.1,-0.19 -0.04,-0.04 -0.09,-0.08 -0.15,-0.1 -0.07,-0.03 -0.15,-0.04 -0.25,-0.04 -0.11,0 -0.23,0.02 -0.37,0.06 -0.15,0.04 -0.31,0.11 -0.48,0.2 -0.18,0.09 -0.34,0.18 -0.48,0.27 -0.13,0.08 -0.24,0.17 -0.32,0.24 -0.11,0.09 -0.19,0.17 -0.24,0.24 -0.04,0.05 -0.07,0.09 -0.08,0.12 -0.01,0.05 -0.03,0.14 -0.04,0.28l-0.11 3.08c0,0.88 0.02,1.6 0.07,2.15 0.04,0.51 0.1,0.85 0.18,1.03 0.1,0.15 0.06,0.11 0.25,0.15l0.27 0.01c0.77,-0.06 1.56,-0.05 2.33,-0.06l-0.06 1.17 -7 0.19 0.02 -0.33zm8.84 -5.15c0,-0.42 0.04,-0.83 0.12,-1.22 0.08,-0.39 0.2,-0.76 0.36,-1.11 0.16,-0.35 0.35,-0.68 0.57,-0.98 0.22,-0.3 0.46,-0.58 0.74,-0.83 0.28,-0.25 0.58,-0.48 0.9,-0.67 0.32,-0.19 0.67,-0.36 1.03,-0.49 0.36,-0.13 0.74,-0.24 1.13,-0.3 0.39,-0.07 0.8,-0.1 1.22,-0.1 0.38,0 0.76,0.04 1.12,0.1 0.36,0.07 0.71,0.18 1.06,0.32 0.34,0.14 0.67,0.31 0.96,0.5 0.3,0.19 0.58,0.42 0.84,0.66 0.26,0.25 0.49,0.52 0.69,0.82 0.2,0.29 0.38,0.61 0.53,0.95 0.15,0.33 0.26,0.69 0.33,1.05 0.07,0.37 0.11,0.74 0.11,1.13 0,0.5 -0.06,0.99 -0.18,1.46 -0.12,0.47 -0.3,0.93 -0.54,1.37 -0.24,0.44 -0.53,0.84 -0.87,1.2 -0.34,0.35 -0.73,0.67 -1.17,0.94 -0.44,0.27 -0.92,0.48 -1.42,0.61 -0.5,0.13 -1.04,0.2 -1.61,0.2 -0.43,0 -0.87,-0.05 -1.31,-0.14 -0.44,-0.09 -0.88,-0.23 -1.33,-0.42 -0.46,-0.19 -0.89,-0.44 -1.27,-0.74 -0.39,-0.31 -0.74,-0.67 -1.05,-1.09 -0.32,-0.42 -0.56,-0.91 -0.71,-1.45 -0.16,-0.53 -0.24,-1.13 -0.24,-1.77zm2.41 -0.76c0,0.41 0.04,0.81 0.12,1.22 0.08,0.41 0.2,0.82 0.36,1.22 0.17,0.4 0.36,0.77 0.59,1.1 0.22,0.33 0.48,0.62 0.76,0.87 0.28,0.25 0.57,0.43 0.88,0.56 0.3,0.12 0.61,0.18 0.94,0.18 0.3,0 0.57,-0.04 0.83,-0.12 0.26,-0.08 0.51,-0.2 0.75,-0.36 0.24,-0.16 0.45,-0.36 0.64,-0.59 0.19,-0.23 0.36,-0.5 0.51,-0.8 0.15,-0.3 0.26,-0.63 0.33,-0.97 0.07,-0.35 0.11,-0.72 0.11,-1.12 0,-0.4 -0.04,-0.79 -0.13,-1.17 -0.09,-0.38 -0.22,-0.77 -0.39,-1.15 -0.17,-0.38 -0.38,-0.72 -0.61,-1.03 -0.23,-0.3 -0.5,-0.57 -0.8,-0.81 -0.29,-0.23 -0.6,-0.4 -0.92,-0.52 -0.32,-0.11 -0.66,-0.17 -1.01,-0.17 -0.29,0 -0.55,0.04 -0.8,0.11 -0.25,0.08 -0.49,0.19 -0.71,0.34 -0.23,0.16 -0.43,0.34 -0.6,0.55 -0.18,0.22 -0.33,0.47 -0.46,0.75 -0.13,0.28 -0.23,0.58 -0.29,0.9 -0.06,0.31 -0.1,0.65 -0.1,1zm11.81 6.26l-0.86 -0.04 0 -0.29c0.01,-0.62 -0.05,-1.31 -0.17,-2.06 -0.12,-0.75 -0.32,-1.57 -0.58,-2.46l-0.09 -0.29c0.27,-0.07 0.52,-0.15 0.79,-0.2l0.25 -0.03 0.37 1.11 0.22 0.62c0.05,0.14 0.12,0.27 0.19,0.4 0.07,0.12 0.15,0.23 0.24,0.34 0.08,0.1 0.19,0.2 0.31,0.29 0.12,0.09 0.26,0.18 0.42,0.26 0.29,0.16 0.61,0.3 0.94,0.44 0.33,0.14 0.7,0.27 1.08,0.39 0.37,0.12 0.77,0.21 1.17,0.27 0.4,0.06 0.83,0.09 1.26,0.09 0.74,0 1.48,-0.18 2.22,-0.55 0.33,-0.16 0.58,-0.42 0.74,-0.78 0.18,-0.38 0.27,-0.88 0.27,-1.5 0,-0.31 -0.03,-0.6 -0.08,-0.87 -0.05,-0.26 -0.13,-0.5 -0.23,-0.71 -0.1,-0.22 -0.23,-0.42 -0.37,-0.6 -0.14,-0.18 -0.29,-0.33 -0.45,-0.46 -0.18,-0.14 -0.37,-0.28 -0.58,-0.4 -0.21,-0.12 -0.43,-0.24 -0.66,-0.35l-0.84 -0.36 -1.05 -0.41c-0.55,-0.2 -1.06,-0.4 -1.5,-0.61 -0.46,-0.21 -0.87,-0.42 -1.23,-0.63 -0.37,-0.22 -0.7,-0.46 -1,-0.73 -0.3,-0.27 -0.56,-0.57 -0.77,-0.89 -0.22,-0.33 -0.39,-0.7 -0.51,-1.1 -0.11,-0.4 -0.17,-0.83 -0.17,-1.29 0,-0.74 0.14,-1.41 0.41,-2.03 0.27,-0.61 0.68,-1.17 1.22,-1.66 0.54,-0.49 1.2,-0.86 1.97,-1.11 0.76,-0.24 1.63,-0.36 2.6,-0.36 0.49,0 0.98,0.03 1.47,0.08 0.49,0.05 0.97,0.13 1.44,0.24l0.45 0.08 0.2 0.02c0.11,0 0.21,-0.02 0.32,-0.05 0.11,-0.04 0.23,-0.1 0.34,-0.18 0.05,-0.04 0.15,-0.08 0.21,-0.11l0.26 0.02 0.42 0.13c-0.09,0.79 -0.14,1.61 -0.25,2.38l0.13 1.25c0.03,0.32 0.04,0.52 0.03,0.58l-0.03 0.26 -0.98 0.07 -0.02 -0.3c-0.03,-0.44 -0.12,-0.83 -0.26,-1.16 -0.14,-0.33 -0.33,-0.62 -0.57,-0.86 -0.25,-0.25 -0.53,-0.46 -0.81,-0.63 -0.28,-0.17 -0.58,-0.29 -0.89,-0.38 -0.33,-0.09 -0.65,-0.16 -0.96,-0.21 -0.31,-0.05 -0.62,-0.07 -0.91,-0.07 -0.73,0 -1.32,0.09 -1.79,0.28 -0.44,0.17 -0.77,0.43 -0.98,0.77 -0.23,0.38 -0.41,0.74 -0.52,1.1 -0.11,0.34 -0.17,0.68 -0.17,1 0,0.68 0.16,1.23 0.49,1.67 0.17,0.22 0.36,0.43 0.57,0.6 0.21,0.18 0.44,0.33 0.7,0.46 0.27,0.14 0.59,0.29 0.97,0.45 0.39,0.17 0.83,0.35 1.31,0.53 0.57,0.22 1.08,0.43 1.53,0.64 0.45,0.2 0.86,0.4 1.21,0.59 0.36,0.2 0.7,0.44 1.02,0.72 0.32,0.28 0.62,0.61 0.89,0.98 0.29,0.38 0.5,0.81 0.65,1.28 0.14,0.47 0.21,0.98 0.21,1.52 0,0.47 -0.06,0.92 -0.18,1.34 -0.12,0.43 -0.31,0.83 -0.55,1.21 -0.25,0.38 -0.56,0.73 -0.93,1.03 -0.36,0.3 -0.79,0.56 -1.28,0.77 -0.48,0.22 -1.01,0.38 -1.6,0.49 -0.58,0.11 -1.22,0.16 -1.9,0.16 -0.66,0 -1.34,-0.05 -2.03,-0.15 -0.69,-0.1 -1.39,-0.24 -2.09,-0.43l-0.36 -0.07 0.08 0.47 -0.38 -0.02zm12.29 -5.5c0,-0.42 0.04,-0.83 0.12,-1.22 0.08,-0.39 0.2,-0.76 0.36,-1.11 0.16,-0.35 0.35,-0.68 0.57,-0.98 0.22,-0.3 0.46,-0.58 0.74,-0.83 0.28,-0.25 0.58,-0.48 0.9,-0.67 0.32,-0.19 0.67,-0.36 1.03,-0.49 0.36,-0.13 0.74,-0.24 1.13,-0.3 0.39,-0.07 0.8,-0.1 1.22,-0.1 0.38,0 0.76,0.04 1.12,0.1 0.36,0.07 0.71,0.18 1.06,0.32 0.34,0.14 0.67,0.31 0.96,0.5 0.3,0.19 0.58,0.42 0.84,0.66 0.26,0.25 0.49,0.52 0.69,0.82 0.2,0.29 0.38,0.61 0.53,0.95 0.15,0.33 0.26,0.69 0.33,1.05 0.07,0.37 0.11,0.74 0.11,1.13 0,0.5 -0.06,0.99 -0.18,1.46 -0.12,0.47 -0.3,0.93 -0.54,1.37 -0.24,0.44 -0.53,0.84 -0.87,1.2 -0.34,0.35 -0.73,0.67 -1.17,0.94 -0.44,0.27 -0.92,0.48 -1.42,0.61 -0.5,0.13 -1.04,0.2 -1.61,0.2 -0.43,0 -0.87,-0.05 -1.31,-0.14 -0.44,-0.09 -0.88,-0.23 -1.33,-0.42 -0.46,-0.19 -0.89,-0.44 -1.27,-0.74 -0.39,-0.31 -0.74,-0.67 -1.05,-1.09 -0.32,-0.42 -0.56,-0.91 -0.71,-1.45 -0.16,-0.53 -0.24,-1.13 -0.24,-1.77zm2.41 -0.76c0,0.41 0.04,0.81 0.12,1.22 0.08,0.41 0.2,0.82 0.36,1.22 0.17,0.4 0.36,0.77 0.59,1.1 0.22,0.33 0.48,0.62 0.76,0.87 0.28,0.25 0.57,0.43 0.88,0.56 0.3,0.12 0.61,0.18 0.94,0.18 0.3,0 0.57,-0.04 0.83,-0.12 0.26,-0.08 0.51,-0.2 0.75,-0.36 0.24,-0.16 0.45,-0.36 0.64,-0.59 0.19,-0.23 0.36,-0.5 0.51,-0.8 0.15,-0.3 0.26,-0.63 0.33,-0.97 0.07,-0.35 0.11,-0.72 0.11,-1.12 0,-0.4 -0.04,-0.79 -0.13,-1.17 -0.09,-0.38 -0.22,-0.77 -0.39,-1.15 -0.17,-0.38 -0.38,-0.72 -0.61,-1.03 -0.23,-0.3 -0.5,-0.57 -0.8,-0.81 -0.29,-0.23 -0.6,-0.4 -0.92,-0.52 -0.32,-0.11 -0.66,-0.17 -1.01,-0.17 -0.29,0 -0.55,0.04 -0.8,0.11 -0.25,0.08 -0.49,0.19 -0.71,0.34 -0.23,0.16 -0.43,0.34 -0.6,0.55 -0.18,0.22 -0.33,0.47 -0.46,0.75 -0.13,0.28 -0.23,0.58 -0.29,0.9 -0.06,0.31 -0.1,0.65 -0.1,1zm1.66 -6.48l2.8 -5.07 2.73 0 -4.46 5.52 -1.32 0 0.25 -0.45z"/>
   <path class="fil6 str0" d="M68.51 126.68c-0.14,0.52 -0.79,0.86 -1.61,0.86 -0.88,0 -1.48,-0.51 -1.54,-1.64l3.71 0c0,-1.45 -0.6,-2.41 -2.14,-2.41 -1.28,0 -2.14,0.69 -2.14,2.23 0,1.55 0.84,2.24 2.11,2.24 1.08,0 1.93,-0.44 2.1,-1.1l-0.49 -0.19zm0.02 -1.15l-3.18 0c0.06,-1.13 0.67,-1.64 1.57,-1.64 1.05,0 1.52,0.64 1.61,1.64zm1.05 1.39c0.29,0.61 1.07,1 2,1 1.13,0 1.87,-0.48 1.87,-1.21 0,-0.68 -0.62,-1.17 -1.81,-1.22 -0.89,-0.04 -1.34,-0.36 -1.34,-0.8 0,-0.47 0.51,-0.78 1.28,-0.78 0.56,0 1.1,0.37 1.35,0.93l0.42 -0.19c-0.3,-0.68 -1.01,-1.13 -1.77,-1.13 -1.07,0 -1.78,0.49 -1.78,1.22 0,0.68 0.58,1.17 1.72,1.22 0.94,0.05 1.42,0.36 1.42,0.79 0,0.46 -0.54,0.76 -1.36,0.76 -0.73,0 -1.36,-0.35 -1.56,-0.87 -0.08,0.03 -0.16,0.07 -0.24,0.09l-0.24 0.09c0,0.01 0.04,0.1 0.04,0.1l0 0zm5.7 0.97l0 -3.93 1.18 0 0 -0.4 -1.18 0 0 -1.04c0,-0.27 0.08,-0.38 0.29,-0.38 0.29,0 0.58,0 0.87,0.01l0.02 0 0 -0.43 -1.02 0c-0.49,0 -0.68,0.22 -0.68,0.8l0 1.04 -0.83 0 0 0.4 0.83 0 0 3.93 0.52 0zm2.56 -2.17c0,-1.28 0.63,-1.85 1.57,-1.85 1.08,0 1.57,0.74 1.57,1.85 0,1.28 -0.63,1.86 -1.57,1.86 -1.08,0 -1.57,-0.75 -1.57,-1.86zm-0.56 0c0,1.34 0.66,2.24 2.13,2.24 1.28,0 2.13,-0.69 2.13,-2.24 0,-1.34 -0.66,-2.24 -2.13,-2.24 -1.28,0 -2.13,0.69 -2.13,2.24zm5.93 2.17l0 -6.17 -0.52 0 0 6.17 0.52 0zm1.6 -4.98l0.57 0 0 -0.57 -0.57 0 0 0.57zm0.54 4.98l0 -4.33 -0.52 0 0 4.33 0.52 0zm1.63 -2.17c0,-1.08 0.71,-1.94 1.75,-1.8 0.75,0.1 1.35,0.72 1.35,1.8 0,1.09 -0.53,1.65 -1.35,1.81 -1.04,0.19 -1.75,-0.72 -1.75,-1.81zm-0.56 0c0,1.35 0.86,2.24 2.15,2.24 0.6,0 1.15,-0.32 1.52,-0.85l0 0.78 0.52 0 0 -4.33 -0.52 0 0 0.66c-0.37,-0.47 -0.92,-0.73 -1.52,-0.73 -1.29,0 -2.15,0.89 -2.15,2.23l0 -0zm8.8 2.17l0 -2.7c0,-1.1 -0.57,-1.67 -1.43,-1.67 -0.68,0 -1.24,0.09 -1.58,0.38l0 -0.34 -0.52 0 0 4.33 0.52 0 0 -2.92c0,-0.59 0.55,-0.99 1.38,-0.99 0.67,0 1.12,0.41 1.12,1.2l0 2.7 0.52 0zm3.66 -4.33l-1.19 0 0 -1.13 -0.51 0 0 1.13 -1.19 0 0 0.4 1.19 0 0 3.93 0.51 0 0 -3.93 1.19 0 0 -0.4zm4.46 3.12c-0.14,0.52 -0.79,0.86 -1.61,0.86 -0.88,0 -1.48,-0.51 -1.54,-1.64l3.71 0c0,-1.45 -0.6,-2.41 -2.14,-2.41 -1.28,0 -2.14,0.69 -2.14,2.23 0,1.55 0.84,2.24 2.11,2.24 1.08,0 1.93,-0.44 2.1,-1.1l-0.49 -0.19zm0.02 -1.15l-3.18 0c0.06,-1.13 0.67,-1.64 1.57,-1.64 1.05,0 1.52,0.64 1.61,1.64z"/>
  </g>
 </g>
</svg>
