<?xml version="1.0" encoding="UTF-8"?>
<!DOCTYPE svg PUBLIC "-//W3C//DTD SVG 1.1//EN" "http://www.w3.org/Graphics/SVG/1.1/DTD/svg11.dtd">
<!-- Creator: CorelDRAW -->
<svg xmlns="http://www.w3.org/2000/svg" xml:space="preserve" width="37.6128mm" height="27.625mm" version="1.1" style="shape-rendering:geometricPrecision; text-rendering:geometricPrecision; image-rendering:optimizeQuality; fill-rule:evenodd; clip-rule:evenodd"
viewBox="0 0 1060.73 779.06"
 xmlns:xlink="http://www.w3.org/1999/xlink"
 xmlns:xodm="http://www.corel.com/coreldraw/odm/2003">
 <defs>
  <style type="text/css">
   <![CDATA[
    .str0 {stroke:#C0D2C6;stroke-width:9.95;stroke-miterlimit:22.9256}
    .fil4 {fill:none}
    .fil2 {fill:none;fill-rule:nonzero}
    .fil3 {fill:#3D6A70}
    .fil0 {fill:#3D6A70;fill-rule:nonzero}
    .fil1 {fill:#C0D2C6;fill-opacity:0.749020}
   ]]>
  </style>
     <clipPath id="id0" style="clip-rule:nonzero">
      <path d="M1054.57 130.14l0 558.08c8.43,29.78 -29.81,51.78 -63.54,63.64 -39.06,13.73 -92.93,22.23 -152.34,22.23 -55.82,0 -106.77,-7.51 -145.13,-19.82 -35.94,-11.53 -78.64,-34.13 -71,-65l0 -564.15c3.23,-19.03 35.62,-33.22 71.06,-44.58 38.35,-12.3 89.27,-10.49 145.06,-10.49 59.41,0 113.28,-0.82 152.34,12.91 33.74,11.86 50.87,18.68 63.54,47.17z"/>
     </clipPath>
     <clipPath id="id1" style="clip-rule:nonzero">
      <path d="M711.83 420.14l0 280.1c8.49,25.61 -30.03,44.54 -64.01,54.73 -39.35,11.81 -93.63,19.11 -153.48,19.11 -56.24,0 -107.57,-6.46 -146.21,-17.04 -36.21,-9.91 -79.23,-29.35 -71.53,-55.9l0 -285.32c3.26,-16.36 35.89,-28.57 71.59,-38.34 38.64,-10.58 89.94,-9.02 146.15,-9.02 59.86,0 114.13,-0.71 153.48,11.1 33.99,10.2 51.24,16.07 64.01,40.56z"/>
     </clipPath>
     <clipPath id="id2" style="clip-rule:nonzero">
      <path d="M711.83 420.14l0 47.97c8.49,25.6 -30.03,44.53 -64.01,54.73 -39.35,11.81 -93.63,19.11 -153.48,19.11 -56.24,0 -107.57,-6.46 -146.21,-17.04 -36.21,-9.92 -79.23,-29.35 -71.53,-55.9l0 -53.18c3.26,-16.36 35.89,-28.57 71.59,-38.34 38.64,-10.58 89.94,-9.02 146.15,-9.02 59.86,0 114.13,-0.71 153.48,11.1 33.99,10.2 51.24,16.07 64.01,40.56z"/>
     </clipPath>
     <clipPath id="id3">
      <path d="M494.34 360.47c59.86,0 114.13,5.95 153.48,15.56 40.25,9.83 65.16,23.58 65.16,38.9 0,15.32 -24.9,29.07 -65.16,38.9 -39.35,9.61 -93.62,15.56 -153.48,15.56 -59.86,0 -114.13,-5.95 -153.48,-15.56 -40.25,-9.84 -65.16,-23.58 -65.16,-38.9 0,-15.32 24.91,-29.07 65.16,-38.9 39.35,-9.61 93.62,-15.56 153.48,-15.56z"/>
     </clipPath>
     <clipPath id="id4" style="clip-rule:nonzero">
      <path d="M292.81 611.06c0.79,1.79 1.2,3.62 1.2,5.48 0,10.54 -13.07,19.93 -34.19,26.58 -20.65,6.5 -49.15,10.53 -80.6,10.53 -31.45,0 -59.95,-4.02 -80.6,-10.53 -21.12,-6.65 -34.19,-16.04 -34.19,-26.58 0,-1.73 0.36,-3.43 1.04,-5.09l-59.62 -452.76c103.86,20.62 217.57,19.08 339.08,0l-52.11 452.37z"/>
     </clipPath>
 </defs>
 <g id="Camada_x0020_1">
  <metadata id="CorelCorpID_0Corel-Layer"/>
  <g id="_2180673743120">
   <g>
    <path class="fil0" d="M1054.57 130.14l0 558.08c8.43,29.78 -29.81,51.78 -63.54,63.64 -39.06,13.73 -92.93,22.23 -152.34,22.23 -55.82,0 -106.77,-7.51 -145.13,-19.82 -35.94,-11.53 -78.64,-34.13 -71,-65l0 -564.15c3.23,-19.03 35.62,-33.22 71.06,-44.58 38.35,-12.3 89.27,-10.49 145.06,-10.49 59.41,0 113.28,-0.82 152.34,12.91 33.74,11.86 50.87,18.68 63.54,47.17z"/>
    <g style="clip-path:url(#id0)">
     <g>
      <path id="_1" class="fil1" d="M609.58 301.61c150.83,42.73 303.8,41.31 458.7,0l0 303.03c-136.06,55.42 -290.14,51.54 -458.7,0l0 -303.03z"/>
     </g>
    </g>
    <path class="fil2 str0" d="M1054.57 130.14l0 558.08c8.43,29.78 -29.81,51.78 -63.54,63.64 -39.06,13.73 -92.93,22.23 -152.34,22.23 -55.82,0 -106.77,-7.51 -145.13,-19.82 -35.94,-11.53 -78.64,-34.13 -71,-65l0 -564.15c3.23,-19.03 35.62,-33.22 71.06,-44.58 38.35,-12.3 89.27,-10.49 145.06,-10.49 59.41,0 113.28,-0.82 152.34,12.91 33.74,11.86 50.87,18.68 63.54,47.17z"/>
    <path class="fil0 str0" d="M1054.57 74.36l0 55.78c8.43,29.77 -29.81,51.78 -63.54,63.64 -39.06,13.73 -92.93,22.23 -152.34,22.23 -55.82,0 -106.77,-7.51 -145.13,-19.81 -35.94,-11.53 -78.64,-34.13 -71,-65l0 -61.84c3.23,-19.03 35.62,-33.22 71.06,-44.58 38.35,-12.3 89.27,-10.49 145.06,-10.49 59.41,0 113.28,-0.82 152.34,12.91 33.74,11.86 50.87,18.68 63.54,47.16z"/>
    <path class="fil3 str0" d="M838.69 4.97c59.41,0 113.28,6.92 152.34,18.09 39.95,11.44 64.67,27.42 64.67,45.24 0,17.81 -24.72,33.8 -64.67,45.24 -39.06,11.18 -92.93,18.09 -152.34,18.09 -59.41,0 -113.28,-6.92 -152.34,-18.09 -39.95,-11.44 -64.67,-27.42 -64.67,-45.24 0,-17.82 24.72,-33.8 64.67,-45.24 39.06,-11.18 92.93,-18.09 152.34,-18.09z"/>
   </g>
   <g>
    <path class="fil0" d="M711.83 420.14l0 280.1c8.49,25.61 -30.03,44.54 -64.01,54.73 -39.35,11.81 -93.63,19.11 -153.48,19.11 -56.24,0 -107.57,-6.46 -146.21,-17.04 -36.21,-9.91 -79.23,-29.35 -71.53,-55.9l0 -285.32c3.26,-16.36 35.89,-28.57 71.59,-38.34 38.64,-10.58 89.94,-9.02 146.15,-9.02 59.86,0 114.13,-0.71 153.48,11.1 33.99,10.2 51.24,16.07 64.01,40.56z"/>
    <g style="clip-path:url(#id1)">
     <g>
      <path id="_1_0" class="fil1" d="M399.66 569.21c90.66,15.13 232.73,3.81 339.68,-47.85l10.25 159.55c-98.55,42.69 -235.3,78.83 -358.55,44.84 -8.81,-2.43 -14.7,-10.17 -14.7,-19.31l0 -117.48c0,-6.1 2.43,-11.35 7.08,-15.29 4.65,-3.94 10.24,-5.47 16.24,-4.47z"/>
     </g>
    </g>
    <path class="fil2 str0" d="M711.83 420.14l0 280.1c8.49,25.61 -30.03,44.54 -64.01,54.73 -39.35,11.81 -93.63,19.11 -153.48,19.11 -56.24,0 -107.57,-6.46 -146.21,-17.04 -36.21,-9.91 -79.23,-29.35 -71.53,-55.9l0 -285.32c3.26,-16.36 35.89,-28.57 71.59,-38.34 38.64,-10.58 89.94,-9.02 146.15,-9.02 59.86,0 114.13,-0.71 153.48,11.1 33.99,10.2 51.24,16.07 64.01,40.56z"/>
    <path class="fil0" d="M711.83 420.14l0 47.97c8.49,25.6 -30.03,44.53 -64.01,54.73 -39.35,11.81 -93.63,19.11 -153.48,19.11 -56.24,0 -107.57,-6.46 -146.21,-17.04 -36.21,-9.92 -79.23,-29.35 -71.53,-55.9l0 -53.18c3.26,-16.36 35.89,-28.57 71.59,-38.34 38.64,-10.58 89.94,-9.02 146.15,-9.02 59.86,0 114.13,-0.71 153.48,11.1 33.99,10.2 51.24,16.07 64.01,40.56z"/>
    <g style="clip-path:url(#id2)">
     <g>
      <path id="_1_1" class="fil1" d="M399.66 569.21c90.66,15.13 232.73,3.81 339.68,-47.85l10.25 159.55c-98.55,42.69 -235.3,78.83 -358.55,44.84 -8.81,-2.43 -14.7,-10.17 -14.7,-19.31l0 -117.48c0,-6.1 2.43,-11.35 7.08,-15.29 4.65,-3.94 10.24,-5.47 16.24,-4.47z"/>
     </g>
    </g>
    <path class="fil2 str0" d="M711.83 420.14l0 47.97c8.49,25.6 -30.03,44.53 -64.01,54.73 -39.35,11.81 -93.63,19.11 -153.48,19.11 -56.24,0 -107.57,-6.46 -146.21,-17.04 -36.21,-9.92 -79.23,-29.35 -71.53,-55.9l0 -53.18c3.26,-16.36 35.89,-28.57 71.59,-38.34 38.64,-10.58 89.94,-9.02 146.15,-9.02 59.86,0 114.13,-0.71 153.48,11.1 33.99,10.2 51.24,16.07 64.01,40.56z"/>
    <path class="fil3" d="M494.34 360.47c59.86,0 114.13,5.95 153.48,15.56 40.25,9.83 65.16,23.58 65.16,38.9 0,15.32 -24.9,29.07 -65.16,38.9 -39.35,9.61 -93.62,15.56 -153.48,15.56 -59.86,0 -114.13,-5.95 -153.48,-15.56 -40.25,-9.84 -65.16,-23.58 -65.16,-38.9 0,-15.32 24.91,-29.07 65.16,-38.9 39.35,-9.61 93.62,-15.56 153.48,-15.56z"/>
    <g style="clip-path:url(#id3)">
     <g>
      <path id="_1_2" class="fil1" d="M399.66 569.21c90.66,15.13 232.73,3.81 339.68,-47.85l10.25 159.55c-98.55,42.69 -235.3,78.83 -358.55,44.84 -8.81,-2.43 -14.7,-10.17 -14.7,-19.31l0 -117.48c0,-6.1 2.43,-11.35 7.08,-15.29 4.65,-3.94 10.24,-5.47 16.24,-4.47z"/>
     </g>
    </g>
    <path class="fil4 str0" d="M494.34 360.47c59.86,0 114.13,5.95 153.48,15.56 40.25,9.83 65.16,23.58 65.16,38.9 0,15.32 -24.9,29.07 -65.16,38.9 -39.35,9.61 -93.62,15.56 -153.48,15.56 -59.86,0 -114.13,-5.95 -153.48,-15.56 -40.25,-9.84 -65.16,-23.58 -65.16,-38.9 0,-15.32 24.91,-29.07 65.16,-38.9 39.35,-9.61 93.62,-15.56 153.48,-15.56z"/>
   </g>
   <g>
    <path class="fil3 str0" d="M5.87 117.06c103.87,20.62 220.52,18.72 342.03,-0.36l-3.26 44.46 -53.39 416.75 -112.02 0 -112.02 0 -30.68 -232.98 -30.39 -184.08 -0.26 -43.8z"/>
    <path class="fil0 str0" d="M65.74 622.29c-0.87,-1.87 -1.32,-3.79 -1.32,-5.75 0,-10.54 13.07,-19.93 34.19,-26.58 20.65,-6.5 49.15,-10.53 80.6,-10.53 31.45,0 59.95,4.02 80.6,10.53 21.12,6.65 34.19,16.04 34.19,26.58 0,1.66 -0.32,3.29 -0.95,4.88l-6.16 116.05 -0 0.08 0 0c-0.44,10.3 -12.61,19.48 -32.06,26 -19.37,6.5 -46.11,10.53 -75.61,10.53 -29.51,0 -56.24,-4.02 -75.62,-10.53 -19.81,-6.65 -32.08,-16.04 -32.08,-26.58 0,-0.75 0.07,-1.5 0.19,-2.24l-5.97 -112.46z"/>
    <path class="fil0" d="M292.81 611.06c0.79,1.79 1.2,3.62 1.2,5.48 0,10.54 -13.07,19.93 -34.19,26.58 -20.65,6.5 -49.15,10.53 -80.6,10.53 -31.45,0 -59.95,-4.02 -80.6,-10.53 -21.12,-6.65 -34.19,-16.04 -34.19,-26.58 0,-1.73 0.36,-3.43 1.04,-5.09l-59.62 -452.76c103.86,20.62 217.57,19.08 339.08,0l-52.11 452.37z"/>
    <g style="clip-path:url(#id4)">
     <g>
      <path id="_1_3" class="fil1" d="M1.35 252.9c113.62,34.23 228.85,33.09 345.52,0l0 242.77c-102.49,44.4 -218.55,41.29 -345.52,0l0 -242.77z"/>
     </g>
    </g>
    <path class="fil2 str0" d="M292.81 611.06c0.79,1.79 1.2,3.62 1.2,5.48 0,10.54 -13.07,19.93 -34.19,26.58 -20.65,6.5 -49.15,10.53 -80.6,10.53 -31.45,0 -59.95,-4.02 -80.6,-10.53 -21.12,-6.65 -34.19,-16.04 -34.19,-26.58 0,-1.73 0.36,-3.43 1.04,-5.09l-59.62 -452.76c103.86,20.62 217.57,19.08 339.08,0l-52.11 452.37z"/>
   </g>
  </g>
 </g>
</svg>
