<?xml version="1.0" encoding="UTF-8"?>
<!DOCTYPE svg PUBLIC "-//W3C//DTD SVG 1.1//EN" "http://www.w3.org/Graphics/SVG/1.1/DTD/svg11.dtd">
<!-- Creator: CorelDRAW -->
<svg xmlns="http://www.w3.org/2000/svg" xml:space="preserve" width="15.2257mm" height="31.6966mm" version="1.1" style="shape-rendering:geometricPrecision; text-rendering:geometricPrecision; image-rendering:optimizeQuality; fill-rule:evenodd; clip-rule:evenodd"
viewBox="0 0 574.97 1196.96"
 xmlns:xlink="http://www.w3.org/1999/xlink"
 xmlns:xodm="http://www.corel.com/coreldraw/odm/2003">
 <defs>
  <style type="text/css">
   <![CDATA[
    .str0 {stroke:#C0D2C6;stroke-width:13.32;stroke-miterlimit:22.9256}
    .fil0 {fill:#3D6A70}
    .fil1 {fill:#C0D2C6}
   ]]>
  </style>
 </defs>
 <g id="Camada_x0020_1">
  <metadata id="CorelCorpID_0Corel-Layer"/>
  <path class="fil0 str0" d="M75.22 290.96c144.55,48.61 285.8,44.47 424.54,0 35.91,-11.51 68.56,30.85 68.56,68.56l0 731.69c0,37.71 -32.2,58.54 -68.56,68.56 -144.35,39.75 -286.01,41.69 -424.54,0 -36.11,-10.87 -68.56,-30.85 -68.56,-68.56l0 -731.69c0,-37.71 32.82,-80.58 68.56,-68.56z"/>
  <path class="fil1 str0" d="M286.22 238.68c130.5,0 228.07,23.7 228.07,52.92 0,29.23 -133.41,63.39 -228.07,62.44 -113.33,-2.84 -228.82,-33.21 -228.82,-62.44 0,-29.23 98.32,-52.92 228.82,-52.92z"/>
  <path class="fil0 str0" d="M166.97 172.87c72.64,23.46 149.06,25.14 230.15,0 9.7,-3.01 18.47,9.91 18.47,22.02l0 90.33c0,36.5 -115.46,40.61 -137.62,40.61 -19.16,0 -129.48,-10.03 -129.48,-40.61l0 -90.33c0,-12.11 8.8,-25.14 18.47,-22.02z"/>
  <path class="fil0 str0" d="M282.25 147.31c71.31,0 124.62,9.46 124.62,21.13 0,11.67 -72.89,25.31 -124.62,24.93 -61.92,-1.14 -125.03,-13.26 -125.03,-24.93 0,-11.67 53.73,-21.13 125.03,-21.13z"/>
  <path class="fil0 str0" d="M255.89 35.92c16.51,23.47 33.88,25.15 52.32,0 2.21,-3.01 4.2,9.91 4.2,22.02l0 90.33c0,22.46 -22.68,24.72 -27.72,24.72 -4.35,0 -33,0.58 -33,-24.72l0 -90.33c0,-12.11 2,-25.14 4.2,-22.02z"/>
  <path class="fil0 str0" d="M265.95 6.66c35.64,0 180.91,7.74 186.11,23.56l0 0c0,12.95 -10.6,23.55 -23.55,23.55l-162.56 0c-12.96,0 -23.55,-10.6 -23.55,-23.55l0 0c0,-12.96 10.6,-23.56 23.55,-23.56z"/>
  <path class="fil1" d="M143.11 434.46c98.32,33.06 194.39,30.24 288.74,0 24.42,-7.83 46.63,20.98 46.63,46.63l0 497.65c0,25.64 -21.9,39.82 -46.63,46.63 -98.18,27.04 -194.52,28.36 -288.74,0 -24.56,-7.39 -46.63,-20.98 -46.63,-46.63l0 -497.65c0,-25.64 22.32,-54.8 46.63,-46.63z"/>
 </g>
</svg>
