<?xml version="1.0" encoding="UTF-8"?>
<!DOCTYPE svg PUBLIC "-//W3C//DTD SVG 1.1//EN" "http://www.w3.org/Graphics/SVG/1.1/DTD/svg11.dtd">
<!-- Creator: CorelDRAW -->
<svg xmlns="http://www.w3.org/2000/svg" xml:space="preserve" width="27.7826mm" height="33.4812mm" version="1.1" style="shape-rendering:geometricPrecision; text-rendering:geometricPrecision; image-rendering:optimizeQuality; fill-rule:evenodd; clip-rule:evenodd"
viewBox="0 0 298.36 359.56"
 xmlns:xlink="http://www.w3.org/1999/xlink"
 xmlns:xodm="http://www.corel.com/coreldraw/odm/2003">
 <defs>
  <style type="text/css">
   <![CDATA[
    .str1 {stroke:#C0D2C6;stroke-width:5.68;stroke-miterlimit:22.9256}
    .str0 {stroke:#C0D2C6;stroke-width:3.79;stroke-miterlimit:22.9256}
    .fil1 {fill:none}
    .fil0 {fill:#3D6A70}
    .fil3 {fill:#A0BFA7}
    .fil2 {fill:#C0D2C6}
   ]]>
  </style>
 </defs>
 <g id="Camada_x0020_1">
  <metadata id="CorelCorpID_0Corel-Layer"/>
  <g id="_2216774413520">
   <g>
    <path class="fil0 str0" d="M165.27 2.36c71.94,-5.98 138.05,45.2 130.66,111.27 -6.89,61.58 -74.46,93.57 -137.76,78.41 -52.05,-12.47 -88.36,-54.61 -88.93,-97.81 -0.6,-45.34 38.14,-87.05 96.03,-91.87z"/>
    <path class="fil0 str0" d="M162.29 22.77c56.33,-4.31 107.48,36.04 101.62,87.52 -5.45,47.9 -57.8,73.15 -107.23,61.65 -41.01,-9.54 -69.85,-42.65 -70.36,-76.82 -0.54,-35.94 30.23,-68.86 75.97,-72.36z"/>
    <line class="fil1 str1" x1="114.17" y1="86.08" x2="171.1" y2= "55.98" />
    <line class="fil1 str1" x1="114.57" y1="118.25" x2="171.7" y2= "88.58" />
    <line class="fil1 str1" x1="165.85" y1="134.23" x2="224.95" y2= "104.25" />
    <line class="fil1 str1" x1="187.64" y1="79.18" x2="209.11" y2= "68.02" />
   </g>
   <path class="fil0 str0" d="M119.74 188.38c14.5,0 36.62,3.01 49.53,6.22 47.55,11.82 78.43,40.3 78.43,77.47 0,47.27 -55.03,85.59 -122.9,85.59 -67.88,0 -122.9,-38.32 -122.9,-85.59 0,-47.27 49.97,-83.7 117.85,-83.7z"/>
   <path class="fil0 str0" d="M120.98 200.1c52.1,0 94.34,29.41 94.34,65.7 0,36.29 -42.24,65.7 -94.34,65.7 -52.1,0 -94.34,-29.41 -94.34,-65.7 0,-36.29 42.24,-65.7 94.34,-65.7z"/>
   <path class="fil2" d="M141.27 181.24l52.82 11.31c2.46,0.53 -3.13,-1.21 -4.64,3.28 -1.58,4.67 5.22,6.73 2.62,6.18l-52.82 -11.31c-2.6,-0.56 -4.27,-3.14 -3.71,-5.74l0 0c0.56,-2.6 3.14,-4.27 5.74,-3.71z"/>
   <path class="fil3" d="M192.43 191.81c0.68,0.2 1.46,3.02 0.68,5.71 -0.78,2.69 -2.82,4.24 -3.51,4.04 -0.68,-0.2 -1.94,-2.54 -1.16,-5.23 0.78,-2.69 3.3,-4.71 3.98,-4.51z"/>
   <path class="fil2" d="M180.34 285.99c24.85,8.14 -15.43,30.65 -62.74,30.65 -43,0 -77.85,-24.27 -77.85,-54.22 0,-9.34 3.19,-21.45 7.67,-19.98l132.92 43.55z"/>
   <path class="fil2" d="M120.98 209.29c22.41,0 18.37,-0.14 7.05,13.72l-22.46 27.51 -45.59 -14.58c-20,-6.4 32.87,-26.64 61,-26.64z"/>
   <path class="fil2" d="M151.01 213.11c-5.83,-1.12 -10.14,3.9 -14.47,10.11l-21.59 30.97 74.97 26.52c18.12,6.41 12.43,-54.14 -38.91,-67.6z"/>
  </g>
 </g>
</svg>
