<?xml version="1.0" encoding="UTF-8"?>
<!DOCTYPE svg PUBLIC "-//W3C//DTD SVG 1.1//EN" "http://www.w3.org/Graphics/SVG/1.1/DTD/svg11.dtd">
<!-- Creator: CorelDRAW -->
<svg xmlns="http://www.w3.org/2000/svg" xml:space="preserve" width="6.6277mm" height="6.6157mm" version="1.1" style="shape-rendering:geometricPrecision; text-rendering:geometricPrecision; image-rendering:optimizeQuality; fill-rule:evenodd; clip-rule:evenodd"
viewBox="0 0 12.37 12.34"
 xmlns:xlink="http://www.w3.org/1999/xlink"
 xmlns:xodm="http://www.corel.com/coreldraw/odm/2003">
 <defs>
  <style type="text/css">
   <![CDATA[
    .fil0 {fill:#111945}
   ]]>
  </style>
 </defs>
 <g id="Camada_x0020_1">
  <metadata id="CorelCorpID_0Corel-Layer"/>
  <g id="_2405574242992">
   <path class="fil0" d="M6.19 3.02c-0.11,0 -0.22,0.01 -0.32,0.02 -0.11,0.01 -0.21,0.03 -0.31,0.05 -0.1,0.02 -0.2,0.05 -0.3,0.08l-0.29 0.11 -0.28 0.13 -0.26 0.16 -0.24 0.18 -0.22 0.2 -0.2 0.22 -0.18 0.24 -0.16 0.26 -0.13 0.28c-0.04,0.09 -0.08,0.19 -0.11,0.29 -0.03,0.1 -0.06,0.2 -0.08,0.3 -0.02,0.1 -0.04,0.21 -0.05,0.31 -0.01,0.11 -0.02,0.21 -0.02,0.32 0,0.11 0.01,0.22 0.02,0.32 0.01,0.11 0.03,0.21 0.05,0.31 0.02,0.1 0.05,0.2 0.08,0.3 0.03,0.1 0.07,0.2 0.11,0.29l0.13 0.28 0.16 0.26 0.18 0.24 0.2 0.22 0.22 0.2 0.24 0.18 0.26 0.16 0.28 0.13 0.29 0.11 0.3 0.08c0.1,0.02 0.21,0.04 0.31,0.05 0.11,0.01 0.21,0.02 0.32,0.02 0.11,0 0.22,-0.01 0.32,-0.02 0.11,-0.01 0.21,-0.03 0.31,-0.05l0.3 -0.08 0.29 -0.11 0.28 -0.13 0.26 -0.16 0.24 -0.18 0.22 -0.2 0.2 -0.22 0.18 -0.24 0.16 -0.26 0.13 -0.28 0.11 -0.29c0.03,-0.1 0.06,-0.2 0.08,-0.3l0.05 -0.31c0.01,-0.11 0.02,-0.21 0.02,-0.32 0,-0.11 -0.01,-0.22 -0.02,-0.32 -0.01,-0.11 -0.03,-0.21 -0.05,-0.31 -0.02,-0.1 -0.05,-0.2 -0.08,-0.3l-0.11 -0.29 -0.13 -0.28 -0.16 -0.26 -0.18 -0.24 -0.2 -0.22 -0.22 -0.2 -0.24 -0.18 -0.26 -0.16 -0.28 -0.13 -0.29 -0.11 -0.3 -0.08 -0.31 -0.05c-0.11,-0.01 -0.21,-0.02 -0.32,-0.02l0 0zm0 1.09c0.07,0 0.14,0 0.21,0.01l0.21 0.03 0.2 0.05 0.19 0.07 0.18 0.09 0.17 0.1 0.16 0.12 0.15 0.13 0.13 0.15 0.12 0.16 0.1 0.17 0.09 0.18c0.03,0.06 0.05,0.13 0.07,0.19 0.02,0.06 0.04,0.13 0.05,0.2 0.01,0.07 0.02,0.14 0.03,0.21l0.01 0.21c0,0.07 -0,0.14 -0.01,0.21 -0.01,0.07 -0.02,0.14 -0.03,0.21 -0.01,0.07 -0.03,0.13 -0.05,0.2l-0.07 0.19 -0.09 0.18 -0.1 0.17 -0.12 0.16 -0.13 0.15 -0.15 0.13 -0.16 0.12 -0.17 0.1 -0.18 0.09 -0.19 0.07 -0.2 0.05 -0.21 0.03c-0.07,0.01 -0.14,0.01 -0.21,0.01 -0.07,0 -0.14,-0 -0.21,-0.01l-0.21 -0.03c-0.07,-0.01 -0.13,-0.03 -0.2,-0.05l-0.19 -0.07 -0.18 -0.09 -0.17 -0.1 -0.16 -0.12 -0.15 -0.13 -0.13 -0.15 -0.12 -0.16 -0.1 -0.17 -0.09 -0.18 -0.07 -0.19 -0.05 -0.2 -0.03 -0.21c-0.01,-0.07 -0.01,-0.14 -0.01,-0.21 0,-0.07 0,-0.14 0.01,-0.21 0.01,-0.07 0.02,-0.14 0.03,-0.21 0.01,-0.07 0.03,-0.13 0.05,-0.2l0.07 -0.19 0.09 -0.18 0.1 -0.17 0.12 -0.16 0.13 -0.15 0.15 -0.13 0.16 -0.12 0.17 -0.1 0.18 -0.09c0.06,-0.03 0.13,-0.05 0.19,-0.07l0.2 -0.05c0.07,-0.01 0.14,-0.02 0.21,-0.03 0.07,-0.01 0.14,-0.01 0.21,-0.01l-0 0z"/>
   <path class="fil0" d="M9.48 2.12c-0.03,0 -0.05,0 -0.08,0 -0.03,0 -0.05,0.01 -0.07,0.01 -0.02,0 -0.05,0.01 -0.07,0.02 -0.02,0.01 -0.05,0.02 -0.07,0.03 -0.02,0.01 -0.05,0.02 -0.07,0.03 -0.02,0.01 -0.04,0.03 -0.06,0.04 -0.02,0.01 -0.04,0.03 -0.06,0.05 -0.02,0.02 -0.04,0.03 -0.06,0.05 -0.02,0.02 -0.03,0.04 -0.05,0.06 -0.02,0.02 -0.03,0.04 -0.04,0.06 -0.01,0.02 -0.03,0.04 -0.04,0.07 -0.01,0.02 -0.02,0.05 -0.03,0.07 -0.01,0.02 -0.02,0.05 -0.02,0.07 -0.01,0.02 -0.01,0.05 -0.02,0.07 -0,0.02 -0.01,0.05 -0.01,0.08 -0,0.02 -0,0.04 -0,0.05 0,0.03 0,0.05 0,0.08 0,0.03 0.01,0.05 0.01,0.08 0.01,0.02 0.01,0.05 0.02,0.07 0.01,0.02 0.02,0.05 0.03,0.07 0.01,0.02 0.02,0.05 0.03,0.07 0.01,0.02 0.03,0.04 0.04,0.06 0.01,0.02 0.03,0.04 0.05,0.06 0.02,0.02 0.03,0.04 0.05,0.06 0.02,0.02 0.04,0.03 0.06,0.05 0.02,0.02 0.04,0.03 0.06,0.04 0.02,0.01 0.04,0.03 0.07,0.04 0.02,0.01 0.05,0.02 0.07,0.03 0.02,0.01 0.05,0.02 0.07,0.02 0.02,0.01 0.05,0.01 0.07,0.02 0.02,0 0.05,0.01 0.07,0.01 0.02,0 0.04,0 0.05,0 0.03,0 0.05,-0 0.08,-0 0.03,-0 0.05,-0.01 0.07,-0.01 0.02,-0.01 0.05,-0.01 0.07,-0.02 0.02,-0.01 0.05,-0.02 0.07,-0.03 0.02,-0.01 0.05,-0.02 0.07,-0.03 0.02,-0.01 0.04,-0.03 0.06,-0.04 0.02,-0.01 0.04,-0.03 0.06,-0.05 0.02,-0.02 0.04,-0.03 0.06,-0.05 0.02,-0.02 0.03,-0.04 0.05,-0.06 0.02,-0.02 0.03,-0.04 0.04,-0.06 0.01,-0.02 0.03,-0.04 0.04,-0.07 0.01,-0.02 0.02,-0.05 0.03,-0.07 0.01,-0.02 0.02,-0.05 0.02,-0.07 0.01,-0.02 0.01,-0.05 0.02,-0.07 0,-0.02 0.01,-0.05 0.01,-0.08 0,-0.02 0,-0.04 0,-0.05 0,-0.03 -0,-0.05 -0,-0.08 -0,-0.03 -0.01,-0.05 -0.01,-0.07 -0,-0.02 -0.01,-0.05 -0.02,-0.07 -0.01,-0.02 -0.02,-0.05 -0.03,-0.07 -0.01,-0.02 -0.02,-0.05 -0.03,-0.07 -0.01,-0.02 -0.03,-0.04 -0.04,-0.06 -0.01,-0.02 -0.03,-0.04 -0.05,-0.06 -0.02,-0.02 -0.03,-0.04 -0.05,-0.06 -0.02,-0.02 -0.04,-0.03 -0.06,-0.05 -0.02,-0.02 -0.04,-0.03 -0.06,-0.04 -0.02,-0.01 -0.04,-0.03 -0.07,-0.04 -0.02,-0.01 -0.05,-0.02 -0.07,-0.03 -0.02,-0.01 -0.05,-0.02 -0.07,-0.02 -0.02,-0.01 -0.05,-0.01 -0.07,-0.02 -0.02,-0 -0.05,-0.01 -0.07,-0.01 -0.02,-0 -0.04,-0 -0.05,-0l0 -0z"/>
   <path class="fil0" d="M5.59 0c-0.34,-0 -0.65,0 -0.93,0l-0.74 0.02c-0.22,0.01 -0.41,0.02 -0.59,0.04 -0.09,0.01 -0.17,0.02 -0.25,0.03 -0.07,0.01 -0.15,0.02 -0.22,0.03 -0.07,0.01 -0.14,0.02 -0.2,0.04 -0.06,0.01 -0.12,0.03 -0.18,0.05 -0.06,0.02 -0.11,0.03 -0.17,0.05 -0.06,0.02 -0.11,0.04 -0.16,0.06 -0.11,0.04 -0.21,0.09 -0.32,0.14 -0.08,0.04 -0.16,0.08 -0.23,0.13 -0.07,0.04 -0.14,0.09 -0.21,0.14 -0.07,0.05 -0.14,0.11 -0.2,0.17 -0.07,0.06 -0.13,0.13 -0.21,0.2 -0.09,0.09 -0.17,0.18 -0.23,0.27 -0.03,0.04 -0.07,0.08 -0.1,0.13 -0.03,0.04 -0.06,0.08 -0.09,0.13 -0.03,0.04 -0.05,0.09 -0.08,0.13 -0.02,0.05 -0.05,0.09 -0.07,0.14 -0.05,0.1 -0.09,0.2 -0.13,0.32 -0.03,0.09 -0.06,0.17 -0.08,0.26 -0.03,0.09 -0.05,0.18 -0.07,0.29 -0.02,0.1 -0.04,0.21 -0.05,0.33 -0.02,0.13 -0.03,0.27 -0.04,0.4 -0.01,0.15 -0.02,0.31 -0.03,0.49l-0.02 0.6 -0.01 0.73 -0 0.88 0.01 1.28 0.03 0.97 0.02 0.38 0.02 0.31c0.01,0.08 0.02,0.17 0.03,0.25 0.01,0.07 0.02,0.14 0.03,0.2 0.03,0.12 0.05,0.23 0.09,0.34 0.03,0.11 0.07,0.21 0.11,0.32 0.04,0.1 0.09,0.2 0.14,0.3 0.05,0.1 0.1,0.19 0.16,0.27 0.06,0.09 0.12,0.17 0.18,0.25 0.07,0.08 0.13,0.16 0.21,0.23 0.07,0.07 0.15,0.14 0.23,0.21 0.08,0.07 0.17,0.13 0.26,0.19 0.08,0.05 0.16,0.11 0.25,0.15 0.08,0.05 0.16,0.09 0.25,0.13 0.08,0.04 0.17,0.07 0.26,0.1 0.09,0.03 0.19,0.06 0.29,0.08 0.1,0.02 0.21,0.05 0.32,0.06 0.11,0.02 0.23,0.03 0.36,0.05 0.13,0.01 0.26,0.03 0.41,0.03 0.15,0.01 0.3,0.02 0.47,0.02 0.26,0.01 0.65,0.01 1.11,0.02l1.47 -0 1.39 -0.02 0.53 -0.01 0.35 -0.02c0.07,-0.01 0.15,-0.01 0.22,-0.02 0.07,-0.01 0.14,-0.02 0.21,-0.03 0.07,-0.01 0.13,-0.02 0.2,-0.04 0.06,-0.01 0.13,-0.03 0.19,-0.04 0.06,-0.02 0.12,-0.03 0.18,-0.05 0.06,-0.02 0.12,-0.04 0.18,-0.06 0.06,-0.02 0.12,-0.05 0.18,-0.07 0.06,-0.03 0.12,-0.05 0.18,-0.08 0.09,-0.04 0.17,-0.08 0.23,-0.12 0.06,-0.03 0.12,-0.07 0.18,-0.11 0.06,-0.04 0.11,-0.09 0.17,-0.15 0.06,-0.06 0.14,-0.13 0.22,-0.22 0.08,-0.08 0.14,-0.15 0.2,-0.21 0.06,-0.06 0.1,-0.12 0.15,-0.17 0.04,-0.05 0.08,-0.1 0.11,-0.16 0.03,-0.05 0.06,-0.11 0.1,-0.17 0.05,-0.09 0.09,-0.18 0.13,-0.26 0.04,-0.08 0.07,-0.16 0.1,-0.24 0.03,-0.08 0.06,-0.16 0.08,-0.25 0.02,-0.09 0.04,-0.18 0.06,-0.28 0.02,-0.1 0.03,-0.21 0.04,-0.33 0.01,-0.12 0.02,-0.26 0.03,-0.41l0.02 -0.51 0.02 -0.63 0.01 -0.71 0.01 -0.74 -0.01 -1.45 -0.02 -0.65 -0.02 -0.56 -0.03 -0.43c-0.01,-0.12 -0.02,-0.22 -0.04,-0.28 -0.01,-0.07 -0.03,-0.14 -0.05,-0.21 -0.02,-0.07 -0.03,-0.14 -0.05,-0.2 -0.02,-0.07 -0.04,-0.13 -0.06,-0.2 -0.02,-0.06 -0.05,-0.13 -0.07,-0.19 -0.02,-0.06 -0.05,-0.12 -0.08,-0.18 -0.03,-0.06 -0.06,-0.12 -0.09,-0.17 -0.03,-0.06 -0.06,-0.11 -0.1,-0.16 -0.03,-0.05 -0.07,-0.1 -0.11,-0.16 -0.04,-0.05 -0.07,-0.1 -0.11,-0.15 -0.04,-0.05 -0.08,-0.09 -0.12,-0.14 -0.04,-0.04 -0.09,-0.09 -0.13,-0.13 -0.04,-0.04 -0.09,-0.08 -0.14,-0.12 -0.05,-0.04 -0.1,-0.08 -0.15,-0.11 -0.05,-0.04 -0.1,-0.07 -0.16,-0.11 -0.05,-0.03 -0.11,-0.07 -0.16,-0.1 -0.06,-0.03 -0.11,-0.06 -0.17,-0.09 -0.1,-0.05 -0.19,-0.09 -0.27,-0.13 -0.09,-0.04 -0.17,-0.07 -0.26,-0.1 -0.09,-0.03 -0.18,-0.05 -0.29,-0.07 -0.1,-0.02 -0.22,-0.04 -0.34,-0.05 -0.13,-0.01 -0.27,-0.03 -0.43,-0.04 -0.16,-0.01 -0.34,-0.02 -0.55,-0.02l-0.71 -0.02 -0.9 -0.01 -1.15 -0.01 -0 0zm0.6 1.09l1.66 0.01 0.62 0.01c0.17,0 0.3,0.01 0.38,0.02 0.1,0.01 0.2,0.02 0.29,0.03 0.09,0.01 0.17,0.03 0.26,0.05 0.08,0.02 0.16,0.04 0.24,0.06 0.08,0.02 0.15,0.05 0.22,0.08 0.07,0.03 0.14,0.06 0.2,0.09 0.06,0.03 0.13,0.07 0.19,0.11 0.06,0.04 0.12,0.08 0.17,0.13 0.06,0.05 0.11,0.09 0.16,0.15 0.06,0.06 0.11,0.11 0.15,0.17 0.05,0.06 0.09,0.12 0.13,0.18 0.04,0.06 0.08,0.13 0.11,0.2 0.03,0.07 0.06,0.14 0.09,0.22 0.03,0.08 0.05,0.16 0.07,0.25 0.02,0.09 0.04,0.19 0.06,0.28 0.02,0.1 0.03,0.21 0.04,0.33 0.01,0.12 0.02,0.24 0.03,0.37 0.01,0.11 0.01,0.25 0.02,0.41l0.01 0.56 0.01 1.38 -0.01 1.38 -0.01 0.56 -0.02 0.41c-0.01,0.19 -0.02,0.35 -0.04,0.49 -0.01,0.07 -0.02,0.13 -0.02,0.2 -0.01,0.06 -0.02,0.11 -0.03,0.17 -0.01,0.05 -0.02,0.1 -0.04,0.15 -0.01,0.05 -0.03,0.1 -0.04,0.14 -0.02,0.05 -0.03,0.1 -0.05,0.14 -0.02,0.05 -0.04,0.1 -0.06,0.15 -0.02,0.04 -0.04,0.09 -0.06,0.13 -0.02,0.04 -0.05,0.08 -0.07,0.12 -0.02,0.04 -0.05,0.08 -0.08,0.11 -0.03,0.04 -0.05,0.07 -0.08,0.11 -0.03,0.03 -0.06,0.07 -0.09,0.1 -0.03,0.03 -0.06,0.06 -0.1,0.09 -0.03,0.03 -0.07,0.06 -0.11,0.09 -0.04,0.03 -0.07,0.05 -0.11,0.08 -0.04,0.03 -0.08,0.05 -0.12,0.07 -0.04,0.02 -0.08,0.05 -0.13,0.07 -0.05,0.02 -0.09,0.04 -0.14,0.06 -0.05,0.02 -0.1,0.04 -0.14,0.05 -0.1,0.03 -0.2,0.06 -0.31,0.09 -0.11,0.03 -0.23,0.05 -0.35,0.06 -0.04,0.01 -0.15,0.01 -0.29,0.02l-0.56 0.02 -1.59 0.02 -1.67 0 -0.65 -0.01 -0.43 -0.01 -0.31 -0.02c-0.1,-0.01 -0.19,-0.02 -0.27,-0.03 -0.08,-0.01 -0.16,-0.02 -0.24,-0.03 -0.07,-0.01 -0.14,-0.03 -0.21,-0.04 -0.06,-0.02 -0.13,-0.03 -0.19,-0.05 -0.06,-0.02 -0.12,-0.04 -0.17,-0.07 -0.06,-0.02 -0.11,-0.05 -0.16,-0.08 -0.05,-0.03 -0.11,-0.06 -0.16,-0.09 -0.04,-0.03 -0.08,-0.05 -0.12,-0.08 -0.04,-0.03 -0.07,-0.05 -0.11,-0.08 -0.03,-0.03 -0.07,-0.06 -0.1,-0.09 -0.03,-0.03 -0.06,-0.06 -0.09,-0.09 -0.03,-0.03 -0.06,-0.07 -0.09,-0.1 -0.03,-0.03 -0.05,-0.07 -0.08,-0.11 -0.03,-0.04 -0.05,-0.08 -0.07,-0.11 -0.02,-0.04 -0.04,-0.08 -0.06,-0.12 -0.02,-0.04 -0.04,-0.09 -0.06,-0.13 -0.02,-0.04 -0.04,-0.09 -0.05,-0.14 -0.03,-0.1 -0.06,-0.2 -0.09,-0.3 -0.02,-0.11 -0.05,-0.22 -0.06,-0.35 -0.02,-0.12 -0.03,-0.25 -0.04,-0.39 -0.01,-0.1 -0.02,-0.26 -0.02,-0.46l-0.01 -0.71 0 -1.81 0.03 -1.73 0.02 -0.61 0.01 -0.2c0,-0.05 0.01,-0.09 0.01,-0.12 0.02,-0.08 0.03,-0.15 0.05,-0.22 0.02,-0.06 0.03,-0.13 0.05,-0.19 0.02,-0.06 0.04,-0.12 0.06,-0.17 0.02,-0.05 0.04,-0.1 0.07,-0.15 0.02,-0.05 0.05,-0.09 0.08,-0.14 0.03,-0.04 0.06,-0.09 0.09,-0.13 0.03,-0.04 0.07,-0.09 0.11,-0.13 0.04,-0.04 0.08,-0.09 0.13,-0.13 0.05,-0.05 0.11,-0.1 0.16,-0.15 0.05,-0.05 0.11,-0.09 0.17,-0.13 0.06,-0.04 0.12,-0.08 0.18,-0.11 0.06,-0.03 0.12,-0.06 0.19,-0.09 0.07,-0.03 0.14,-0.05 0.21,-0.07 0.08,-0.02 0.16,-0.04 0.24,-0.06 0.08,-0.02 0.17,-0.03 0.27,-0.04 0.09,-0.01 0.2,-0.02 0.3,-0.03 0.08,-0.01 0.21,-0.01 0.38,-0.02l0.62 -0.01 1.65 -0.01 -0 0z"/>
  </g>
 </g>
</svg>
