<?xml version="1.0" encoding="UTF-8"?>
<!DOCTYPE svg PUBLIC "-//W3C//DTD SVG 1.1//EN" "http://www.w3.org/Graphics/SVG/1.1/DTD/svg11.dtd">
<!-- Creator: CorelDRAW -->
<svg xmlns="http://www.w3.org/2000/svg" xml:space="preserve" width="53.7481mm" height="34.7064mm" version="1.1" style="shape-rendering:geometricPrecision; text-rendering:geometricPrecision; image-rendering:optimizeQuality; fill-rule:evenodd; clip-rule:evenodd"
viewBox="0 0 744.69 480.86"
 xmlns:xlink="http://www.w3.org/1999/xlink"
 xmlns:xodm="http://www.corel.com/coreldraw/odm/2003">
 <defs>
  <style type="text/css">
   <![CDATA[
    .fil1 {fill:#A6B1E7}
    .fil0 {fill:#D3E459;fill-rule:nonzero}
   ]]>
  </style>
 </defs>
 <g id="Camada_x0020_1">
  <metadata id="CorelCorpID_0Corel-Layer"/>
  <path class="fil0" d="M142.35 146.02c-7.83,0.3 -16.04,3.84 -24.63,10.62 -8.59,6.78 -16.87,15.59 -24.85,26.44 -7.98,10.85 -15.29,23.05 -21.92,36.61 -6.63,13.56 -11.97,27.26 -16.04,41.12 -4.07,13.86 -6.55,27.26 -7.46,40.22 -0.9,12.95 0.45,24.1 4.07,33.44 2.71,7.23 8.13,11.98 16.27,14.24 8.13,2.26 16.27,0.83 24.4,-4.29 -0.9,4.52 -4.07,8.29 -9.49,11.3 -5.42,3.01 -11.75,5.05 -18.98,6.1 -7.23,1.05 -14.91,0.83 -23.05,-0.68 -8.13,-1.51 -15.44,-4.67 -21.92,-9.49 -6.48,-4.82 -11.52,-11.45 -15.14,-19.88 -3.62,-8.43 -4.52,-19.13 -2.71,-32.08 2.41,-18.98 7.68,-38.79 15.82,-59.43 8.13,-20.64 18.53,-39.54 31.18,-56.71 12.65,-17.17 27.26,-31.41 43.83,-42.71 16.57,-11.3 34.5,-17.1 53.78,-17.4 12.35,0 22.29,2.41 29.83,7.23 7.53,4.82 13.33,11.37 17.4,19.66 4.07,8.28 6.63,17.85 7.68,28.7 1.05,10.85 1.21,22.29 0.45,34.34 -0.75,12.05 -2.03,24.18 -3.84,36.38 -1.81,12.2 -3.61,23.72 -5.42,34.57 -0.9,6.33 -2.18,14.01 -3.84,23.05 -1.66,9.04 -3.31,18.75 -4.97,29.15 -1.66,10.39 -3.09,20.86 -4.29,31.41 -1.21,10.54 -1.88,20.26 -2.03,29.15 -0.15,8.89 0.45,16.65 1.81,23.27 1.36,6.63 3.69,11.15 7.01,13.56 33.74,-84.35 64.02,-153.8 90.83,-208.33 26.81,-54.53 51.97,-94.6 75.47,-120.21 6.33,-6.93 13.78,-12.28 22.37,-16.04 8.59,-3.77 17.4,-6.18 26.44,-7.23 9.04,-1.05 17.77,-1.05 26.21,0 8.44,1.05 15.59,2.86 21.47,5.42 5.87,2.56 10.09,5.87 12.65,9.94 2.56,4.07 2.49,8.36 -0.23,12.88 -1.51,-3.31 -4.22,-5.72 -8.13,-7.23 -3.92,-1.51 -8.51,-1.96 -13.78,-1.36 -5.27,0.6 -11,2.41 -17.17,5.42 -6.18,3.01 -12.28,7.23 -18.3,12.65 -12.05,10.85 -24.33,25.16 -36.83,42.93 -12.5,17.77 -25,37.51 -37.51,59.2 -12.5,21.69 -24.71,44.51 -36.61,68.46 -11.9,23.95 -23.12,47.45 -33.67,70.5 -10.54,23.05 -20.26,44.89 -29.15,65.53 -8.89,20.64 -16.49,38.64 -22.82,54 -6.93,0.9 -14.16,0.38 -21.69,-1.58 -7.53,-1.96 -14.61,-4.97 -21.24,-9.04 -6.63,-4.07 -12.58,-8.89 -17.85,-14.46 -5.27,-5.57 -9.11,-11.52 -11.52,-17.85 -1.81,-4.22 -2.79,-10.47 -2.94,-18.75 -0.15,-8.29 0.15,-17.62 0.9,-28.02 0.75,-10.39 1.88,-21.39 3.39,-32.99 1.51,-11.6 3.16,-23.05 4.97,-34.35 1.81,-11.3 3.54,-21.99 5.2,-32.08 1.66,-10.09 3.09,-18.6 4.29,-25.53 2.41,-12.95 4.75,-26.59 7,-40.9 2.26,-14.31 3.47,-27.34 3.62,-39.09 0.15,-11.75 -1.05,-21.39 -3.62,-28.92 -2.56,-7.53 -7.46,-11.15 -14.69,-10.85zm269.34 154.1c1.51,-2.11 3.31,-3.24 5.42,-3.39 2.11,-0.15 3.99,0.23 5.65,1.13 1.66,0.9 3.01,2.11 4.07,3.61 1.05,1.51 1.13,3.01 0.23,4.52 -3.31,6.93 -8.13,15.97 -14.46,27.11 -6.33,11.15 -13.26,22.29 -20.79,33.44 -7.53,11.15 -15.29,21.24 -23.27,30.28 -7.98,9.04 -15.14,14.91 -21.47,17.62 -3.92,1.51 -8.43,1.96 -13.56,1.36 -5.12,-0.6 -9.94,-2.03 -14.46,-4.29 -4.52,-2.26 -8.28,-5.27 -11.3,-9.04 -3.01,-3.77 -4.37,-8.06 -4.07,-12.88 0.3,-6.02 1.58,-14.08 3.84,-24.18 2.26,-10.09 5.27,-20.79 9.04,-32.09 3.77,-11.3 7.91,-22.44 12.43,-33.44 4.52,-11 9.19,-20.41 14.01,-28.24 1.51,-2.41 4.59,-3.62 9.26,-3.62 4.67,0 9.26,0.9 13.78,2.71 4.52,1.81 8.29,4.22 11.3,7.23 3.01,3.01 3.77,6.18 2.26,9.49 -14.16,27.11 -23.8,48.28 -28.92,63.49 -5.12,15.21 -6.78,25.08 -4.97,29.6 1.21,3.31 3.77,3.69 7.68,1.13 3.92,-2.56 8.81,-7.46 14.69,-14.69 5.87,-7.23 12.58,-16.57 20.11,-28.02 7.53,-11.45 15.37,-24.4 23.5,-38.86zm-28.47 -47.45c-1.81,2.41 -4.44,3.77 -7.91,4.07 -3.47,0.3 -6.93,-0.07 -10.39,-1.13 -3.47,-1.05 -6.48,-2.64 -9.04,-4.75 -2.56,-2.11 -3.69,-4.37 -3.39,-6.78 0.6,-4.22 1.58,-8.66 2.94,-13.33 1.36,-4.67 2.79,-9.04 4.29,-13.11 1.51,-4.07 3.01,-7.76 4.52,-11.07 1.51,-3.31 2.71,-5.87 3.61,-7.68 1.81,-2.71 5.12,-4.14 9.94,-4.29 4.82,-0.15 9.56,0.68 14.23,2.49 4.67,1.81 8.51,4.22 11.52,7.23 3.01,3.01 3.61,6.03 1.81,9.04 -0.9,1.81 -2.34,4.44 -4.29,7.91 -1.96,3.47 -3.99,7.08 -6.1,10.85 -2.11,3.77 -4.22,7.46 -6.33,11.07 -2.11,3.62 -3.92,6.78 -5.42,9.49zm96.26 -24.85c5.42,-2.41 11.52,-2.18 18.3,0.68 6.78,2.86 12.73,7.61 17.85,14.23 5.12,6.63 8.89,14.69 11.3,24.18 2.41,9.49 2.11,19.36 -0.9,29.6 -3.31,10.85 -8.13,22.97 -14.46,36.38 -6.33,13.41 -13.33,26.51 -21.01,39.32 -7.68,12.8 -15.52,24.48 -23.5,35.02 -7.98,10.54 -15.29,18.23 -21.92,23.05 -3.61,2.71 -8.43,4.29 -14.46,4.75 -6.03,0.45 -11.97,0 -17.85,-1.36 -5.87,-1.36 -11.07,-3.69 -15.59,-7 -4.52,-3.31 -7.23,-7.38 -8.13,-12.2 -0.9,-5.42 -1.05,-12.35 -0.45,-20.79 0.6,-8.44 1.73,-17.55 3.39,-27.34 1.66,-9.79 3.77,-19.66 6.33,-29.6 2.56,-9.94 5.12,-19.21 7.68,-27.79 2.56,-8.59 5.05,-15.82 7.46,-21.69 2.41,-5.87 4.52,-9.72 6.33,-11.52 2.11,-2.11 5.27,-2.94 9.49,-2.49 4.22,0.45 8.29,1.58 12.2,3.39 3.92,1.81 7.23,3.99 9.94,6.55 2.71,2.56 3.62,4.9 2.71,7 -2.11,4.22 -4.82,11.52 -8.13,21.92 -3.31,10.39 -6.55,21.47 -9.72,33.21 -3.16,11.75 -5.87,23.05 -8.13,33.89 -2.26,10.85 -3.24,18.83 -2.94,23.95 1.51,-0.3 5.12,-3.92 10.85,-10.85 5.72,-6.93 12.05,-15.74 18.98,-26.44 6.93,-10.69 13.78,-22.67 20.56,-35.93 6.78,-13.26 11.9,-26.36 15.37,-39.32 3.46,-12.95 4.59,-25 3.39,-36.15 -1.21,-11.15 -6.18,-20.03 -14.91,-26.66zm246.29 59.65c0.9,-1.2 2.64,-1.73 5.2,-1.58 2.56,0.15 4.97,0.83 7.23,2.03 2.26,1.2 4.07,2.79 5.42,4.74 1.36,1.96 1.43,3.99 0.23,6.1 -5.72,9.94 -12.28,21.01 -19.66,33.22 -7.38,12.2 -15.21,24.18 -23.5,35.93 -8.29,11.75 -16.8,22.37 -25.53,31.86 -8.74,9.49 -17.32,16.19 -25.76,20.11 -4.52,2.11 -9.26,2.79 -14.23,2.03 -4.97,-0.75 -9.49,-2.41 -13.56,-4.97 -4.07,-2.56 -7.53,-5.72 -10.39,-9.49 -2.86,-3.77 -4.44,-7.46 -4.74,-11.07 -0.6,-4.82 0,-11.45 1.81,-19.88 1.81,-8.44 3.77,-16.12 5.87,-23.05 -3.61,4.22 -7.46,9.11 -11.52,14.69 -4.07,5.57 -8.51,11.52 -13.33,17.85 -4.82,6.33 -9.87,12.65 -15.14,18.98 -5.27,6.33 -10.77,12.2 -16.49,17.62 -2.71,2.71 -6.85,3.77 -12.43,3.16 -5.57,-0.6 -11.07,-2.18 -16.49,-4.75 -5.42,-2.56 -10.17,-5.87 -14.23,-9.94 -4.07,-4.07 -5.8,-8.36 -5.2,-12.88 0.9,-11.45 3.62,-23.65 8.13,-36.61 4.52,-12.95 10.02,-25.53 16.49,-37.73 6.48,-12.2 13.71,-23.57 21.69,-34.12 7.98,-10.54 15.89,-19.13 23.73,-25.76 5.72,-4.52 11,-7.08 15.82,-7.68 4.82,-0.6 9.49,-0.07 14.01,1.58 4.52,1.66 9.04,4.07 13.56,7.23 4.52,3.16 9.34,6.25 14.46,9.26 3.31,-3.62 6.55,-7.46 9.72,-11.52 3.16,-4.07 6.55,-8.06 10.17,-11.97 2.11,-2.71 5.5,-3.77 10.17,-3.16 4.67,0.6 9.11,2.26 13.33,4.97 4.22,2.71 7.61,5.95 10.17,9.72 2.56,3.77 2.79,7.31 0.68,10.62 -10.24,17.47 -18.45,32.99 -24.63,46.55 -6.18,13.56 -10.7,25.01 -13.56,34.34 -2.86,9.34 -4.22,16.42 -4.07,21.24 0.15,4.82 1.28,7.23 3.39,7.23 6.03,-0.3 15.21,-8.44 27.57,-24.4 12.35,-15.97 27.57,-39.47 45.64,-70.5zm-109.81 17.63c0.9,-1.21 1.36,-3.31 1.36,-6.33 0,-3.01 -0.53,-5.8 -1.58,-8.36 -1.05,-2.56 -2.64,-4.14 -4.75,-4.74 -2.11,-0.6 -4.82,0.9 -8.13,4.52 -6.93,6.63 -13.33,14.46 -19.21,23.5 -5.87,9.04 -11,17.93 -15.36,26.66 -4.37,8.74 -7.91,16.8 -10.62,24.18 -2.71,7.38 -4.07,12.88 -4.07,16.49 3.31,-2.71 7.76,-7.15 13.33,-13.33 5.57,-6.18 11.37,-13.03 17.4,-20.56 6.02,-7.53 11.9,-15.06 17.62,-22.59 5.72,-7.53 10.39,-14.01 14.01,-19.43z"/>
  <g id="_2216433915728">
   <path class="fil1" d="M459.75 14.94c18.64,-26.13 60.24,-14.94 64.98,10.2 -1.11,17.56 -28.91,63.75 -42.98,65.21 -8.05,0.84 -27.2,-45.49 -22,-75.41z"/>
   <path class="fil1" d="M571.17 44.12c32.1,-0.36 47.6,39.83 30.1,58.49 -14.83,9.46 -68.53,14.27 -78.01,3.76 -5.42,-6 20.68,-48.8 47.91,-62.25z"/>
   <path class="fil1" d="M605.36 164.81c11.61,29.93 -20.58,58.55 -44.19,48.72 -14.07,-10.56 -37.42,-59.16 -30.92,-71.72 3.72,-7.19 52.95,2.23 75.11,22.99z"/>
  </g>
 </g>
</svg>
