<?xml version="1.0" encoding="UTF-8"?>
<!DOCTYPE svg PUBLIC "-//W3C//DTD SVG 1.1//EN" "http://www.w3.org/Graphics/SVG/1.1/DTD/svg11.dtd">
<!-- Creator: CorelDRAW -->
<svg xmlns="http://www.w3.org/2000/svg" xml:space="preserve" width="23.9938mm" height="18.3452mm" version="1.1" style="shape-rendering:geometricPrecision; text-rendering:geometricPrecision; image-rendering:optimizeQuality; fill-rule:evenodd; clip-rule:evenodd"
viewBox="0 0 3816.34 2917.9"
 xmlns:xlink="http://www.w3.org/1999/xlink"
 xmlns:xodm="http://www.corel.com/coreldraw/odm/2003">
 <defs>
  <style type="text/css">
   <![CDATA[
    .fil1 {fill:#A6B1E7}
    .fil0 {fill:#D3E459;fill-rule:nonzero}
   ]]>
  </style>
 </defs>
 <g id="Camada_x0020_1">
  <metadata id="CorelCorpID_0Corel-Layer"/>
  <g id="_2405928140080">
   <path class="fil0" d="M1039.52 472.73c-57.2,2.19 -117.16,28.04 -179.86,77.56 -62.7,49.48 -123.2,113.85 -181.5,193.05 -58.29,79.19 -111.64,168.31 -160.06,267.31 -48.4,99 -87.45,199.09 -117.14,300.31 -29.7,101.19 -47.84,199.09 -54.44,293.7 -6.62,94.59 3.29,176.01 29.7,244.2 19.8,52.81 59.39,87.46 118.8,103.96 59.41,16.49 118.8,6.06 178.21,-31.35 -6.6,33 -29.71,60.5 -69.3,82.5 -39.6,22 -85.81,36.85 -138.6,44.55 -52.81,7.7 -108.91,6.04 -168.31,-4.95 -59.39,-11.01 -112.75,-34.1 -160.06,-69.3 -47.29,-35.2 -84.14,-83.6 -110.54,-145.22 -26.4,-61.59 -33,-139.7 -19.8,-234.29 17.61,-138.62 56.11,-283.26 115.51,-433.97 59.39,-150.7 135.29,-288.75 227.7,-414.15 92.4,-125.42 199.11,-229.36 320.11,-311.86 120.99,-82.5 251.9,-124.86 392.69,-127.05 90.2,0 162.81,17.59 217.81,52.79 55,35.21 97.36,83.06 127.05,143.56 29.7,60.49 48.4,130.35 56.1,209.56 7.7,79.19 8.8,162.79 3.29,250.8 -5.49,88.01 -14.84,176.55 -28.04,265.65 -13.2,89.1 -26.4,173.26 -39.6,252.45 -6.58,46.21 -15.94,102.3 -28.04,168.31 -12.1,65.99 -24.21,136.95 -36.3,212.85 -12.1,75.9 -22.55,152.36 -31.37,229.36 -8.8,77 -13.74,147.95 -14.84,212.85 -1.1,64.91 3.29,121.55 13.2,169.97 9.89,48.38 26.94,81.39 51.15,98.98 246.39,-615.99 467.5,-1123.1 663.31,-1521.32 195.8,-398.21 379.51,-690.81 551.11,-877.83 46.19,-50.6 100.65,-89.64 163.35,-117.14 62.7,-27.5 127.05,-45.09 193.06,-52.79 65.99,-7.7 129.79,-7.7 191.39,0 61.6,7.7 113.85,20.9 156.75,39.59 42.91,18.7 73.71,42.91 92.41,72.61 18.7,29.7 18.15,61.05 -1.65,94.05 -11.01,-24.21 -30.81,-41.8 -59.39,-52.81 -28.6,-10.99 -62.16,-14.3 -100.65,-9.89 -38.51,4.41 -80.31,17.59 -125.42,39.6 -45.09,22 -89.64,52.81 -133.64,92.4 -88.01,79.19 -177.66,183.71 -268.96,313.5 -91.3,129.8 -182.6,273.91 -273.91,432.31 -91.3,158.4 -180.4,325.06 -267.31,499.96 -86.89,174.91 -168.85,346.52 -245.85,514.81 -77,168.3 -147.95,327.8 -212.85,478.5 -64.91,150.7 -120.45,282.16 -166.66,394.36 -50.6,6.6 -103.4,2.75 -158.4,-11.55 -55,-14.3 -106.69,-36.3 -155.09,-65.99 -48.4,-29.71 -91.85,-64.91 -130.36,-105.61 -38.49,-40.7 -66.55,-84.16 -84.16,-130.35 -13.19,-30.81 -20.34,-76.46 -21.44,-136.96 -1.11,-60.5 1.1,-128.69 6.6,-204.59 5.5,-75.92 13.74,-156.21 24.75,-240.91 11.01,-84.71 23.09,-168.31 36.3,-250.81 13.2,-82.5 25.85,-160.6 37.95,-234.3 12.1,-73.71 22.55,-135.85 31.35,-186.46 17.61,-94.59 34.66,-194.14 51.15,-298.64 16.49,-104.5 25.31,-199.66 26.4,-285.46 1.1,-85.81 -7.7,-156.21 -26.4,-211.21 -18.7,-55 -54.44,-81.39 -107.25,-79.19z"/>
   <g>
    <path class="fil1" d="M3555.84 870.41c308.58,91.68 337.91,522.69 114.98,649.55 -170.11,46.71 -698.79,-66.53 -758.49,-195.22 -34.13,-73.59 342.83,-406.18 643.51,-454.33z"/>
    <path class="fil1" d="M3724.29 1945.66c108.01,303.25 -222.69,581.22 -456.63,476.05 -138.09,-109.8 -358.56,-603.49 -289.86,-727.6 39.29,-70.99 530.23,37.19 746.49,251.55z"/>
    <path class="fil1" d="M2920.64 2496.71c-150.83,284.39 -579.15,228.02 -659.47,-15.57 -12.18,-175.99 203.24,-671.9 341.19,-705 78.88,-18.93 330.47,416.31 318.29,720.57z"/>
    <circle class="fil1" transform="matrix(1.57488 -0.424969 0.424969 1.57488 2643.11 1460.65)" r="107.73"/>
   </g>
  </g>
 </g>
</svg>
