<?xml version="1.0" encoding="UTF-8"?>
<!DOCTYPE svg PUBLIC "-//W3C//DTD SVG 1.1//EN" "http://www.w3.org/Graphics/SVG/1.1/DTD/svg11.dtd">
<!-- Creator: CorelDRAW -->
<svg xmlns="http://www.w3.org/2000/svg" xml:space="preserve" width="15.2739mm" height="10.2047mm" version="1.1" style="shape-rendering:geometricPrecision; text-rendering:geometricPrecision; image-rendering:optimizeQuality; fill-rule:evenodd; clip-rule:evenodd"
viewBox="0 0 196.9 131.55"
 xmlns:xlink="http://www.w3.org/1999/xlink"
 xmlns:xodm="http://www.corel.com/coreldraw/odm/2003">
 <defs>
  <style type="text/css">
   <![CDATA[
    .fil0 {fill:#111945}
    .fil1 {fill:#C0D2C6}
   ]]>
  </style>
 </defs>
 <g id="Camada_x0020_1">
  <metadata id="CorelCorpID_0Corel-Layer"/>
  <rect class="fil0" x="0" y="-0" width="196.9" height="131.55" rx="60.19" ry="65.78"/>
  <path class="fil1" d="M99.87 33.33c-12.22,0 -22.13,9.91 -22.13,22.13 0,6.42 2.73,12.2 7.1,16.24l-2.24 2.65 -2.73 -1.19 -16.03 21.59 2.06 1.87 2.49 1.62 17.49 -20.42 -1.43 -2.23 2.01 -2.53c3.72,2.84 8.37,4.54 13.42,4.54 12.22,0 22.13,-9.91 22.13,-22.13 0,-12.22 -9.91,-22.13 -22.13,-22.13zm-11.23 10.89c2.87,-2.87 6.85,-4.65 11.23,-4.65 4.39,0 8.36,1.78 11.23,4.65 2.87,2.87 4.65,6.85 4.65,11.23 0,4.39 -1.78,8.36 -4.65,11.23 -2.87,2.87 -6.85,4.65 -11.23,4.65 -4.39,0 -8.36,-1.78 -11.23,-4.65 -2.87,-2.87 -4.65,-6.85 -4.65,-11.23 0,-4.39 1.78,-8.36 4.65,-11.23z"/>
 </g>
</svg>
