<?xml version="1.0" encoding="UTF-8"?>
<!DOCTYPE svg PUBLIC "-//W3C//DTD SVG 1.1//EN" "http://www.w3.org/Graphics/SVG/1.1/DTD/svg11.dtd">
<!-- Creator: CorelDRAW -->
<svg xmlns="http://www.w3.org/2000/svg" xml:space="preserve" width="5.8257mm" height="6.2503mm" version="1.1" style="shape-rendering:geometricPrecision; text-rendering:geometricPrecision; image-rendering:optimizeQuality; fill-rule:evenodd; clip-rule:evenodd"
viewBox="0 0 497.2 533.44"
 xmlns:xlink="http://www.w3.org/1999/xlink"
 xmlns:xodm="http://www.corel.com/coreldraw/odm/2003">
 <defs>
  <style type="text/css">
   <![CDATA[
    .fil0 {fill:#D3E459}
   ]]>
  </style>
 </defs>
 <g id="Camada_x0020_1">
  <metadata id="CorelCorpID_0Corel-Layer"/>
  <path class="fil0" d="M64.33 164.43l61.5 0 0 82 40.99 0 0 -82 164.02 0 0 82 40.99 0 0 -82 61.51 0c0,112.2 13.67,210.67 13.67,328l-396.35 0c0,-117.33 13.67,-215.8 13.67,-328zm184.49 -123.01c48.75,0 72.48,41.09 82.02,82l-164.02 0c9.53,-40.91 33.27,-82 82,-82zm-122.99 82c-99.79,0 -109.98,-17.21 -109.55,88.61l-13.1 219.27c-3.35,40.26 -10.45,102.13 20.14,102.13l451.03 0c40.86,0 14.57,-141.01 13.93,-205.27 -0.43,-40.99 -7.46,-60.84 -6.99,-109.2 1.13,-113.55 -8.19,-95.55 -109.46,-95.55 0,-164.56 -246,-164.56 -246,0z"/>
 </g>
</svg>
