<?xml version="1.0" encoding="UTF-8"?>
<!DOCTYPE svg PUBLIC "-//W3C//DTD SVG 1.1//EN" "http://www.w3.org/Graphics/SVG/1.1/DTD/svg11.dtd">
<!-- Creator: CorelDRAW -->
<svg xmlns="http://www.w3.org/2000/svg" xml:space="preserve" width="6.5771mm" height="6.5771mm" version="1.1" style="shape-rendering:geometricPrecision; text-rendering:geometricPrecision; image-rendering:optimizeQuality; fill-rule:evenodd; clip-rule:evenodd"
viewBox="0 0 14.07 14.07"
 xmlns:xlink="http://www.w3.org/1999/xlink"
 xmlns:xodm="http://www.corel.com/coreldraw/odm/2003">
 <defs>
  <style type="text/css">
   <![CDATA[
    .fil0 {fill:#111945}
   ]]>
  </style>
 </defs>
 <g id="Camada_x0020_1">
  <metadata id="CorelCorpID_0Corel-Layer"/>
  <path class="fil0" d="M5.96 11.72c-0.48,0 -0.92,-0.08 -1.28,-0.26 -0.22,-0.11 -0.45,-0.25 -0.63,-0.41l-0.35 -0.35c-0.14,-0.15 -0.34,-0.46 -0.42,-0.65 -0.86,-2.02 0.62,-4.03 2.59,-4.03l0.17 0 0 1.41c-0.87,-0.23 -2.02,0.88 -1.51,2.01 0.09,0.21 0.16,0.31 0.31,0.46 0.76,0.76 1.99,0.48 2.43,-0.43 0.07,-0.16 0.14,-0.41 0.14,-0.63l0 -6.5 1.34 0c0,0.54 0.38,1.17 0.74,1.53 0.35,0.35 0.93,0.66 1.57,0.71l0 1.54c-0.9,0 -1.37,-0.14 -2.01,-0.74 -0,-0 -0.01,-0.01 -0.02,-0.02l-0.32 -0.35c0,0.93 0.08,3.95 -0.1,4.62 -0.14,0.55 -0.53,1.11 -0.92,1.42 -0.25,0.19 -0.42,0.31 -0.73,0.44 -0.26,0.11 -0.64,0.21 -0.99,0.21zm-5.96 -10.18l0 10.99c0,0.75 0.79,1.54 1.54,1.54l10.99 0c0.75,0 1.54,-0.79 1.54,-1.54l0 -10.99c0,-0.75 -0.79,-1.54 -1.54,-1.54l-10.99 0c-0.75,0 -1.54,0.79 -1.54,1.54z"/>
 </g>
</svg>
