<?xml version="1.0" encoding="UTF-8"?>
<!DOCTYPE svg PUBLIC "-//W3C//DTD SVG 1.1//EN" "http://www.w3.org/Graphics/SVG/1.1/DTD/svg11.dtd">
<!-- Creator: CorelDRAW -->
<svg xmlns="http://www.w3.org/2000/svg" xml:space="preserve" width="7.4856mm" height="7.4856mm" version="1.1" style="shape-rendering:geometricPrecision; text-rendering:geometricPrecision; image-rendering:optimizeQuality; fill-rule:evenodd; clip-rule:evenodd"
viewBox="0 0 117.77 117.77"
 xmlns:xlink="http://www.w3.org/1999/xlink"
 xmlns:xodm="http://www.corel.com/coreldraw/odm/2003">
 <defs>
  <style type="text/css">
   <![CDATA[
    .fil0 {fill:#D3E459}
   ]]>
  </style>
 </defs>
 <g id="Camada_x0020_1">
  <metadata id="CorelCorpID_0Corel-Layer"/>
  <path class="fil0" d="M58.89 72.48c14.14,0 29.09,12.39 30.2,25.67 -20.41,13.67 -39.98,13.67 -60.4,0 1.11,-13.28 16.06,-25.67 30.2,-25.67zm-13.59 -22.65c0,-17.34 27.18,-17.34 27.18,0 0,17.35 -27.18,17.35 -27.18,0zm-9.06 -3.02c0,11.03 -0.2,10.32 6.04,19.63 -8.79,4.65 -18.63,11.89 -21.14,22.65 -22.48,-15.06 -13.79,-80.03 37.75,-80.03 46.69,0 63.86,62.54 37.75,80.03 -2.5,-10.76 -12.35,-18 -21.14,-22.65 12.94,-19.33 5.27,-39.26 -19.63,-39.26 -9.26,0 -19.63,10.37 -19.63,19.63zm-36.24 7.55l0 9.06c0,26.94 27.42,54.36 54.36,54.36l9.06 0c26.94,0 54.36,-27.42 54.36,-54.36l0 -9.06c0,-26.94 -27.42,-54.36 -54.36,-54.36l-9.06 0c-26.94,0 -54.36,27.42 -54.36,54.36z"/>
 </g>
</svg>
