<?xml version="1.0" encoding="UTF-8"?>
<!DOCTYPE svg PUBLIC "-//W3C//DTD SVG 1.1//EN" "http://www.w3.org/Graphics/SVG/1.1/DTD/svg11.dtd">
<!-- Creator: CorelDRAW -->
<svg xmlns="http://www.w3.org/2000/svg" xml:space="preserve" width="5.3412mm" height="5.3274mm" version="1.1" style="shape-rendering:geometricPrecision; text-rendering:geometricPrecision; image-rendering:optimizeQuality; fill-rule:evenodd; clip-rule:evenodd"
viewBox="0 0 8.88 8.86"
 xmlns:xlink="http://www.w3.org/1999/xlink"
 xmlns:xodm="http://www.corel.com/coreldraw/odm/2003">
 <defs>
  <style type="text/css">
   <![CDATA[
    .fil0 {fill:#111945}
   ]]>
  </style>
 </defs>
 <g id="Camada_x0020_1">
  <metadata id="CorelCorpID_0Corel-Layer"/>
  <path class="fil0" d="M3.4 4.99l-0.61 0.72c-0.22,0.22 -0.42,0.49 -0.63,0.72l-0.31 0.36c-0.05,0.06 -0.05,0.07 -0.11,0.13 -0.25,0.27 -0.47,0.57 -0.72,0.84 -0.26,0.27 -0.48,0.58 -0.73,0.85l-0.22 0.25 0.77 0c0.1,-0.16 0.24,-0.27 0.35,-0.42l0.91 -1.05c0.03,-0.04 0.05,-0.06 0.09,-0.1l0.63 -0.74c0.26,-0.32 0.7,-0.75 0.91,-1.07 0.12,0.08 0.48,0.66 0.59,0.83l0.86 1.26c0.08,0.11 0.85,1.18 0.88,1.29l2.82 0c-0.07,-0.13 -0.14,-0.21 -0.21,-0.32 -0.08,-0.12 -0.15,-0.22 -0.23,-0.33 -0.07,-0.1 -0.14,-0.21 -0.21,-0.32 -0.08,-0.11 -0.15,-0.22 -0.23,-0.33l-0.89 -1.3c-0.36,-0.48 -0.96,-1.41 -1.34,-1.95 -0.08,-0.12 -0.15,-0.21 -0.23,-0.33 -0.08,-0.12 -0.16,-0.21 -0.22,-0.34 0.14,-0.1 0.47,-0.52 0.59,-0.67 0.39,-0.46 0.8,-0.89 1.18,-1.36l0.79 -0.91c0.15,-0.16 0.48,-0.54 0.59,-0.69 -0.13,0 -0.26,0 -0.4,0 -0.46,-0 -0.35,-0.02 -0.67,0.38l-0.38 0.43c-0.04,0.05 -0.05,0.07 -0.09,0.12l-1.73 2c-0.04,0.05 -0.16,0.2 -0.2,0.22 -0.06,-0.04 -0.22,-0.3 -0.27,-0.38 -0.53,-0.8 -1.09,-1.57 -1.62,-2.36 -0.1,-0.14 -0.19,-0.25 -0.27,-0.41l-2.82 0 1.91 2.79c0.08,0.11 0.14,0.21 0.22,0.32 0.3,0.41 0.56,0.84 0.86,1.24 0.07,0.1 0.14,0.21 0.21,0.31 0.05,0.08 0.19,0.24 0.21,0.33z"/>
 </g>
</svg>
