<?xml version="1.0" encoding="UTF-8"?>
<!DOCTYPE svg PUBLIC "-//W3C//DTD SVG 1.1//EN" "http://www.w3.org/Graphics/SVG/1.1/DTD/svg11.dtd">
<!-- Creator: CorelDRAW -->
<svg xmlns="http://www.w3.org/2000/svg" xml:space="preserve" width="8.9952mm" height="6.7195mm" version="1.1" style="shape-rendering:geometricPrecision; text-rendering:geometricPrecision; image-rendering:optimizeQuality; fill-rule:evenodd; clip-rule:evenodd"
viewBox="0 0 27.92 20.86"
 xmlns:xlink="http://www.w3.org/1999/xlink"
 xmlns:xodm="http://www.corel.com/coreldraw/odm/2003">
 <defs>
  <style type="text/css">
   <![CDATA[
    .fil0 {fill:#111945}
   ]]>
  </style>
 </defs>
 <g id="Camada_x0020_1">
  <metadata id="CorelCorpID_0Corel-Layer"/>
  <path class="fil0" d="M2.07 5.61c-0.21,1.79 -0.28,4.06 -0.28,4.81 0,0.42 0.01,0.9 0.03,1.36 0.02,0.42 0.05,0.83 0.08,1.17 0.02,0.21 0.03,0.39 0.04,0.57 0.01,0.21 0.02,0.42 0.06,0.65l0.01 0.09c0.12,0.86 0.35,2.56 0.67,3.11 0.56,0.96 2,1.13 3.17,1.27l0.51 0.06c0.49,0.07 1.53,0.16 2.55,0.23 0.98,0.07 1.94,0.12 2.4,0.12 0.5,-0 0.93,0.02 1.35,0.03 0.39,0.01 0.78,0.03 1.25,0.03 1.32,0 2.87,-0.08 4.3,-0.15l0.83 -0.04 3.6 -0.39c2.64,-0.37 2.72,-0.95 3,-2.95 0.07,-0.47 0.13,-0.95 0.19,-1.42 0.09,-0.63 0.14,-1.53 0.19,-2.37 0.03,-0.5 0.06,-0.97 0.09,-1.34 0.02,-0.29 -0,-0.52 -0.03,-0.74 -0.02,-0.16 -0.03,-0.31 -0.04,-0.5 -0.01,-0.76 -0.12,-2.35 -0.31,-3.71 -0.13,-0.93 -0.28,-1.73 -0.46,-2.04 -0.12,-0.21 -0.33,-0.42 -0.59,-0.59 -0.26,-0.18 -0.55,-0.32 -0.82,-0.38 -0.59,-0.13 -1.88,-0.28 -3.23,-0.41 -1.62,-0.15 -3.32,-0.25 -4.06,-0.25 -0.5,0 -0.93,-0.02 -1.37,-0.03 -0.39,-0.01 -0.78,-0.03 -1.24,-0.03 -0.59,-0 -2.35,0.04 -3.91,0.11 -1.06,0.05 -2.02,0.1 -2.44,0.16 -0.38,0.06 -0.8,0.09 -1.22,0.13 -1.45,0.13 -3.05,0.27 -3.84,1.23 -0.22,0.26 -0.38,1.14 -0.5,2.18zm9.89 2.36l0 4.9 0.39 -0.22c0.68,-0.38 1.58,-0.91 1.74,-1.01 0.26,-0.16 0.47,-0.28 0.68,-0.4l0.88 -0.51 0.3 -0.17 0.26 -0.16c-0.52,-0.27 -1.38,-0.77 -2.22,-1.27 -0.8,-0.47 -1.6,-0.94 -2.04,-1.18zm-0.78 7.42c-0.2,0.12 -0.41,0.23 -0.63,0.35l-0.38 0.2 0 -11.04 0.38 0.2c0.23,0.12 0.44,0.24 0.65,0.36 1.99,1.11 4.14,2.26 6.05,3.45 0.16,0.1 0.9,0.54 1.5,0.87 0.31,0.17 0.57,0.31 0.64,0.32l0.2 0.05 0 0.54 -0.2 0.05c-0.14,0.03 -0.23,0.09 -0.34,0.16 -0.05,0.03 -0.11,0.07 -0.19,0.11 -2.57,1.44 -5.11,2.94 -7.67,4.38zm-11.19 -5.82l-0 -0.16c0,-0.87 0.04,-1.73 0.11,-2.57 0.07,-0.83 0.17,-1.64 0.27,-2.42 0.06,-0.44 0.12,-0.8 0.22,-1.15 0.1,-0.35 0.25,-0.67 0.49,-0.99 0.2,-0.26 0.44,-0.5 0.71,-0.71 0.27,-0.21 0.58,-0.4 0.89,-0.53 1.04,-0.46 3.08,-0.73 5.4,-0.88 3.47,-0.22 7.59,-0.17 9.9,-0.1 0.18,0.01 0.27,0.02 0.36,0.04 0.07,0.01 0.14,0.03 0.28,0.03 0.89,0.03 2.73,0.12 4.27,0.32 1.02,0.13 1.93,0.31 2.37,0.55 0.83,0.45 1.31,0.93 1.62,1.52 0.3,0.57 0.43,1.22 0.57,2.02 0.32,1.89 0.46,3.77 0.45,5.64 -0.01,1.88 -0.16,3.75 -0.43,5.64l-0.04 0.3c-0.21,1.48 -0.37,2.61 -1.99,3.52 -0.33,0.18 -0.69,0.32 -1.07,0.42 -0.37,0.1 -0.78,0.17 -1.2,0.23 -1.33,0.18 -2.58,0.32 -3.85,0.42 -1.27,0.1 -2.56,0.15 -3.94,0.15 -1.59,0 -4.19,-0.01 -6.69,-0.15 -2.51,-0.14 -4.89,-0.4 -5.98,-0.92 -0.14,-0.07 -0.29,-0.15 -0.43,-0.24 -0.15,-0.1 -0.3,-0.2 -0.44,-0.31 -0.15,-0.12 -0.27,-0.23 -0.38,-0.35 -0.11,-0.12 -0.21,-0.25 -0.31,-0.39 -1.15,-1.54 -1.15,-6.66 -1.15,-8.94z"/>
 </g>
</svg>
